<?xml version="1.0" encoding="utf-8"?>
<!-- Generator: Adobe Illustrator 16.0.4, SVG Export Plug-In . SVG Version: 6.00 Build 0)  -->
<!DOCTYPE svg PUBLIC "-//W3C//DTD SVG 1.1//EN" "http://www.w3.org/Graphics/SVG/1.1/DTD/svg11.dtd">
<svg version="1.1" id="Layer_1" xmlns="http://www.w3.org/2000/svg" xmlns:xlink="http://www.w3.org/1999/xlink" x="0px" y="0px"
	 width="17.542px" height="13.599px" viewBox="0 0 17.542 13.599" enable-background="new 0 0 17.542 13.599" xml:space="preserve">
<path fill="#111111" d="M2.936,7.544C1.668,7.502,0.022,8.082,0,5.89c-0.021-1.965,1.221-2.372,2.873-2.198
	c2.096,1.819,4.608,0.84,6.876,0.765c1.305-0.043,0.152-1.196-0.273-1.44C8.479,2.447,7.665,1.77,8.34,0.66
	c0.755-1.241,1.721-0.452,2.574,0.118c1.982,1.325,4.005,2.594,5.953,3.968c0.972,0.686,0.793,1.938,0.104,2.411
	c-1.528,1.053-2.122,3.147-4.273,3.541c-0.816,0.149-1.916,0.489-2.178,1.771c-0.141,0.689-0.762,1.319-1.686,1.078
	c-0.699-0.183-1.057-0.76-1.204-1.398c-0.187-0.809,0.177-1.736,0.859-1.86c1.401-0.254,1.804-1.786,3.102-2.086
	c0.328-0.076,1.047-0.156,0.658-0.821c-0.21-0.359-0.788-0.904-0.947-0.828c-2.345,1.104-4.7-0.498-7.046,0.08
	C3.63,6.785,3.386,7.259,2.936,7.544z"/>
</svg>
