<?xml version="1.0" encoding="utf-8"?>
<!-- Generator: Adobe Illustrator 16.0.4, SVG Export Plug-In . SVG Version: 6.00 Build 0)  -->
<!DOCTYPE svg PUBLIC "-//W3C//DTD SVG 1.1//EN" "http://www.w3.org/Graphics/SVG/1.1/DTD/svg11.dtd">
<svg version="1.1" id="Layer_1" xmlns="http://www.w3.org/2000/svg" xmlns:xlink="http://www.w3.org/1999/xlink" x="0px" y="0px"
	 width="20.879px" height="16.182px" viewBox="0 0 20.879 16.182" enable-background="new 0 0 20.879 16.182" xml:space="preserve">
<path fill="#0A0A0A" d="M7.951,9.734C5.947,9.773,3.93,9.682,1.942,9.885c-2.35,0.24-2.265-0.698-1.329-2.261
	C4.691,7.4,8.769,7.159,12.85,6.965c0.771-0.037,1.587-0.012,1.903-0.808c0.311-0.783-0.441-1.262-0.874-1.785
	c-0.572-0.691-1.131-1.416-1.811-1.987c-0.578-0.486-0.695-1.074-0.02-1.158c0.799-0.1,0.763-1.974,1.826-0.891
	c1.873,1.907,3.932,3.566,5.99,5.259c1.801,1.48,1.076,4.044-1.192,5.071c-2.341,1.058-4.589,2.068-5.662,4.739
	c-0.465,1.154-1.735,0.857-2.598,0.18c-0.844-0.662-0.851-1.182,0.076-2.119c0.83-0.843,1.494-1.734,2.631-2.236
	c0.865-0.383,1.86-0.815,1.699-2.133C12.538,9.307,10.244,9.521,7.951,9.734z"/>
</svg>
