<?xml version="1.0" encoding="utf-8"?>
<!-- Generator: Adobe Illustrator 16.0.4, SVG Export Plug-In . SVG Version: 6.00 Build 0)  -->
<!DOCTYPE svg PUBLIC "-//W3C//DTD SVG 1.1//EN" "http://www.w3.org/Graphics/SVG/1.1/DTD/svg11.dtd">
<svg version="1.1" id="Layer_1" xmlns="http://www.w3.org/2000/svg" xmlns:xlink="http://www.w3.org/1999/xlink" x="0px" y="0px"
	 width="23.331px" height="13.052px" viewBox="0 0 23.331 13.052" enable-background="new 0 0 23.331 13.052" xml:space="preserve">
<path fill="#0A0A0A" d="M1.96,7.932C0.745,7.966-0.114,7.742,0.012,6.159c0.141-1.771,1.352-0.997,2.204-1.083
	c0.803-0.081,1.613-0.102,2.419-0.15c4.17,0.078,8.34,0.189,12.51,0.199c0.683,0.002,1.856,0.57,2.017-0.644
	c0.162-1.229-1.182-0.844-1.818-1.225c-0.375-0.225-0.889-0.205-1.315-0.362c-0.87-0.32-1.004-1.049-0.817-1.821
	c0.166-0.691,0.647-1.032,1.418-1.07c2.515-0.123,6.44,3.441,6.693,6.235c0.031,0.35-0.009,0.87-0.229,1.055
	c-2.675,2.249-5.122,4.854-8.688,5.759c-1.326-1.608-0.18-2.478,0.997-3.336c0.597-0.597,1.195-1.194,2.138-2.138
	C12.121,7.357,7.04,7.179,1.96,7.932z"/>
</svg>
