<?xml version="1.0" encoding="utf-8"?>
<!-- Generator: Adobe Illustrator 16.0.4, SVG Export Plug-In . SVG Version: 6.00 Build 0)  -->
<!DOCTYPE svg PUBLIC "-//W3C//DTD SVG 1.1//EN" "http://www.w3.org/Graphics/SVG/1.1/DTD/svg11.dtd">
<svg version="1.1" id="Layer_1" xmlns="http://www.w3.org/2000/svg" xmlns:xlink="http://www.w3.org/1999/xlink" x="0px" y="0px"
	 width="15.082px" height="13.366px" viewBox="0 0 15.082 13.366" enable-background="new 0 0 15.082 13.366" xml:space="preserve">
<path fill="#0B0B0B" d="M4.04,2.98c1.017,0.08,2.058,0.047,3.042,0.266c1.346,0.301,1.733-0.113,1.334-1.382
	c-0.191-0.61-0.583-1.317,0.245-1.675c0.666-0.287,1.369-0.266,2.098,0.188c1.56,0.969,2.345,2.674,3.816,3.773
	c0.731,0.546,0.744,2.062-0.446,2.883C11.74,8.682,9.29,10.252,7.83,12.916c-0.278,0.51-0.958,0.518-1.521,0.359
	c-0.541-0.151-0.633-0.641-0.67-1.104c-0.106-1.354,0.344-2.468,1.477-3.275c1.005-0.717,2.1-1.354,2.914-3.215
	c-2.736,0.07-5.102,0.031-7.449,0.223c-2.12,0.173-2.946-0.571-2.434-2.67C1.389,2.264,2.699,2.391,4.04,2.98z"/>
</svg>
