<?xml version="1.0" encoding="utf-8"?>
<!-- Generator: Adobe Illustrator 16.0.4, SVG Export Plug-In . SVG Version: 6.00 Build 0)  -->
<!DOCTYPE svg PUBLIC "-//W3C//DTD SVG 1.1//EN" "http://www.w3.org/Graphics/SVG/1.1/DTD/svg11.dtd">
<svg version="1.1" id="Layer_1" xmlns="http://www.w3.org/2000/svg" xmlns:xlink="http://www.w3.org/1999/xlink" x="0px" y="0px"
	 width="180px" height="180px" viewBox="0 0 180 180" enable-background="new 0 0 180 180" xml:space="preserve">
<circle fill="#FFFFFF" cx="87.083" cy="87.862" r="81.221"/>
<path fill="#0A0A0F" d="M132.142,26.85c-2.346-4.051-6.977-5.294-10.383-8.023c-8.39-6.728-18.622-10.182-29.25-11.901
	c-4.847-0.785-9.815-0.551-14.724,0.102c-1.048,0.14-2.698,0.804-2.963-0.68c-0.25-1.408,0.682-2.4,2.517-2.788
	c8.203-1.734,16.216-2.351,24.21,1.198c4.068,1.807,8.849,0.181,13.039,1.957c6.595,1.006,12.431,3.698,17.607,7.872
	c10.473,7.618,18.787,17.344,25.842,28.008c4.013,6.063,8.887,11.847,10.478,19.298c6.323,8.463,5.293,19.137,8.58,28.511
	c1.662,6.619,0.893,13.25-0.22,19.812c-0.463,2.732-1.683,5.422-1.811,8.181c-0.35,7.53-4.336,13.243-8.737,18.817
	c-0.407,0.52-1.031,0.953-1.22,1.543c-2.413,7.496-9.086,11.403-13.963,16.836c-2.52,2.806-5.439,5.119-8.873,6.033
	c-8.795,2.338-16.763,7.102-25.477,9.156c-8.232,1.943-16.926,2.38-25.508,2.376c-2.98-0.079-5.891-0.592-8.753-1.408
	c-2.271-1.67-4.89-1.238-7.444-1.209c-1.397,0.054-2.672-0.283-3.786-1.149c-8.674-0.256-16.652-3.728-24.453-6.673
	c-9.139-3.452-17.353-9.344-24.553-16.196c-6.455-6.145-12.274-12.837-16.086-21.042c-1.088-2.342-2.558-4.482-2.726-7.2
	c-0.329-5.276-3.313-9.874-3.462-15.336C-0.407,87.146,5.1,73.551,13.573,60.555c7.646-11.727,17.562-21.271,28.232-29.806
	c9.558-7.646,20.039-14.105,32.718-16.631c6.173-1.229,12.185-1.875,18.37-2.113c3.118-0.118,4.628,1.11,4.452,4.262
	c-0.188,3.287-2.431,2.273-4.342,2.123c-12.078-0.949-23.8,1.374-34.164,7.111c-7.894,4.372-15.583,9.484-22.305,15.97
	c-5.216,5.035-11.064,9.695-15.462,15.293C14.275,65.42,7.916,74.438,5.463,85.901c-1.789,8.354-2.947,16.466-0.808,24.572
	c2.293,8.692,4.916,17.342,11.552,24.229c3.124,3.239,4.796,7.892,9.829,9.037c5.604,2.858,11.016,6.045,16.23,9.566
	c3.238,1.113,6.42,1.956,9.973,1.954c4.734-0.002,8.99,2.487,13.465,3.878c7.185,0.842,14.226,2.485,21.317,3.825
	c14.012,1.346,27.567-0.411,40.579-5.918c3.674-2.231,7.979-3.106,11.632-5.385c3.564-3.771,7.873-6.662,11.227-10.808
	c4.393-5.424,8.985-10.511,10.996-17.395c0.704-2.406,1.818-4.692,2.745-7.03c0.625-7.109,2.142-14.173,1.913-21.321
	c-0.608-18.997-7.176-35.833-18.897-50.75c-2.001-2.547-4.601-4.627-6.012-7.637c-0.338-0.673-0.673-1.346-1.011-2.019
	C137.826,31.765,135.226,29.061,132.142,26.85z"/>
<path fill="#0C090B" d="M52.705,81.849c-1.021,11.35,0.633,22.462,2.911,33.524c0.261,1.267,1.636,3.117-0.361,3.764
	c-2.581,0.83-2.132-1.768-2.548-3.111c-1.274-4.104-1.963-8.344-2.091-12.624c-0.325-10.89-0.514-21.783-0.721-32.674
	c-0.028-1.416-0.609-3.019,0.97-4.074c2.383-1.418,3.451,0.135,4.412,1.936c2.71,3.22,6.223,0.866,9.331,1.329
	c15.068-2.859,30.381-3.042,45.595-4.284c3.053-0.25,4.377-1.626,4.305-4.718c-0.081-3.37-2.023-4.109-4.868-4.044
	c-13.343,0.311-26.681,0.671-40.021,1.034c-5.746,0.157-11.495,0.176-17.235,0.495c-2.774,1.16-4.324-0.456-6.112-2.888
	c4.85-1.131,9.423-1.793,14.072-1.917c13.3-0.35,26.599-0.928,39.896-0.866c6.698,0.032,13.394,0.335,20.099,0.076
	c1.502-0.058,3.611-0.524,3.548,2.198c-3.198,3.413-2.264,7.086-0.682,10.801l-0.059,0.115c1.575,2.4-1.202,3.425-1.637,5.191
	c-0.757,12.803,3.406,25.04,4.347,37.654c0.386,5.166,1.206,10.298,1.828,15.446c2.027,1.953,4.935,0.045,7.05,1.605
	c0.821,0.431,2.285-0.222,2.532,0.918c0.348,1.622-1.25,1.078-2.013,1.225c-22.338,4.289-44.985,3.217-67.534,3.58
	c-3.755,0.061-6.744-4.058-11.007-3.905c-0.349,0.014-1.162-1.658-1.041-2.436c0.185-1.196,1.542-1.012,2.47-0.975
	c16.305,0.631,32.609-0.852,48.916,0.038c3.945,0.214,7.917-0.107,11.865,0.055c2.665,0.109,3.271-0.979,3.309-3.477
	c0.071-4.859-1.669-9.381-2.165-14.116c-1.529-1.747-0.137-4.403-1.899-6.078c-0.642-7.286-1.283-14.572-1.923-21.859
	c-1.632-2.788-4.162-3.25-7.187-3.218c-13.211,0.142-26.38,0.938-39.518,2.248c-2.485,0.249-4.881,0.152-7.368-0.127
	C58.371,77.266,54.434,77.244,52.705,81.849z"/>
<path fill="#2CADBE" d="M52.381,58.4c-0.287-2.539,1.766-1.343,2.6-1.387c19.281-0.992,38.575-1.54,57.884-1.722
	c2.73-0.026,3.345,0.889,3.251,3.381c-0.296,7.947-0.235,7.838-8.483,8.439c-10.528,0.767-21.03,1.803-31.579,2.383
	c-3.94,0.216-7.838,1.926-11.962,1.442c-3.208-1.381-6.866,0.755-9.993-1.27c0.105-2.276-1.498-2.717-3.232-3.017
	c-0.995-2.856,2.508-4.171,2.354-6.883C53.168,58.854,52.607,58.864,52.381,58.4z"/>
<path fill="#A8A4BB" d="M91.208,171.871c7.541-0.606,15.076-1.279,22.623-1.795c3.313-0.229,6.053-2.023,9.052-3.055
	c7.934-2.726,15.696-5.949,23.538-8.952c1.455-0.557,2.174-1.897,3.257-2.819c5.843-4.979,10.901-10.557,14.826-17.195
	c2.654-4.491,5.978-8.62,8.306-13.261c1.178-2.347,0.567-5.522,1.183-8.228c1.965-8.62,3.858-17.229,3.104-26.163
	c0.964,0.298,1.081,1.088,1.171,1.931c0.803,7.457-0.218,14.964,1.622,22.503c0.672,2.754-1.919,6.998-3.075,10.542
	c-2.499,7.649-8.355,13.254-12.445,19.882c-6.565,10.633-16.611,16.929-26.331,23.299c-6.413,4.203-14.447,6.404-22.452,7.701
	c-6.741,1.092-13.45,1.118-20.199,1.287c-1.783-2.179-0.123-3.104,1.256-3.926C94.849,173.4,92.305,175.147,91.208,171.871z"/>
<path fill="#B0B0C5" d="M141.207,36.72c12.771,12.143,21.404,26.399,24.325,44.146c0.789,4.803,1.945,9.504,1.942,14.414
	c-0.005,7.224-2.162,14.104-3.272,21.148c-1.337-4.515,1.209-9.008-0.273-13.664c-3.192-10.02-3.674-20.655-7.565-30.666
	c-2.328-5.991-4.231-12.419-7.241-17.946c-2.53-4.654-3.255-10.229-7.102-14.188C141.215,39.133,140.917,37.943,141.207,36.72z"/>
<path fill="#2CADBE" d="M52.705,81.849c-0.12-5.125,1.636-7.145,8.257-5.896c7.361,1.389,14.292-0.717,21.433-0.731
	c9.881-0.019,19.772-0.607,29.636-1.298c4.136-0.29,4.939,1.405,4.21,4.871c-16.226,0.539-32.451,1.128-48.677,1.589
	C62.565,80.524,57.779,82.628,52.705,81.849z"/>
<path fill="#BCBAC9" d="M168.517,61.892c-3.066-5.552-6.467-10.946-9.89-16.239c-2.667-4.121-4.948-8.675-8.951-12.073
	c-4.716-4-8.16-9.329-12.436-13.856c-1.759-1.861-5.74-0.529-5.676-4.369c0.624-3.535,2.923-2.366,4.687-1.406
	c1.539,0.836,3.086,1.776,4.468,2.908c7.669,1.418,10.399,7.685,13.557,13.632c2.106,3.967,4.76,7.653,6.757,11.667
	C164.174,48.473,168.664,54.319,168.517,61.892z"/>
<path fill="#D0CBE0" d="M91.208,171.871c3.232,2.045,7.014-0.308,10.54,1.27c-1.131,3.077-7.014-0.802-6.363,4.411
	c-5.566,0.931-11.028-0.785-16.586-0.81c-2.216-0.009-4.449-1.743-7.237-2.034c-3.497-0.363-0.61-3.418-0.256-5.316
	c1.282-0.018,2.565-0.031,3.847-0.045c2.131,1.698,5.048-0.163,7.169,1.586C85.283,171.245,88.246,171.557,91.208,171.871z"/>
<path fill="#9A95AB" d="M140.721,16.861c-1.572,0.002-3.102,0.264-4.335-1.318c-1.378-1.764-3.137-2.175-4.82-0.184
	c-5.142-3.891-11.471-5.46-16.976-8.643c1.608-1.306,4.176-1.145,5.186-3.424c0.14-0.321,1.015-0.688,1.234-0.546
	C127.784,7.162,136.589,8.761,140.721,16.861z"/>
<path fill="#A7A2B7" d="M41.134,154.305c-3.739-2.373-7.423-4.842-11.242-7.074c-1.578-0.922-2.783-2.095-3.854-3.49
	c3.386,0.602,6.455-3.852,9.969-0.697c3.021,2.71,6.868,4.469,9.205,7.965C45.373,153.987,44.188,155.302,41.134,154.305z"/>
<path fill="#171617" d="M102.417,102.547c0.104-1.411-1.312-1.401-2.324-1.678c-1.655-0.457-3.015-1.335-3.894-2.74
	c-0.357-0.57-0.422-1.681-0.093-2.234c0.442-0.752,1.587-0.638,2.23-0.211c3.127,2.081,6,4.473,9.688,5.753
	c1.213,0.418,2.044,3.109-0.116,3.937c-3.775,1.442-6.543,3.971-9.354,6.683c-0.756,0.727-2.522,2.174-3.819,0.787
	c-1.057-1.129-0.617-2.638,0.316-4.038c1.417-2.128,3.705-2.954,5.673-4.238C101.475,104.075,102.708,104.263,102.417,102.547z"/>
<path fill="#151516" d="M76.192,110.64c-4.154,0.278-7.677-1.441-10.789-3.563c-2.155-1.47-2.566-4.398-0.289-6.234
	c3.504-2.828,7.394-5.179,11.14-7.702c0.584-0.393,1.358-0.431,1.676,0.289c0.478,1.086,0.567,2.281-0.529,3.099
	c-2.143,1.602-4.19,3.436-6.567,4.577c-1.567,0.752-2.519,1.577-2.466,3.147c0.046,1.359,1.3,1.615,2.485,1.765
	C73.558,106.36,73.958,109.574,76.192,110.64z"/>
<path fill="#161719" d="M91.62,88.168c2.38,2.965,1.922,4.627,0.405,7.578c-2.851,5.541-6.687,10.527-9.018,16.323
	c-0.344,0.86-0.149,2.29-1.451,2.155c-1.657-0.169-1.261-1.757-1.129-2.768c0.211-1.602,0.349-3.455,1.238-4.678
	C85.731,101.19,88.157,94.744,91.62,88.168z"/>
<path fill="#747182" d="M41.134,154.305c2.67,0.521,2.721-2.199,4.08-3.299c5.875,4.604,13.88,3.396,20,7.333
	c0.312,0.239,0.407,0.466,0.286,0.681c-0.114,0.205-0.229,0.308-0.344,0.311c-2.738-0.254-5.372-0.537-7.774-2.295
	c-1.204-0.88-3.432-1.548-4.635-1.023C48.369,157.919,44.942,155.14,41.134,154.305z"/>
<path fill="#84838B" d="M65.156,159.33c0.021-0.33,0.038-0.66,0.057-0.991c7.335,1.235,15.078,0.545,21.81,4.624
	C79.364,163.971,72.353,161.093,65.156,159.33z"/>
<path fill="#989AA9" d="M123.204,65.808c-4.293-1.738-1.47-5.425-2.16-8.141c-0.54-2.121,0.865-2.868,2.844-2.66
	C122.773,58.552,122.892,62.174,123.204,65.808z"/>
<path fill="#0C090B" d="M124.235,66.016c1.977-0.279,3.905-0.276,5.839,0.436c1.25,0.46,3.547-0.218,2.997,2.103
	c-0.448,1.888-2.427,0.917-3.789,0.951c-1.087-0.851-2.44-0.571-3.646-0.884C124.385,68.295,123.049,67.762,124.235,66.016z"/>
<path fill="#827F8D" d="M139.234,151.663c-3.537,2.532-6.964,5.3-11.632,5.384C130.579,153.307,135.332,153.403,139.234,151.663z"/>
<path fill="#B0B0C5" d="M132.142,26.85c4.67,0.579,6.09,4.496,8.055,7.851C137.047,32.563,134.136,30.176,132.142,26.85z"/>
<path fill="#55595A" d="M124.235,66.016c-0.044,1.636,1.082,1.673,2.264,1.677c1.304,0.006,2.656-0.022,2.781,1.811
	c-2.57,0.629-5.488-0.408-7.771,1.611c-1.231-2.29,1.993-3.177,1.637-5.191C123.508,65.953,123.872,65.985,124.235,66.016z"/>
<path fill="#A4A4A4" d="M134.733,125.821c-2.385-0.38-5.482,2.368-7.05-1.604C130.058,124.641,132.965,122.724,134.733,125.821z"/>
<path fill="#4E4B5F" d="M82.322,170.931c-2.489-0.087-5.318,1.377-7.169-1.588C77.645,169.412,80.528,167.71,82.322,170.931z"/>
<path fill="#2CADBE" d="M54.099,69.667c3.302,0.641,6.996-1.792,9.992,1.271c-2.584,1.01-5.322,0.564-7.985,0.835
	C54.583,71.929,53.576,71.504,54.099,69.667z"/>
<path fill="#08080C" d="M77.105,66.193c-1.837-0.694-1.828-2.337-1.659-3.921c0.067-0.63,0.422-2.097,1.283-1.355
	c1.148,0.989,3.688,1.008,3.036,3.644C79.397,66.049,78.364,66.092,77.105,66.193z"/>
<path fill="#45221E" d="M63.684,64.94c0.05,1.544-0.537,2.353-1.965,2.254c-1.702-0.117-1.865-1.472-2.081-2.756
	c-0.257-1.532,0.55-2.056,1.913-1.929C63.106,62.658,63.781,63.597,63.684,64.94z"/>
<path fill="#08080C" d="M71.534,65.03c0.08,1.313-0.311,2.261-1.83,2.23c-1.69-0.036-2.041-1.244-2.274-2.609
	c-0.259-1.52,0.505-2.111,1.851-2.136C70.953,62.484,71.495,63.555,71.534,65.03z"/>
</svg>
