<?xml version="1.0" encoding="utf-8"?>
<!-- Generator: Adobe Illustrator 16.0.4, SVG Export Plug-In . SVG Version: 6.00 Build 0)  -->
<!DOCTYPE svg PUBLIC "-//W3C//DTD SVG 1.1//EN" "http://www.w3.org/Graphics/SVG/1.1/DTD/svg11.dtd">
<svg version="1.1" id="Layer_1" xmlns="http://www.w3.org/2000/svg" xmlns:xlink="http://www.w3.org/1999/xlink" x="0px" y="0px"
	 width="180px" height="180px" viewBox="0 0 180 180" enable-background="new 0 0 180 180" xml:space="preserve">
<circle fill="#FFFFFF" cx="86.414" cy="83.88" r="83.88"/>
<path fill="#2CADBE" d="M128.402,118.812c0,3.402-2.76,6.162-6.164,6.162l0,0c-3.404,0-6.164-2.76-6.164-6.162V86.45
	c0-3.403,2.76-6.163,6.164-6.163l0,0c3.404,0,6.164,2.76,6.164,6.163V118.812z"/>
<path fill="#2CADBE" d="M105.353,117.825c0,2.411-2.762,4.369-6.164,4.369l0,0c-3.404,0-6.164-1.956-6.164-4.369V94.887
	c0-2.411,2.76-4.369,6.164-4.369l0,0c3.402,0,6.164,1.956,6.164,4.369V117.825z"/>
<path fill="#060608" d="M27.845,142.621c-4.451-4.723-9.279-9.146-13.278-14.224C3.674,114.56,1.297,98.605,4.045,81.617
	c1.483-9.161,4.171-18.24,9.149-25.833c6.409-9.773,14.543-18.256,23.435-26.214c10.287-9.209,21.716-12.875,34.918-14.878
	c7.102-1.077,13.515,0.408,20.23,0.668c1.82,0.071,4.281,0.51,3.553,3.599c-0.648,2.754-2.736,1.946-4.487,1.78
	c-10.567-1.012-21.13-1.302-31.397,1.875c-7.865,2.435-14.481,7.054-21.042,12.06c-7.591,5.79-13.952,12.847-19.305,20.286
	c-4.678,6.499-9.004,13.945-10.326,22.464c-2.188,14.124-2.647,27.837,4.964,40.863c6.439,11.014,15.195,19.427,25.507,26.789
	c13.759,9.824,28.988,14.42,45.51,16.996c10.43,1.627,20.05,0.126,29.817-2.246c11.09-2.696,20.218-8.673,28.504-16.64
	c8.239-7.922,12.938-17.208,16.334-27.947c3.768-11.91,3.703-23.928,1.139-35.447c-2.445-10.979-8.019-21.111-15.183-30.341
	c-3.559-4.582-6.27-9.844-10.507-14.076c-6.298-6.291-13.546-11.222-21.241-15.469c-7.138-3.938-14.488-7.526-21.931-10.854
	c-2.869-1.282-6.23-1.588-9.41-2.023c-2.865-0.391-5.593-0.766-7.488-3.416c10.947-3.672,20.248,4.044,30.562,3.762
	c7.03,0.799,12.145,5.705,18.246,8.509c1.734,1.686,3.84,2.887,5.944,3.936c10.785,5.381,16.901,15.338,24.408,24.055
	c8.812,10.232,13.141,22.503,17.55,34.774c2.993,8.327,2.259,17.17,1.696,25.81c-0.273,4.173,0.299,8.586-1.808,12.534
	c-1.644,1.979-2.73,4.154-2.407,6.834c-0.347,7.466-3.278,13.839-8.185,19.38c-12.584,13.821-27.269,23.938-45.832,28.47
	c-9.284,2.267-18.416,1.988-27.686,2.027c-1.624-0.457-3.101-1.351-4.832-1.521c-14.77-1.465-27.095-9.053-39.718-15.883
	c-2.063-3.18-5.807-3.833-8.708-5.759c-0.607-0.349-1.159-0.775-1.67-1.247C30.053,147.609,29.885,144.484,27.845,142.621z"/>
<path fill="#C2C2D5" d="M159.892,141.969c4.235-5.442,7.804-11.172,7.865-18.397c0.759-2.185,1.632-4.319,2.704-6.369
	c1.989-12.319,3.57-24.773-0.118-36.919c-3.76-12.386-8.431-24.32-17.024-34.643c-5.51-6.621-10.272-14.054-16.74-19.693
	c-3.008-2.625-7.011-4.811-10.84-6.724c-1.284-0.641-3.154-0.726-2.899-2.912c2.074-2.661,2.755-3.038,5.048-0.498
	c2.363,2.615,3.992,1.266,5.987,0.046c0.277-0.169,1.492,0.638,0.459-0.71c-2.738-3.568,0.715-3.584,2.712-4.388
	c5.812,3.59,9.667,9.072,13.784,14.292c4.215,5.344,5.99,12.381,11.54,16.793c1.842,1.463,1.053,3.764,2.124,5.547
	c10.535,17.554,12.85,37.019,12.973,56.968c0.068,11.136-2.64,21.424-8.03,31.283c-2.59,4.739-4.569,9.615-9.208,12.756
	C158.093,146.363,159.455,144.143,159.892,141.969z"/>
<path fill="#D3D4E1" d="M33.032,148.608c0.391,0.341,0.781,0.683,1.172,1.021c2.147,2.901,5.86,3.512,8.443,5.776
	c5.626,1.568,10.117,5.42,15.599,7.491c7.545,2.853,14.461,7.325,22.851,7.772c2.1,0.11,4.476-0.109,5.969,2.013
	c7.136,1.299,14.395-0.718,21.604,0.425c-0.341,1.922-1.545,2.006-2.722,2.104c1.747,0.726,3.881,1.2,2.863,3.965
	c-6.114,0.172-12.534,1.611-18.276,0.229c-9.299-2.236-18.982-3.966-27.447-8.785c-4.587-2.609-9.658-3.318-14.477-4.912
	c-4.707-1.554-8.177-4.994-12.61-6.994c-3.696-1.669-8.209-3.072-10.438-7.277c-1.198-2.26-2.343,1.045-3.84,0.071
	c-2.158-1.401-2.718-8.978-0.418-10.31c2.39-1.381,2.646,1.165,3.64,2.297c-0.711,0.943-0.036,1.472,0.645,1.889
	c1.132,0.69,1.761-0.168,2.402-0.902l-0.046,0.028C30.708,144.552,29.992,148.916,33.032,148.608z"/>
<path fill="#090909" d="M107.505,60.778c-6.666,5.156-12.929,9.729-18.87,14.689c-4.112,3.433-7.959,7.232-11.592,11.175
	c-3.817,4.145-5.969,4.812-10.674,1.509c-5.601-3.933-10.987-8.182-16.422-12.346c-1.563-1.196-2.125-3.152-0.72-4.423
	c1.324-1.198,2.874,0.22,3.907,1.344c4.037,4.397,9.402,7.115,13.832,11.032c3.146,2.78,5.396-0.274,7.167-2.146
	c6.008-6.352,13.344-11.053,20.169-16.345c2.399-1.862,3.886-5.016,7.231-5.734c0.305-0.066,0.564-1.152,0.546-1.756
	c-0.039-1.173-1.052-1.131-1.873-1.144c-1.701-0.027-3.406,0.066-5.105,0.007c-1.717-0.058-2.902-0.737-2.986-2.721
	c-0.091-2.142,1.185-2.544,2.909-2.583c4.766-0.106,9.529-0.236,14.295-0.362c1.971-0.051,3.237,0.663,3.457,2.828
	c0.535,5.304-0.719,10.509-0.827,15.779c-0.023,1.145-0.866,2.217-2.338,2.26c-2.206,0.066-1.76-1.715-1.853-2.895
	C107.559,66.426,107.585,63.887,107.505,60.778z"/>
<path fill="#B6B2C3" d="M108.811,179.177c-0.386-2.354-1.98-2.818-4.083-2.857c-1.542-0.028-3.319,0.726-4.696-0.843
	c0.904-1.619,2.419-0.95,3.628-1.154c1.286-0.216,2.603-0.257,4.996-0.472c-7.906-1.56-14.868,1.286-21.588-1.168
	c6.466-0.14,13.093,0.577,19.358-0.611c10.91-2.068,21.51-4.979,31.171-11.413c6.737-4.487,12.899-9.381,18.975-14.615
	c1.482-1.278,1.943-2.968,3.319-4.074c0.112,2.146,0.221,4.289,0.335,6.433c-0.502,4.401-4.234,7.214-7.089,8.741
	c-6.898,3.69-11.134,10.185-17.363,14.336c-2.854,1.904-6.42,2.84-9.643,4.001C120.622,177.47,114.834,179.129,108.811,179.177z"/>
<path fill="#0A0A0A" d="M129.466,114.426c-0.2,1.438,0.916,3.158-0.548,4.287c-1.215,0.935-2.725,1.273-4.345,0.859
	c-2.252-0.573-1.493-2.297-1.528-3.723c-0.267-10.001-0.521-20.002-0.775-29.765c-1.575-0.37-2.327-0.04-2.329,0.658
	c-0.023,8.057-2.749,15.928-1.64,24.066c0.246,1.818,0.343,3.481,1.507,5.188c1.158,1.693,0.081,3.771-1.823,4.516
	c-2.594,1.017-3.49-1.491-3.495-2.997c-0.027-7.381-1.381-14.792,0.606-22.167c0.931-3.447,0.488-7.102,0-10.654
	c-0.039-0.297-0.366-0.555-0.559-0.834c-1.402-2.014,1.676-2.103,1.536-3.575c3.51-0.15,6.78-2.822,10.335-1.375
	c1.375,0.559,2.699,2.777,2.105,4.146c-3.004,6.916-1.196,13.986-1.166,20.995C129.62,107.192,127.204,111.288,129.466,114.426z"/>
<path fill="#070707" d="M98.623,97.935c-0.078,6.272-0.153,12.176,1.2,18.036c0.394,1.704,0.894,4.511-1.308,4.866
	c-2.478,0.398-2.631-2.098-2.906-4.272c-0.854-6.756-1.325-13.511-1.434-20.318c-0.111-6.802,5.435-4.07,8.485-4.878
	c2.916-0.771,5.379,0.454,5.263,4.634c-0.2,7.287-0.866,14.604,0.202,21.895c0.384,2.622-0.846,5.391-3.13,5.423
	c-2.049,0.028-3.874-2.456-3.996-5.165c-0.24-5.424-0.487-10.847-0.737-16.27C100.206,100.631,100.941,99.156,98.623,97.935z"/>
<path fill="#9FA3B3" d="M137.045,10.76c-0.584,1.397-5.946,2.112-0.616,4.37c0.702,0.297,1.028,1.116,0.616,1.674
	c-0.288,0.391-1.129,0.452-1.74,0.519c-3.874,0.432-7.702,0.452-7.912-0.072c-1.074-2.65-2.567-2.899-4.554-0.939
	c-4.928-0.419-8.021-4.479-12.268-6.349c-1.673-0.737-3.908-0.929-5.221-2.586c0.359-1.033,3.453,1.606,2.31-2.021
	c-0.756-2.401,2.168-3.777,4.184-4.02c8.097-0.984,15.011,2.311,21.048,7.228C134.275,9.688,135.361,10.562,137.045,10.76z"/>
<path fill="#080808" d="M58.992,109.035c0.05,1.867-0.468,3.992,0.245,5.557c2.867,6.291-2.942,7.021-5.877,9.499
	c-0.669,0.566-1.714-0.128-2.238-1.284c-1.154-2.549-1.449-5.199-1.574-7.929c-0.239-5.253-0.745-10.505-0.741-15.756
	c0.001-2.085-1.597-5.521,2.801-5.657c3.877-0.119,7.247,0.629,7.434,5.388c0.132,3.387-0.148,6.787-0.243,10.183
	C58.866,109.035,58.928,109.035,58.992,109.035z"/>
<path fill="#0A0A0A" d="M82.602,109.939c-0.036,2.655-0.232,5.156,1.433,7.709c1.482,2.275-1.091,4.353-2.351,5.843
	c-0.95,1.125-2.654-1.417-3.764-1.769c-7.373-2.333-5.882-8.211-5.899-13.441c-0.011-3.148,4.376-6.925,7.4-6.802
	c1.875,0.077,2.799,1.234,2.998,2.874C82.643,106.193,82.556,108.072,82.602,109.939z"/>
<path fill="#BCBCBB" d="M129.466,114.426c-3.744-2.838-1.609-6.875-2.118-10.372C131.138,106.881,128.877,110.944,129.466,114.426z"
	/>
<path fill="#8F8B9D" d="M33.032,148.608c-4.944,2.669-3.267-2.887-5.087-4.098c-0.034-0.631-0.068-1.259-0.104-1.89
	C30.96,143.416,31.549,146.4,33.032,148.608z"/>
<path fill="#8F8B9D" d="M27.991,144.482c0.025,1.277,0.583,3.279-1.509,2.865c-1.463-0.291-3.51-1.583-1.538-3.85
	C25.698,144.634,26.927,144.306,27.991,144.482z"/>
<path fill="#81849C" d="M42.649,155.406c-4.189,0.086-6.877-2.025-8.443-5.776C37.499,150.854,41.39,151.205,42.649,155.406z"/>
<path fill="#565368" d="M170.461,117.202c0.847,2.866-1.29,4.465-2.704,6.369C167.764,121.069,167.357,118.39,170.461,117.202z"/>
<path fill="#939292" d="M53.957,100.96c0.132,5.091,0.266,10.182,0.396,15.271c-0.479-0.007-0.956-0.011-1.434-0.02
	C52.416,111.079,51.985,105.943,53.957,100.96z"/>
<path fill="#BCBCBB" d="M76.763,116.847c-0.64-3.362-0.891-5.327,0.363-8.463C78.405,111.674,78.547,113.613,76.763,116.847z"/>
</svg>
