<?xml version="1.0" encoding="utf-8"?>
<!-- Generator: Adobe Illustrator 16.0.4, SVG Export Plug-In . SVG Version: 6.00 Build 0)  -->
<!DOCTYPE svg PUBLIC "-//W3C//DTD SVG 1.1//EN" "http://www.w3.org/Graphics/SVG/1.1/DTD/svg11.dtd">
<svg version="1.1" id="Layer_1" xmlns="http://www.w3.org/2000/svg" xmlns:xlink="http://www.w3.org/1999/xlink" x="0px" y="0px"
	 width="180px" height="180px" viewBox="0 0 180 180" enable-background="new 0 0 180 180" xml:space="preserve">
<circle fill="#FFFFFF" cx="77.202" cy="90" r="76.864"/>
<path fill="#08080C" d="M54.142,148.025c13.047,1.627,26.077,1.722,39.119-0.191c3.227-0.476,5.078-3.092,7.82-4.379
	c4.151-1.946,8.399-3.694,12.389-6.189c8.686-5.441,15.033-12.571,20.312-21.257c7.391-12.156,11.562-24.973,11.378-39.244
	c-0.075-5.849-1.104-11.346-4.472-16.174c-1.436-2.06-2.095-4.311-2.724-6.637c-3.534-1.871-4.334-5.91-6.88-8.638
	c-7.782-8.334-16.976-14-28.265-15.811c-3.951-0.633-7.457-1.896-10.666-4.178c-15.909-1.612-31.775-0.521-47.419,2.159
	c-7.731,1.324-15.288,4.423-21.28,10.121c-0.729,0.692-1.698,1.803-2.698,0.781c-0.754-0.773-0.217-1.703,0.426-2.79
	c3.84-6.48,10.289-8.877,16.865-10.676c16.927-4.629,34.232-5.006,51.625-3.723c2.015,0.149,4.043,0.121,6.064,0.176
	c1.817,1.283,3.871,0.623,5.826,0.684c7.149,0.223,14.015,1.352,19.856,5.93c1.01,0.933,2.189,1.312,3.555,1.1
	c2.114,1.26,4.185,2.578,5.955,4.31c2.475,2.205,4.947,4.406,7.421,6.611c4.465,4.528,7.987,9.64,11.043,15.283
	c4.429,8.178,5.479,16.956,5.438,25.808c-0.087,20.022-7.323,37.448-21.041,52.015c-5.95,6.315-13.653,10.286-21.214,14.366
	c-19.539,7.707-39.604,9.228-60.148,5.153c-1.758-2.705-4.804-1.566-7.16-2.107c-8.71-1.987-16.162-6.172-23.592-10.98
	c-8.905-5.763-14.902-13.734-18.811-23.076c-3.498-8.369-3.058-17.58-2.447-26.578c0.116-1.695,0.393-3.38,0.594-5.069
	c1.326-1.352,0.159-3.55,1.648-4.846C4.733,69.596,8.675,60.024,15.029,51.5c0.919-1.821,1.846-3.632,3.695-4.722
	c7.905-10.001,17.607-16.769,30.864-17.062c1.394-0.031,3.224-0.706,3.414,1.893c0.186,2.564-1.492,2.143-3.01,2.267
	c-13.863,1.123-23.237,8.943-31.379,19.652C11.404,63.007,6.654,73.327,4.51,84.804c-1.872,10.029-2.068,20.258,1.209,30.089
	c1.966,5.899,5.661,10.79,9.893,15.554c5.543,6.238,12.819,9.304,19.646,13.272c3.394,1.974,7.344,2.295,11.186,2.776
	C48.767,148.227,51.847,146.143,54.142,148.025z"/>
<path fill="#050505" d="M68.354,58.396c8.394-1.222,15.664,0.67,21.874,6.852c2.879,2.866,7.43,2.219,11.141,3.3
	c9.104,2.65,15.086,9.879,14.84,19.862c-0.241,9.733-5.293,16.646-14.505,19.661c-2.591,0.849-3.954,2.777-4.85,5.062
	c-2.804,7.147-7.903,10.107-15.613,10.17c-8.898,0.069-17.062-1.202-24.145-7.082c-4.102-3.402-6.907-7.373-6.925-12.808
	c-0.012-3.519-0.166-5.958-3.518-8.943c-4.867-4.337-6.634-11.048-5.488-18.167c1.775-11.021,11.037-17.483,21.102-17.745
	C64.295,58.502,66.325,58.449,68.354,58.396z"/>
<path fill="#A2A0BB" d="M112.906,146.361c2.062-3.555,6.271-3.931,9.353-5.9c7.868-5.032,14.005-11.339,19.229-18.984
	c5.252-7.686,8.519-16.188,10.563-24.997c2.668-11.487,2.543-23.404-1.163-34.59c-2.167-6.539-5.15-13.282-10.609-18.235
	c-1.077-0.975-1.616-2.255-1.929-3.645c10.971,5.589,17.22,15.161,21.541,26.146c1.424,3.617,4.245,6.465,5.055,10.347
	c0.313,1.515,1.861,0.659,2.755,1.109c0.807,2.481,2.779,2.331,4.859,2.367c2.509,0.044,5.242-0.96,7.44,1.168
	c-2.717,3.378-6.609,1.868-9.878,1.953c-3.706,0.094-4.526,1.287-4.117,4.66c1.605,13.238-3.14,24.248-11.556,34.287
	c-6.34,7.561-12.367,15.259-20.588,21.001c-1.587,1.108-2.702,3.155-4.71,4.021c-3.578,0.425-7.202,0.246-10.706,1.582
	C116.247,149.491,114.327,148.171,112.906,146.361z"/>
<path fill="#B9BAD2" d="M112.906,146.361c3.314,1.49,6.648,1.661,9.807-0.287c2.527-1.558,4.137,1.744,6.442,0.995
	c-9.831,5.862-20.414,9.398-31.828,10.455c-3.222,0.301-5.737,3.486-9.165,2.685c-9.062-2.121-18.498-1.173-27.476-3.364
	c-2.826-0.69-5.179-3.39-8.26-4.208c14.218,1.298,28.459,1.755,42.509-1.159C101.005,150.217,106.747,147.497,112.906,146.361z"/>
<path fill="#ACAAB8" d="M92.157,25.328c9.658,3.501,20.476,3.568,29.144,10.064c5.984,4.486,12.191,8.686,14.959,16.114
	c0.365,0.981,2.169,0.92,1.704,2.447c-2.776,2.192-5.078-0.867-5.649-1.864c-3.641-6.381-11.37-7.524-15.599-12.81
	c-1.918-2.394-4.512-3.334-6.869-4.752c-2.18-1.311-4.453-2.456-7.343-2.331C94.867,32.524,94.746,32.278,92.157,25.328z"/>
<path fill="#AAAAAB" d="M121.419,27.99c-3.655,0.583-5.211-3.649-8.924-3.632c-4.559,0.021-9.121-1.034-13.687-1.579
	c-1.197-0.142-2.526,0.123-3.068-1.401c8.559-2.596,16.184,0.393,23.774,3.865C120.872,25.862,121.452,26.605,121.419,27.99z"/>
<path fill="#AAAAAB" d="M130.931,33.399c-2.057-1.335-5.213-1.157-5.957-4.31C128.241,28.755,129.678,30.951,130.931,33.399z"/>
<path fill="#898989" d="M18.725,46.778c-1.231,1.573-2.463,3.148-3.695,4.722C15.197,49.091,16.055,47.225,18.725,46.778z"/>
<path fill="#FDFEFF" d="M82.802,66.116c-6.688,2.085-10.582,6.251-13.709,11.318c-1.306,2.118-3.337,3.715-5.467,4.476
	c-4.354,1.558-6.681,5.021-9.058,8.437c-2.828,4.063-5.322,4.25-7.779-0.078c-3.278-5.769-2.853-15.236,1.084-20.144
	c4.897-6.105,17.487-10.118,25.461-8.253C76.536,62.622,79.435,64.059,82.802,66.116z"/>
<path fill="#FAFAFA" d="M77.229,119.312c-6.783-2.239-15.052-0.711-20.2-7.648c-0.796-1.075-1.724-2.12-2.225-3.33
	c-2.4-5.796-0.502-7.948,5.524-8.466c4.921-0.421,8.525,0.681,11.528,4.469c2.819,3.553,6.976,4.096,11.103,4.664
	c1.025,0.141,2.194-0.344,3.065,0.636c1.01,1.135,3.489,0.689,3.565,2.474c0.076,1.789-1.722,2.961-3.16,3.751
	C83.613,117.405,81.203,120.288,77.229,119.312z"/>
<path fill="#FBFCFC" d="M108.672,87.938c0.086,6.36-3.525,10.525-7.636,14.486c-1.595,1.539-2.551,0.992-2.983-0.71
	c-1.067-4.202-3.356-7.628-6.163-10.826c-3.516-4.003-0.43-7.827,0.583-11.653c0.159-0.593,0.947-1.087,1.139-1.907
	c0.478-2.051-0.979-5.91,1.783-5.727c2.891,0.191,6.373,1.167,8.649,4.304C106.765,79.654,108.139,83.667,108.672,87.938z"/>
<path fill="#F4F3F5" d="M75.362,96.914c2.292-0.915,5.338-1.207,6.73-2.88c3.42-4.108,4.312-0.74,5.772,1.387
	c0.428,0.621,0.487,1.51,0.946,2.093c1.926,2.441,3.297,5.771,1.727,8.008c-1.648,2.341-5.606,1.312-7.874,0.2
	c-3.095-1.52-7.346-1.189-9.201-4.992C72.122,98.475,74.365,98.004,75.362,96.914z"/>
<path fill="#EFEEEE" d="M83.526,71.101c2.331-0.414,3.287,0.764,3.162,2.854c-0.122,2.006-0.578,3.99-0.748,5.997
	c-0.229,2.692-1.882,3.352-4.163,2.977c-1.678-0.277-3.305-1.129-4.97-1.171c-3.741-0.096-4.006-1.981-2.066-4.255
	C77.112,74.724,79.506,71.685,83.526,71.101z"/>
<path fill="#DFDFDE" d="M65.46,86.834c0.039,1.488-0.1,2.597,0.122,3.628c1.012,4.666-1.168,5.849-5.449,5.735
	c-3.301-0.091-3.458-1.49-2.004-3.565C59.808,90.246,61.63,87.805,65.46,86.834z"/>
<path fill="#2CADBE" d="M69.307,88.384c0.003-1.87,0.895-3.465,2.737-2.463c2.11,1.15,5.601,0.379,6.328,2.765
	c0.98,3.198-3.221,2.55-4.497,4.274c-1.144,1.55-2.689,1.16-4.195,1.129C68.191,92.276,68.398,90.351,69.307,88.384z"/>
<path fill="#08080C" d="M69.307,88.384c0.123,1.902,0.25,3.802,0.374,5.705C66.49,92.388,66.485,90.479,69.307,88.384z"/>
<path fill="#9D939D" d="M75.362,96.914c0.207,1.692-2.522,1.919-1.9,3.816c-1.656,0.13-2.311-0.611-1.894-2.225
	C72.133,96.33,73.909,96.998,75.362,96.914z"/>
</svg>
