<?xml version="1.0" encoding="utf-8"?>
<!-- Generator: Adobe Illustrator 16.0.4, SVG Export Plug-In . SVG Version: 6.00 Build 0)  -->
<!DOCTYPE svg PUBLIC "-//W3C//DTD SVG 1.1//EN" "http://www.w3.org/Graphics/SVG/1.1/DTD/svg11.dtd">
<svg version="1.1" id="Layer_1" xmlns="http://www.w3.org/2000/svg" xmlns:xlink="http://www.w3.org/1999/xlink" x="0px" y="0px"
	 width="180px" height="180px" viewBox="0 0 180 180" enable-background="new 0 0 180 180" xml:space="preserve">
<circle fill="#FFFFFF" cx="82.452" cy="90" r="80.231"/>
<path fill="#0A0B11" d="M71.037,151.98c15.308,1.199,30.749,2.032,45.78-1.18c12.53-2.682,23.627-8.49,31.676-19.563
	c9.26-12.745,12.014-26.693,9.944-41.766c-0.871-6.345-3.276-12.48-4.972-18.716c-0.329-1.214-0.965-2.034-2.326-2.059
	c-3.943-8.368-8.391-16.298-15.706-22.396c-5.511-4.597-11.447-8.577-17.092-12.962c-1.354-1.05-3.232-0.625-4.397-1.933
	l0.019,0.009c-4.629-1.844-9.512-3.018-13.985-5.273c-10.935-4.504-22.191-3.037-33.417-1.713c-1.586,0.188-3.108,0.896-4.956,0.297
	c0.437-2.196,1.372-3.258,3.844-3.886c10.799-2.745,21.577-2.201,32.409-0.593c3.752,2.05,7.679-0.09,11.488,0.456
	c15.526,3.753,29.16,10.651,38.9,23.815c4.632,6.258,8.072,13.219,11.387,20.232c2.774,5.871,5.56,11.751,5.844,18.421
	c0.149,2.778-0.259,5.668,1.67,8.084c1.395,7.758,1.545,15.444-1.309,22.955c-0.15,8.881-5.291,15.704-10.37,22.05
	c-3.622,4.523-8.423,8.394-13.57,11.583c-5.11,3.168-10.728,5.288-15.908,8.279c-2.851,1.066-5.588,2.488-8.665,2.877
	c-2.17-0.153-4.003,0.783-5.819,1.801c-12.438,1.509-24.832,1.527-37.176-0.871c-1.91-0.372-3.863-0.465-5.812-0.424
	c-6.685,0.137-12.68-1.863-18.053-5.805c-2.273-5.146-7.836-4.818-11.875-6.615c-16.041-7.142-29.657-16.043-35.695-34.003
	c-2.745-8.17-3.822-16.121-1.968-24.083c2.065-8.864,4.492-17.543,9.233-25.87c5.958-10.465,13.799-18.77,22.847-25.896
	c7.444-5.862,16.649-8.716,26.483-8.25c2.187,0.105,3.848,0.663,3.58,3.402c-0.279,2.883-2.435,1.553-3.716,1.541
	c-11.236-0.108-20.423,4.514-29.122,11.29C18.423,54.411,10.68,66.538,6.068,80.172c-3.639,10.761-4.106,22.826,0.523,33.516
	c4.06,9.377,10.555,17.331,19.41,23.542c11.286,7.913,23.621,11.656,36.951,13.227C65.407,152.25,68.591,150.169,71.037,151.98z"/>
<path fill="#2CADBE" d="M69.244,113.687c1.195-2.069-0.948-4.207,0.127-6.279c0.218-4.32-0.907-7.646-5.502-9.349
	c-3.841-1.425-6.104-4.504-6.558-8.718c-0.098-1.805-0.156-3.607-0.156-5.414c0.272-5.118,2.05-9.627,5.168-13.707
	c1.554-2.033,3.25-3.501,5.894-3.594c3.626-0.135,7.253-0.227,10.879-0.299C89.312,65.894,97.416,85.357,90.7,92.723
	c-2.819-0.509-5.398-2.453-8.604-0.415c-1.384,0.88-2.028-2.199-3.492-2.642c-0.625,0.322-1.02,0.681-1.146,1.127
	c-0.558,1.981-3.854,3.046-2.626,5.296c1.26,2.31,3.484,0.005,5.285-0.068c2.556-0.103,4.023,0.937,4.325,3.501
	c0.268,2.258,0.244,4.532,0.377,6.808C84.165,112.849,75.427,116.968,69.244,113.687z"/>
<path fill="#BBB8CD" d="M164.217,114.423c3.577-7.591,2.296-15.614,2.091-23.541c-2.081-2.281-0.103-5.581-1.981-7.913
	c-1.117-8.209-5.427-15.139-8.503-22.604c-2.961-7.183-7.622-12.916-11.866-19.009c-2.535-3.637-6.126-7.068-10.018-9.118
	c-7.757-4.087-15.324-8.857-24.176-10.515c-0.391-0.311-0.646-0.798-0.41-1.188c0.394-0.646,0.608-2.181,0.188-2.494
	c6.398-1.169,11.188,2.547,16.012,5.626c5.566,3.552,10.926,7.475,16.118,11.56c7.979,6.277,14.8,13.664,20.336,22.237
	c5.353,8.292,9.338,17.093,11.117,26.863c0.352,1.919,1.065,4.03,3.976,3.438c1.32-0.269,2.663-0.083,2.899,1.718
	c-0.831,1.195-2.153,1.23-3.39,1.366c-3.332,0.365-2.317,2.114-1.292,3.892c-0.538,1.021-2.71,1.473-1.497,3.071
	c2.544,3.359,1.395,6.375,0.113,9.875c-1.664,4.543-0.271,9.689-1.933,14.356C167.371,121.586,166.349,117.438,164.217,114.423z"/>
<path fill="#0E100D" d="M89.872,92.539c5.155-8.335-0.068-21.14-9.774-25.013c-4.312-0.815-8.61-1.191-12.851,0.374
	c-6.048,3.599-8.205,9.38-8.943,15.954c-1.233,2.028-1.073,4.027,0.121,6.008c1.305,3.865,3.634,6.517,7.819,7.553
	c4.062,1.006,5.698,6.644,3.122,9.991c-2.215-3.742-5.579-6.318-8.915-8.977c-6.153-4.907-8.336-15.607-3.969-22.25
	c2.26-3.438,2.991-7.641,6.871-10.444c5.37-3.877,16.262-5.392,21.766-1.654c8.327,5.654,12.502,13.521,12.546,23.583
	c-1.523,1.293-0.176,3.687-1.882,4.909c-0.688,1.712-1.306,3.11-3.124,4.398c-3.17,2.244-3.847,6.31-3.381,10.038
	c0.524,4.201,0.25,8.006-2.425,11.421c-0.805,2.031-1.732,3.962-3.977,4.806c-0.621,0.39-1.244,0.777-1.865,1.165
	c-1.915,1.364-3.853,1.438-5.821,0.118c-0.714-2.824-2.838-4.646-5.055-6.063c-2.311-1.479-2.097-2.897-0.894-4.767
	c4.958,2.18,8.502-2.46,13.046-2.8c2.16-0.162,0.312-3.49,1.32-5.131c0.492-0.652,0.93-1.416,0.745-2.199
	C83.116,98.32,86.194,95.289,89.872,92.539z"/>
<path fill="#A2A2C1" d="M164.217,114.423c3.297,1.822,4.903,5.376,7.787,7.623c-1.653,7.696-4.231,14.727-11.013,19.728
	c-8.003,5.904-15.622,12.332-24.213,17.416c-1.461,0.95-3.301,0.916-4.619,0.448c-2.218-0.781-3.049,0.506-4.142,1.735l0,0
	c-1.678,0.957-3.12,0.713-3.971-1.062c-1.037-2.166,0.215-3.618,1.831-4.862c-0.048-1.995,1.663-2.392,2.926-2.699
	c6.481-1.575,11.58-5.626,16.862-9.279c7.541-5.219,12.612-12.706,17.122-20.448C164.156,120.676,163.79,117.318,164.217,114.423z"
	/>
<path fill="#BFC2D7" d="M125.878,155.45c-0.962,2.578-3.345,5.67,2.14,5.927c-2.348,1.182-4.158,4.674-7.466,1.735
	c-13.367,4.736-27.326,2.576-41.017,3.308c-7.028,0.378-13.396-2.464-19.638-6.112c-3.399-1.985-7.297-2.895-9.433-6.614
	c20.062,7.041,40.844,6.636,61.654,5.958c1.456-1.304,3.69-0.373,5.108-1.78C120.35,157.917,122.605,154.862,125.878,155.45z"/>
<path fill="#C4C5D0" d="M113.944,31.405c7.229,0.723,12.021,6.053,17.59,9.709c4.172,2.739,7.878,6.545,10.943,10.528
	c3.894,5.062,8.045,10.226,8.663,17.054c-6.287-7.843-12.29-16.066-19.931-22.538c-3.907-3.309-8.427-6.157-12.451-9.483
	C116.942,35.173,115.536,33.177,113.944,31.405z"/>
<path fill="#3A3B3B" d="M99.292,52.68c1.514,0.068,2.804,0.033,3.358,1.18c0.692,1.435-0.946,2.048-1.612,2.564
	c-1.845,1.429-3.634,2.854-5.202,4.605c-1.101,1.228-2.655,1.264-3.85,0.174c-1.223-1.117-0.025-2.038,0.401-3.21
	C93.688,54.429,96.563,53.511,99.292,52.68z"/>
<path fill="#1E1E1E" d="M109.631,78.863c1.944,0.04,4.194-0.015,3.656,1.87c-1.015,3.569-4.649,4.859-7.63,6.375
	c-1.757,0.894-2.489-0.667-2.509-2.409C103.098,79.883,107.256,80.175,109.631,78.863z"/>
<path fill="#7E7B8A" d="M109.542,18.042c0.731,1.1,2.07,0.729,3.153,1.295c-1.223,0.581-3.055,0.346-2.932,2.388
	c-3.003,0.104-6.005,0.23-9.01,0.299c-1.312,0.03-2.57-0.143-2.896-1.776C102.066,21.172,105.439,17.668,109.542,18.042z"/>
<path fill="#2D2E2D" d="M49.413,99.793c-1.576,0.239-3.053,0.365-2.873-1.233c0.289-2.553,2.145-3.759,4.647-3.928
	c1.849-0.125,2.872,1.259,2.722,2.624C53.593,100.148,50.766,99.185,49.413,99.793z"/>
<path fill="#242424" d="M67.513,47.671c1.881,1.949,2.17,3.691,1.282,5.661c-0.436,0.966-0.015,2.627-1.445,2.717
	c-0.893,0.056-2.144-0.668-2.7-1.433c-0.766-1.052-0.816-2.736,0.137-3.597C65.841,50.068,67.055,49.335,67.513,47.671z"/>
<path fill="#0F0F0F" d="M45.449,68.639c3.538,0.592,3.487,3.896,4.064,6.233c0.211,0.857-2.301,2.77-4.094,0.564
	C44.173,73.165,43.885,70.897,45.449,68.639z"/>
<path fill="#C4C5D0" d="M99.978,26.14c4.823,1.329,9.865,2.08,13.986,5.273C108.801,30.979,103.887,29.888,99.978,26.14z"/>
<path fill="#BFC2D7" d="M128.018,161.377c0.588-1.062,0.153-2.119,0.089-3.209c-0.093-1.537,1.525-2.204,2.067-1.131
	c1.609,3.185,4.257,1.958,6.603,2.152C134.049,160.688,130.991,160.854,128.018,161.377z"/>
<path fill="#A3ABAB" d="M71.037,151.98c-2.745-0.238-5.918,1.79-8.08-1.527C65.696,150.729,68.868,148.703,71.037,151.98z"/>
<path fill="#B4B4B4" d="M45.449,68.639c-0.01,2.266-0.021,4.532-0.03,6.799C42.59,72.89,42.599,70.987,45.449,68.639z"/>
<path fill="#6D8077" d="M75.192,124.518c1.94-0.039,3.88-0.078,5.821-0.117C78.642,127.396,77.034,127.43,75.192,124.518z"/>
<path fill="#666374" d="M82.877,123.236c1.324-1.601,2.65-3.203,3.975-4.806C86.859,121.135,86.568,123.592,82.877,123.236z"/>
<path fill="#658686" d="M95.783,92.573c0.172-1.812-0.715-4.027,1.882-4.909C97.678,89.547,98.824,91.863,95.783,92.573z"/>
<path fill="#6C687E" d="M164.327,82.971c3.253,1.987,1.564,5.213,1.981,7.914C162.782,88.963,164.621,85.7,164.327,82.971z"/>
<path fill="#767B8C" d="M117.231,157.871c-0.879,2.957-3.269,1.584-5.112,1.782C112.99,156.677,115.385,158.061,117.231,157.871z"/>
<path fill="#08080C" d="M89.872,92.539c-0.5,1.783-0.394,3.878-2.906,4.457c-2.306,0.535-1.281,2.551-1.534,4.003
	c-0.296,1.694,1.093,4.062-1.823,4.76c0.005-1.625,0.026-3.249,0.01-4.872c-0.039-4.405-1.651-5.425-5.456-3.013
	c-1.976,1.253-3.512,1.803-4.989-0.232c-1.512-2.079-1.222-3.914,1.205-5.216c0.539-0.29,1.099-0.773,1.357-1.309
	c0.783-1.628,0.414-4.328,3.285-4.007c2.752,0.309,0.452,3.704,2.516,4.598C87.493,87.779,87.815,87.81,89.872,92.539z"/>
<path fill="#DEDEDD" d="M67.247,67.902c4.192-3.229,8.502-2.416,12.851-0.374C75.814,67.652,71.532,67.777,67.247,67.902z"/>
<path fill="#565656" d="M58.425,89.864c-2.913-1.946-2.845-3.951-0.121-6.008C58.344,85.857,58.384,87.861,58.425,89.864z"/>
<path fill="#DCDCE2" d="M81.292,118.21c-1.727,1.86-3.75,2.031-6.429,1.326C76.934,117.411,79.031,117.398,81.292,118.21z"/>
</svg>
