<?xml version="1.0" encoding="utf-8"?>
<!-- Generator: Adobe Illustrator 16.0.4, SVG Export Plug-In . SVG Version: 6.00 Build 0)  -->
<!DOCTYPE svg PUBLIC "-//W3C//DTD SVG 1.1//EN" "http://www.w3.org/Graphics/SVG/1.1/DTD/svg11.dtd">
<svg version="1.1" id="Layer_1" xmlns="http://www.w3.org/2000/svg" xmlns:xlink="http://www.w3.org/1999/xlink" x="0px" y="0px"
	 width="180px" height="180px" viewBox="0 0 180 180" enable-background="new 0 0 180 180" xml:space="preserve">
<path fill="#08090C" d="M56.675,161.243c-0.122-1.854-1.637-1.729-2.855-1.973c-4.608-0.924-9.282-1.605-13.805-2.837
	c-1.741-0.474-5.669-0.003-3.6-4.311c0.558-1.16-1.3-1.221-2.041-1.515c-11.12-4.432-19.728-12.06-26.016-21.941
	c-3.539-5.56-6.24-11.724-7.458-18.537c-1.691-9.454-0.938-18.846,1.741-27.624c3.006-9.855,8.093-18.986,14.572-27.37
	c5.426-7.022,11.219-13.705,17.35-20c5.416-5.561,10.831-11.339,17.578-15.486c4.006-2.462,7.904-5.122,12.038-7.35
	c6.055-3.263,12.694-2.553,19.204-2.084c3.573,0.257,7.113,0.954,10.713,0.422c11.503,1.056,22.472,3.496,31.811,10.991
	c16.387,13.152,29.627,28.932,40.045,47.128c1.166,2.037,1.191,4.414,1.707,6.638c1.03,4.457,1.374,9.064,3.222,13.344
	c0.717,1.659,0.873,3.65,0.321,5.335c-2.214,6.769-2.085,13.904-3.385,20.815c-0.787,4.191-2.187,7.854-4.964,10.979
	c-2.22,2.496-3.552,5.479-5.076,8.375c-6.037,11.47-15.327,19.375-27.056,24.582c-0.921,0.411-1.592,1.142-2.433,1.653
	c-18.448,7.113-37.212,11.754-56.713,4.762C66.65,163.478,61.521,162.99,56.675,161.243z"/>
<path fill="#B2B2CB" d="M128.278,159.386c0.316-0.538,0.512-1.397,0.966-1.57c9.651-3.626,17.229-9.862,23.733-17.787
	c1.773-2.162,2.264-4.767,3.888-6.996c2.268-3.109,3.916-6.726,6.354-9.955c4.677-6.198,4.1-14.076,4.91-21.335
	c0.411-3.674,2.916-6.838,1.843-10.865c-1.792-6.72-2.024-14.068-4.892-20.229c-2.978-6.398-6.562-12.721-11.297-18.369
	c-4.476-5.336-9.443-10.239-13.689-15.769c-4.395-5.722-10.164-9.897-15.75-14.395c-6.684-5.382-14.272-7.204-22.255-8.9
	c-2.637-0.562-5.348-1.645-7.993-2.575c0.934-2.779,3.38-2.341,5.356-2.203c9.942,0.699,19.381,2.614,27.804,8.766
	c3.709,2.71,8.003,4.944,12.069,7.183c8.452,4.652,14.243,12.161,20.495,18.765c6.23,6.582,11.718,14.465,13.899,24.188
	c1.106,4.938,4.474,9.459,5.536,14.775c0.61,3.056-0.983,6.156,0.633,9.055c-4.4,3.842-4.397,3.978,0.111,6.781
	c-0.92,6.318-0.59,12.781-3.313,18.88c-4.056,9.072-7.769,18.307-14.632,25.732c-3.579,3.871-6.863,8.55-11.313,10.938
	c-5.239,2.814-10.247,6.43-16.186,7.921C132.068,161.955,130.064,161.003,128.278,159.386z"/>
<path fill="#CCCED9" d="M128.278,159.386c2.467-0.48,4.197,1.305,6.272,2.036c-13.099,8.389-27.727,9.65-42.81,10.211
	c-5.394,0.199-10.585-0.343-15.645-1.218c-3.045-0.525-7.289-1.165-8.848-5.287c-0.625-1.65-2.482-1.4-3.812-1.674
	c-2.357-0.481-4.881-0.312-6.763-2.213c5.376,0.341,10.576,1.587,15.752,2.988c14.044,3.804,27.961,4.525,41.845-1.042
	C118.731,161.401,123.598,160.625,128.278,159.386z"/>
<path fill="#FFFFFF" d="M160.856,80.897c2.309,8.125,1.958,16.327,0.724,24.557c-1.837,1.582-0.027,4.322-1.873,5.903
	c-0.605,6.302-3.428,11.489-7.839,15.941c-1.899,1.918-2.583,4.737-3.661,7.013c-2.662,5.607-7.413,9.033-12.078,11.665
	c-5.023,2.832-10.123,5.816-15.803,7.817c-14.258,5.019-28.779,4.012-43.348,3.635c-2.751-0.07-5.43-0.562-7.741-2.239
	c-5.586-0.732-9.676-4.94-15.032-6.425c-2.756-0.764-4.802-1.499-7.099,0.694c-1.243,1.188-2.922,1.294-4.522,0.396
	c-9.809-5.138-19.856-9.562-27.314-18.59c-5.585-6.755-7.787-14.329-10.501-22.258c-3.652-10.67-0.285-20.415,2.679-29.747
	c3.008-9.476,9.605-17.572,15.935-25.554c8.107-10.223,18.494-18.077,27.131-27.723c5.21-5.821,20.884-10.936,30.447-10.908
	c0.376,0.483-0.059,0.68-0.253,1.06c-0.552,1.086-3.135,0.469-2.283,2.48c0.562,1.322,2.027,0.695,3.087,0.537
	c3.118-0.465,6.181-0.153,9.294,0.168c10.668,1.1,19.938,5.361,29.323,10.516c12.722,6.986,20.295,18.402,29.408,28.727
	c4.437,5.028,6.921,10.563,9.166,16.509C160.719,76.536,159.069,79.351,160.856,80.897z"/>
<path fill="#080808" d="M117.97,54.828c3.288,0.351,5.481,2.252,7.647,4.081c5.434,4.59,12.328,7.019,17.514,11.967
	c2.489,2.375,2.666,3.875-0.627,6.15c-5.559,3.84-11.944,5.69-17.893,8.546c-6.271,3.011-7.906,2.735-14.271-0.247
	c-3.007-1.408-5.975-2.913-8.863-4.548c-3.919-2.217-3.962-5.246-0.996-8.428c3.668-3.936,7.994-7.07,11.87-10.733
	c1.487-1.407,3.615-2.282,3.339-5.006C115.529,54.999,117.368,55.452,117.97,54.828z"/>
<path fill="#0C0C0C" d="M58.455,94.762c2.348,2.212,6.407,2.452,7.294,6.375c0.157,0.694,1.211,1.382,0.084,1.987
	c-0.684,0.367-1.583,0.426-2.077-0.522c-0.144-0.275-0.196-0.71-0.417-0.822c-1.964-0.983-4.288-2.972-6.102-1.138
	c-1.282,1.293-0.03,3.565,0.862,5.628c5.262,12.136,15.2,17.115,27.396,19.037c1.061,0.166,2.396-0.174,2.407,1.617
	c0.01,1.922-1.255,1.846-2.641,1.994c-5.944,0.632-10.975-2.279-15.849-4.743c-2.077-1.05-4.402-3.188-6.428-4.479
	c-7.476-4.766-9.447-11.429-9.16-19.497c0.032-0.904,0.308-2.018-0.841-2.455c-0.961-0.182-1.199,0.425-1.433,1.035
	c-0.759,1.98-1.984,3.392-4.297,3.281c-0.612-0.027-1.392-0.254-1.392-1.095c-0.002-2.137,1.013-3.981,2.913-4.626
	c2.837-0.961,0.882-5.529,4.555-5.557C57.761,88.603,56.862,93.288,58.455,94.762z"/>
<path fill="#151610" d="M64.81,69.006c-4.24,7.979-16.132,10.249-23.651,4.513c-2.849-4.335-2.612-8.932,0.673-12.96
	c0.198-2.319,1.603-3.51,3.75-4.002c1.362-1.464,3.688-0.412,5.032-1.926c6.148,0.92,12.034,2.241,14.091,9.336
	C65.996,65.62,65.917,67.303,64.81,69.006z"/>
<path fill="#090909" d="M109.553,124.662c5.354-0.791,9.541,2.617,14.271,3.919c1.781,0.488,2.45,2.269,2.309,3.929
	c-0.19,2.218-2.467,3.174-3.973,3.708c-3.632,1.287-7.532,1.815-11.325,2.639c-5.323,1.157-8.516-2.444-10.741-6.011
	c-2.328-3.729,1.622-5.603,4.254-7.132C105.793,124.868,107.799,124.981,109.553,124.662z"/>
<path fill="#0C0C0C" d="M67.687,65.039c3.724-0.858,7.501-0.333,11.252-0.38c3.587-0.046,7.107,1.193,11.221,0.573
	c-2.263-1.899-4.164-3.84-6.405-5.245c-1.365-0.857-2.061-1.628-1.316-2.976c0.546-0.991,1.669-1.523,2.931-1.32
	c3.818,0.615,8.419,6.972,8.048,10.946c-0.134,1.428-0.844,2.312-1.766,3.31c-2.451,2.652-6,4.013-8.042,7.197
	c-0.657,1.024-2.59,2.173-3.728,0.839c-1.023-1.199-0.155-2.875,1.23-3.708c2.156-1.297,4.775-2.1,4.629-5.962
	c-3.371,0.088-6.751,0.176-10.133,0.265c-2.291-1.959-5.594,0.496-7.81-1.792l-0.109,0.051C67.025,66.238,67,65.639,67.687,65.039z"
	/>
<path fill="#0D0D0D" d="M112.664,109.664c-1.046-3.073-0.793-6.03-0.897-8.954c-0.057-1.593,0.697-2.303,2.293-2.513
	c2.346-0.31,1.64,1.438,1.769,2.499c0.339,2.749,0.526,5.517,0.816,8.271c0.083,0.758-0.05,1.777,0.966,1.991
	c0.981,0.206,1.831-0.008,2.249-1.216c0.251-0.717,0.952-1.277,1.447-1.908c0.776-0.988,1.728-1.724,2.841-0.653
	c1.164,1.116,0.717,3.104-0.201,3.371c-2.98,0.872-3.512,4.031-5.909,5.477c-3.204,1.932-8.729,1.652-10.77-1.366
	c-0.525-0.775-1.645-1.908-0.788-3.034c0.688-0.907,1.728-0.428,2.68-0.059C111.188,112.354,113.178,112.899,112.664,109.664z"/>
<path fill="#FAFAFA" d="M128.904,77.031c-3.606,1.843-7.476,3.251-10.123,6.597c-0.94,1.186-2.453,1.243-3.589,0.6
	c-3.806-2.152-7.482-4.537-11.245-6.769c-1.716-1.02-1.811-2.514-0.629-3.646c3.107-2.981,6.477-5.689,9.688-8.564
	c4.316-3.864,8.643-2.739,12.873,0.009c3.252,2.111,6.564,4.217,9.443,6.782c1.889,1.683-0.509,1.66-1.449,2.073
	C132.288,75.205,130.472,75.907,128.904,77.031z"/>
<path fill="#2CADBE" d="M52.468,58.271c4.9-0.094,7.264,2.044,7.396,6.693c0.136,4.812-4.013,8.251-10.056,8.334
	c-4.522,0.063-7.042-2.158-7.099-6.255C42.638,62.014,46.681,58.384,52.468,58.271z"/>
<path fill="#E0E0DF" d="M120.26,130.04c-4.488,3.981-8.93,4-13.479,3.474c-1.434-0.165-3.085-0.186-2.974-2.368
	c0.088-1.671,1.231-2.004,2.607-2.358C110.903,127.625,115.077,129.239,120.26,130.04z"/>
</svg>
