<?xml version="1.0" encoding="utf-8"?>
<!-- Generator: Adobe Illustrator 16.0.4, SVG Export Plug-In . SVG Version: 6.00 Build 0)  -->
<!DOCTYPE svg PUBLIC "-//W3C//DTD SVG 1.1//EN" "http://www.w3.org/Graphics/SVG/1.1/DTD/svg11.dtd">
<svg version="1.1" id="Layer_1" xmlns="http://www.w3.org/2000/svg" xmlns:xlink="http://www.w3.org/1999/xlink" x="0px" y="0px"
	 width="22px" height="3.5px" viewBox="-0.025 8.239 22 3.5" enable-background="new -0.025 8.239 22 3.5" xml:space="preserve">
<g>
	<path fill="#DEE4EB" d="M10.367,9.607h-0.095V9.035c0-0.052-0.043-0.095-0.095-0.095l0,0c-0.012-0.152-0.134-0.274-0.284-0.284
		V8.415c0-0.014-0.01-0.024-0.024-0.024s-0.024,0.01-0.024,0.024v0.241C9.693,8.668,9.571,8.789,9.562,8.939H9.557
		c-0.053,0-0.096,0.043-0.096,0.095v0.572H9.366c-0.052,0-0.095,0.042-0.095,0.095v1.883h1.191V9.702
		C10.462,9.649,10.42,9.607,10.367,9.607z M9.867,8.701c0.136,0,0.248,0.105,0.26,0.238H9.604C9.619,8.806,9.731,8.701,9.867,8.701z
		 M9.509,9.035c0-0.026,0.021-0.047,0.048-0.047h0.62c0.026,0,0.047,0.021,0.047,0.047v0.572H9.509V9.035z M10.415,11.537H9.318
		V9.702c0-0.026,0.021-0.048,0.048-0.048h0.095h0.811h0.095c0.026,0,0.048,0.021,0.048,0.048V11.537z"/>
	<path fill="#DEE4EB" d="M9.414,9.94h0.143V9.75H9.414V9.94z M9.461,9.797h0.048v0.095H9.461V9.797z"/>
	<path fill="#DEE4EB" d="M9.604,9.94h0.143V9.75H9.604V9.94z M9.652,9.797H9.7v0.095H9.652V9.797z"/>
	<path fill="#DEE4EB" d="M9.795,9.94h0.143V9.75H9.795V9.94z M9.843,9.797h0.048v0.095H9.843V9.797z"/>
	<path fill="#DEE4EB" d="M9.986,9.94h0.143V9.75H9.986V9.94z M10.034,9.797h0.047v0.095h-0.047V9.797z"/>
	<path fill="#DEE4EB" d="M9.604,9.273h0.143v-0.19H9.604V9.273z M9.652,9.13H9.7v0.096H9.652V9.13z"/>
	<path fill="#DEE4EB" d="M9.795,9.273h0.143v-0.19H9.795V9.273z M9.843,9.13h0.048v0.096H9.843V9.13z"/>
	<path fill="#DEE4EB" d="M9.986,9.273h0.143v-0.19H9.986V9.273z M10.034,9.13h0.047v0.096h-0.047V9.13z"/>
	<path fill="#DEE4EB" d="M9.604,9.511h0.143v-0.19H9.604V9.511z M9.652,9.369H9.7v0.095H9.652V9.369z"/>
	<path fill="#DEE4EB" d="M9.795,9.511h0.143v-0.19H9.795V9.511z M9.843,9.369h0.048v0.095H9.843V9.369z"/>
	<path fill="#DEE4EB" d="M9.986,9.511h0.143v-0.19H9.986V9.511z M10.034,9.369h0.047v0.095h-0.047V9.369z"/>
	<path fill="#DEE4EB" d="M10.177,9.94h0.143V9.75h-0.143V9.94z M10.224,9.797h0.048v0.095h-0.048V9.797z"/>
	<path fill="#DEE4EB" d="M7.102,10.322H6.983v0.167h0.119V10.322z M7.055,10.441H7.031V10.37h0.024V10.441z"/>
	<path fill="#DEE4EB" d="M7.269,10.322H7.15v0.167h0.119V10.322z M7.221,10.441H7.197V10.37h0.024V10.441z"/>
	<path fill="#DEE4EB" d="M7.436,10.322h-0.12v0.167h0.12V10.322z M7.388,10.441H7.364V10.37h0.024V10.441z"/>
	<path fill="#DEE4EB" d="M7.603,10.322H7.483v0.167h0.119V10.322z M7.555,10.441H7.531V10.37h0.024V10.441z"/>
	<path fill="#DEE4EB" d="M7.15,9.773h0.119V9.607H7.15V9.773z M7.197,9.654h0.024v0.072H7.197V9.654z"/>
	<path fill="#DEE4EB" d="M7.316,9.773h0.12V9.607h-0.12V9.773z M7.364,9.654h0.024v0.072H7.364V9.654z"/>
	<path fill="#DEE4EB" d="M7.483,9.773h0.119V9.607H7.483V9.773z M7.531,9.654h0.024v0.072H7.531V9.654z"/>
	<path fill="#DEE4EB" d="M7.77,10.322H7.65v0.167H7.77V10.322z M7.722,10.441H7.698V10.37h0.024V10.441z"/>
	<path fill="#DEE4EB" d="M7.102,10.536H6.983v0.167h0.119V10.536z M7.055,10.655H7.031v-0.071h0.024V10.655z"/>
	<path fill="#DEE4EB" d="M7.269,10.536H7.15v0.167h0.119V10.536z M7.221,10.655H7.197v-0.071h0.024V10.655z"/>
	<path fill="#DEE4EB" d="M7.436,10.536h-0.12v0.167h0.12V10.536z M7.388,10.655H7.364v-0.071h0.024V10.655z"/>
	<path fill="#DEE4EB" d="M7.603,10.536H7.483v0.167h0.119V10.536z M7.555,10.655H7.531v-0.071h0.024V10.655z"/>
	<path fill="#DEE4EB" d="M7.77,10.536H7.65v0.167H7.77V10.536z M7.722,10.655H7.698v-0.071h0.024V10.655z"/>
	<path fill="#DEE4EB" d="M7.102,10.751H6.983v0.167h0.119V10.751z M7.055,10.87H7.031v-0.071h0.024V10.87z"/>
	<path fill="#DEE4EB" d="M7.269,10.751H7.15v0.167h0.119V10.751z M7.221,10.87H7.197v-0.071h0.024V10.87z"/>
	<path fill="#DEE4EB" d="M7.436,10.751h-0.12v0.167h0.12V10.751z M7.388,10.87H7.364v-0.071h0.024V10.87z"/>
	<path fill="#DEE4EB" d="M7.603,10.751H7.483v0.167h0.119V10.751z M7.555,10.87H7.531v-0.071h0.024V10.87z"/>
	<path fill="#DEE4EB" d="M7.77,10.751H7.65v0.167H7.77V10.751z M7.722,10.87H7.698v-0.071h0.024V10.87z"/>
	<path fill="#DEE4EB" d="M7.102,10.965H6.983v0.167h0.119V10.965z M7.055,11.084H7.031v-0.071h0.024V11.084z"/>
	<path fill="#DEE4EB" d="M7.269,10.965H7.15v0.167h0.119V10.965z M7.221,11.084H7.197v-0.071h0.024V11.084z"/>
	<path fill="#DEE4EB" d="M7.436,10.965h-0.12v0.167h0.12V10.965z M7.388,11.084H7.364v-0.071h0.024V11.084z"/>
	<path fill="#DEE4EB" d="M7.603,10.965H7.483v0.167h0.119V10.965z M7.555,11.084H7.531v-0.071h0.024V11.084z"/>
	<path fill="#DEE4EB" d="M7.77,10.965H7.65v0.167H7.77V10.965z M7.722,11.084H7.698v-0.071h0.024V11.084z"/>
	<path fill="#DEE4EB" d="M7.102,11.18H6.983v0.167h0.119V11.18z M7.055,11.299H7.031v-0.071h0.024V11.299z"/>
	<path fill="#DEE4EB" d="M7.269,11.18H7.15v0.167h0.119V11.18z M7.221,11.299H7.197v-0.071h0.024V11.299z"/>
	<path fill="#DEE4EB" d="M7.436,11.18h-0.12v0.167h0.12V11.18z M7.388,11.299H7.364v-0.071h0.024V11.299z"/>
	<path fill="#DEE4EB" d="M7.603,11.18H7.483v0.167h0.119V11.18z M7.555,11.299H7.531v-0.071h0.024V11.299z"/>
	<path fill="#DEE4EB" d="M7.77,11.18H7.65v0.167H7.77V11.18z M7.722,11.299H7.698v-0.071h0.024V11.299z"/>
	<path fill="#DEE4EB" d="M9.414,10.179h0.143v-0.19H9.414V10.179z M9.461,10.036h0.048v0.095H9.461V10.036z"/>
	<path fill="#DEE4EB" d="M9.604,10.179h0.143v-0.19H9.604V10.179z M9.652,10.036H9.7v0.095H9.652V10.036z"/>
	<path fill="#DEE4EB" d="M9.795,10.179h0.143v-0.19H9.795V10.179z M9.843,10.036h0.048v0.095H9.843V10.036z"/>
	<path fill="#DEE4EB" d="M9.986,10.179h0.143v-0.19H9.986V10.179z M10.034,10.036h0.047v0.095h-0.047V10.036z"/>
	<path fill="#DEE4EB" d="M10.177,10.179h0.143v-0.19h-0.143V10.179z M10.224,10.036h0.048v0.095h-0.048V10.036z"/>
	<path fill="#DEE4EB" d="M9.414,10.417h0.143v-0.19H9.414V10.417z M9.461,10.274h0.048v0.096H9.461V10.274z"/>
	<path fill="#DEE4EB" d="M9.604,10.417h0.143v-0.19H9.604V10.417z M9.652,10.274H9.7v0.096H9.652V10.274z"/>
	<path fill="#DEE4EB" d="M9.795,10.417h0.143v-0.19H9.795V10.417z M9.843,10.274h0.048v0.096H9.843V10.274z"/>
	<path fill="#DEE4EB" d="M9.986,10.417h0.143v-0.19H9.986V10.417z M10.034,10.274h0.047v0.096h-0.047V10.274z"/>
	<path fill="#DEE4EB" d="M10.177,10.417h0.143v-0.19h-0.143V10.417z M10.224,10.274h0.048v0.096h-0.048V10.274z"/>
	<path fill="#DEE4EB" d="M9.414,10.655h0.143v-0.19H9.414V10.655z M9.461,10.512h0.048v0.096H9.461V10.512z"/>
	<path fill="#DEE4EB" d="M9.604,10.655h0.143v-0.19H9.604V10.655z M9.652,10.512H9.7v0.096H9.652V10.512z"/>
	<path fill="#DEE4EB" d="M9.795,10.655h0.143v-0.19H9.795V10.655z M9.843,10.512h0.048v0.096H9.843V10.512z"/>
	<path fill="#DEE4EB" d="M9.986,10.655h0.143v-0.19H9.986V10.655z M10.034,10.512h0.047v0.096h-0.047V10.512z"/>
	<path fill="#DEE4EB" d="M10.177,10.655h0.143v-0.19h-0.143V10.655z M10.224,10.512h0.048v0.096h-0.048V10.512z"/>
	<path fill="#DEE4EB" d="M9.414,10.894h0.143v-0.19H9.414V10.894z M9.461,10.751h0.048v0.095H9.461V10.751z"/>
	<path fill="#DEE4EB" d="M9.604,10.894h0.143v-0.19H9.604V10.894z M9.652,10.751H9.7v0.095H9.652V10.751z"/>
	<path fill="#DEE4EB" d="M9.795,10.894h0.143v-0.19H9.795V10.894z M9.843,10.751h0.048v0.095H9.843V10.751z"/>
	<path fill="#DEE4EB" d="M9.986,10.894h0.143v-0.19H9.986V10.894z M10.034,10.751h0.047v0.095h-0.047V10.751z"/>
	<path fill="#DEE4EB" d="M10.177,10.894h0.143v-0.19h-0.143V10.894z M10.224,10.751h0.048v0.095h-0.048V10.751z"/>
	<path fill="#DEE4EB" d="M9.414,11.132h0.143v-0.19H9.414V11.132z M9.461,10.989h0.048v0.095H9.461V10.989z"/>
	<path fill="#DEE4EB" d="M9.604,11.132h0.143v-0.19H9.604V11.132z M9.652,10.989H9.7v0.095H9.652V10.989z"/>
	<path fill="#DEE4EB" d="M9.795,11.132h0.143v-0.19H9.795V11.132z M9.843,10.989h0.048v0.095H9.843V10.989z"/>
	<path fill="#DEE4EB" d="M9.986,11.132h0.143v-0.19H9.986V11.132z M10.034,10.989h0.047v0.095h-0.047V10.989z"/>
	<path fill="#DEE4EB" d="M10.177,11.132h0.143v-0.19h-0.143V11.132z M10.224,10.989h0.048v0.095h-0.048V10.989z"/>
	<path fill="#DEE4EB" d="M9.414,11.371h0.143V11.18H9.414V11.371z M9.461,11.228h0.048v0.095H9.461V11.228z"/>
	<path fill="#DEE4EB" d="M9.604,11.371h0.143V11.18H9.604V11.371z M9.652,11.228H9.7v0.095H9.652V11.228z"/>
	<path fill="#DEE4EB" d="M9.795,11.371h0.143V11.18H9.795V11.371z M9.843,11.228h0.048v0.095H9.843V11.228z"/>
	<path fill="#DEE4EB" d="M9.986,11.371h0.143V11.18H9.986V11.371z M10.034,11.228h0.047v0.095h-0.047V11.228z"/>
	<path fill="#DEE4EB" d="M10.177,11.371h0.143V11.18h-0.143V11.371z M10.224,11.228h0.048v0.095h-0.048V11.228z"/>
	<path fill="#DEE4EB" d="M11.463,9.25H11.44V9.178c0-0.041-0.031-0.071-0.072-0.071h-0.596c-0.041,0-0.072,0.031-0.072,0.071V9.25
		h-0.023c-0.041,0-0.072,0.031-0.072,0.071v2.264h0.93V9.321C11.535,9.28,11.504,9.25,11.463,9.25z M10.749,9.178
		c0-0.014,0.01-0.024,0.024-0.024h0.596c0.014,0,0.024,0.01,0.024,0.024V9.25h-0.644V9.178z M11.487,11.537h-0.834V9.321
		c0-0.014,0.009-0.024,0.024-0.024h0.023h0.739h0.023c0.015,0,0.024,0.01,0.024,0.024V11.537z"/>
	<path fill="#DEE4EB" d="M10.749,9.583h0.644V9.44h-0.644V9.583z M10.796,9.488h0.548v0.047h-0.548V9.488z"/>
	<path fill="#DEE4EB" d="M10.749,9.773h0.644V9.631h-0.644V9.773z M10.796,9.678h0.548v0.048h-0.548V9.678z"/>
	<path fill="#DEE4EB" d="M10.749,9.964h0.644V9.821h-0.644V9.964z M10.796,9.869h0.548v0.047h-0.548V9.869z"/>
	<path fill="#DEE4EB" d="M10.749,10.155h0.644v-0.143h-0.644V10.155z M10.796,10.06h0.548v0.048h-0.548V10.06z"/>
	<path fill="#DEE4EB" d="M10.749,10.346h0.644v-0.143h-0.644V10.346z M10.796,10.25h0.548v0.048h-0.548V10.25z"/>
	<path fill="#DEE4EB" d="M10.749,10.536h0.644v-0.143h-0.644V10.536z M10.796,10.441h0.548v0.048h-0.548V10.441z"/>
	<path fill="#DEE4EB" d="M10.749,10.727h0.644v-0.143h-0.644V10.727z M10.796,10.632h0.548v0.048h-0.548V10.632z"/>
	<path fill="#DEE4EB" d="M10.749,10.918h0.644v-0.144h-0.644V10.918z M10.796,10.822h0.548v0.048h-0.548V10.822z"/>
	<path fill="#DEE4EB" d="M10.749,11.108h0.644v-0.144h-0.644V11.108z M10.796,11.013h0.548v0.048h-0.548V11.013z"/>
	<path fill="#DEE4EB" d="M10.749,11.299h0.644v-0.143h-0.644V11.299z M10.796,11.203h0.548v0.048h-0.548V11.203z"/>
	<path fill="#DEE4EB" d="M12.455,9.35l-0.117-0.124c-0.01-0.01-0.025-0.01-0.035,0l-0.119,0.126
		c-0.008,0.007-0.008,0.017-0.005,0.026c0.005,0.01,0.012,0.014,0.021,0.014h0.235l0,0c0.015,0,0.024-0.009,0.024-0.023
		C12.465,9.361,12.462,9.354,12.455,9.35z M12.26,9.345l0.064-0.067l0.064,0.067H12.26z"/>
	<path fill="#DEE4EB" d="M12.988,10.083c0-0.014-0.009-0.024-0.023-0.024h-0.047V9.678h0.047c0.015,0,0.023-0.009,0.023-0.024V9.559
		c0-0.014-0.009-0.024-0.023-0.024h-0.062l-0.557-0.558V8.916h0.19v-0.19h-0.19c0-0.015-0.01-0.024-0.024-0.024
		s-0.023,0.009-0.023,0.024v0.19v0.062L11.74,9.535h-0.062c-0.014,0-0.023,0.012-0.023,0.024v0.095c0,0.015,0.01,0.024,0.023,0.024
		h0.048v0.381h-0.048c-0.014,0-0.023,0.01-0.023,0.024v0.095c0,0.014,0.01,0.024,0.023,0.024h0.048v1.382h0.429h0.144h0.048h0.143
		h0.43v-1.382h0.047c0.015,0,0.023-0.01,0.023-0.024V10.083z M12.488,8.772v0.096h-0.143V8.772H12.488z M12.869,10.06h-0.095V9.678
		h0.095V10.06z M12.631,10.06V9.678h0.096v0.381H12.631z M12.488,10.06V9.678h0.096v0.381H12.488z M12.346,10.06V9.678h0.095v0.381
		H12.346z M12.202,10.06V9.678h0.096v0.381H12.202z M12.06,10.06V9.678h0.095v0.381H12.06z M11.916,10.06V9.678h0.096v0.381H11.916z
		 M12.321,9.021l0.515,0.515h-1.029L12.321,9.021z M11.701,9.631V9.583h0.049h1.144h0.048v0.048h-0.023l0,0h-1.192l0,0H11.701z
		 M11.773,9.678h0.096v0.381h-0.096V9.678z M12.202,11.537v-0.096h0.096v0.096H12.202z M12.346,11.537v-0.096h0.095v0.096H12.346z
		 M12.869,11.537h-0.381v-0.143h-0.143h-0.048h-0.144v0.143h-0.381v-1.334h1.096V11.537z M12.941,10.155h-0.023h-1.192h-0.024
		v-0.047h0.024h1.192h0.023V10.155z"/>
	<rect x="11.869" y="10.298" fill="#DEE4EB" width="0.047" height="0.167"/>
	<rect x="11.964" y="10.298" fill="#DEE4EB" width="0.048" height="0.167"/>
	<rect x="12.06" y="10.298" fill="#DEE4EB" width="0.048" height="0.167"/>
	<rect x="12.154" y="10.298" fill="#DEE4EB" width="0.048" height="0.167"/>
	<rect x="8.46" y="9.321" fill="#DEE4EB" width="0.048" height="0.119"/>
	<rect x="8.556" y="9.321" fill="#DEE4EB" width="0.047" height="0.119"/>
	<rect x="8.651" y="9.321" fill="#DEE4EB" width="0.047" height="0.119"/>
	<rect x="8.747" y="9.321" fill="#DEE4EB" width="0.048" height="0.119"/>
	<rect x="8.27" y="10.227" fill="#DEE4EB" width="0.047" height="0.119"/>
	<rect x="8.365" y="10.227" fill="#DEE4EB" width="0.048" height="0.119"/>
	<rect x="8.46" y="10.227" fill="#DEE4EB" width="0.048" height="0.119"/>
	<rect x="8.556" y="10.227" fill="#DEE4EB" width="0.047" height="0.119"/>
	<rect x="8.651" y="10.227" fill="#DEE4EB" width="0.047" height="0.119"/>
	<rect x="8.747" y="10.227" fill="#DEE4EB" width="0.048" height="0.119"/>
	<rect x="8.842" y="10.227" fill="#DEE4EB" width="0.048" height="0.119"/>
	<rect x="8.938" y="10.227" fill="#DEE4EB" width="0.047" height="0.119"/>
	<rect x="8.27" y="10.393" fill="#DEE4EB" width="0.047" height="0.119"/>
	<rect x="8.365" y="10.393" fill="#DEE4EB" width="0.048" height="0.119"/>
	<rect x="8.46" y="10.393" fill="#DEE4EB" width="0.048" height="0.119"/>
	<rect x="8.556" y="10.393" fill="#DEE4EB" width="0.047" height="0.119"/>
	<rect x="8.651" y="10.393" fill="#DEE4EB" width="0.047" height="0.119"/>
	<rect x="8.747" y="10.393" fill="#DEE4EB" width="0.048" height="0.119"/>
	<rect x="8.842" y="10.393" fill="#DEE4EB" width="0.048" height="0.119"/>
	<rect x="8.938" y="10.393" fill="#DEE4EB" width="0.047" height="0.119"/>
	<rect x="8.27" y="10.561" fill="#DEE4EB" width="0.047" height="0.119"/>
	<rect x="8.365" y="10.561" fill="#DEE4EB" width="0.048" height="0.119"/>
	<rect x="8.46" y="10.561" fill="#DEE4EB" width="0.048" height="0.119"/>
	<rect x="8.556" y="10.561" fill="#DEE4EB" width="0.047" height="0.119"/>
	<rect x="8.651" y="10.561" fill="#DEE4EB" width="0.047" height="0.119"/>
	<rect x="8.747" y="10.561" fill="#DEE4EB" width="0.048" height="0.119"/>
	<rect x="8.842" y="10.561" fill="#DEE4EB" width="0.048" height="0.119"/>
	<rect x="8.938" y="10.561" fill="#DEE4EB" width="0.047" height="0.119"/>
	<rect x="8.27" y="10.727" fill="#DEE4EB" width="0.047" height="0.119"/>
	<rect x="8.365" y="10.727" fill="#DEE4EB" width="0.048" height="0.119"/>
	<rect x="8.46" y="10.727" fill="#DEE4EB" width="0.048" height="0.119"/>
	<rect x="8.556" y="10.727" fill="#DEE4EB" width="0.047" height="0.119"/>
	<rect x="8.651" y="10.727" fill="#DEE4EB" width="0.047" height="0.119"/>
	<rect x="8.747" y="10.727" fill="#DEE4EB" width="0.048" height="0.119"/>
	<rect x="8.842" y="10.727" fill="#DEE4EB" width="0.048" height="0.119"/>
	<rect x="8.938" y="10.727" fill="#DEE4EB" width="0.047" height="0.119"/>
	<rect x="8.27" y="10.894" fill="#DEE4EB" width="0.047" height="0.119"/>
	<rect x="8.365" y="10.894" fill="#DEE4EB" width="0.048" height="0.119"/>
	<rect x="8.46" y="10.894" fill="#DEE4EB" width="0.048" height="0.119"/>
	<rect x="8.556" y="10.894" fill="#DEE4EB" width="0.047" height="0.119"/>
	<rect x="8.651" y="10.894" fill="#DEE4EB" width="0.047" height="0.119"/>
	<rect x="8.747" y="10.894" fill="#DEE4EB" width="0.048" height="0.119"/>
	<rect x="8.842" y="10.894" fill="#DEE4EB" width="0.048" height="0.119"/>
	<rect x="8.938" y="10.894" fill="#DEE4EB" width="0.047" height="0.119"/>
	<rect x="8.27" y="11.061" fill="#DEE4EB" width="0.047" height="0.119"/>
	<rect x="8.365" y="11.061" fill="#DEE4EB" width="0.048" height="0.119"/>
	<rect x="8.46" y="11.061" fill="#DEE4EB" width="0.048" height="0.119"/>
	<rect x="8.556" y="11.061" fill="#DEE4EB" width="0.047" height="0.119"/>
	<rect x="8.651" y="11.061" fill="#DEE4EB" width="0.047" height="0.119"/>
	<rect x="8.747" y="11.061" fill="#DEE4EB" width="0.048" height="0.119"/>
	<rect x="8.842" y="11.061" fill="#DEE4EB" width="0.048" height="0.119"/>
	<rect x="8.938" y="11.061" fill="#DEE4EB" width="0.047" height="0.119"/>
	<rect x="8.27" y="11.228" fill="#DEE4EB" width="0.047" height="0.119"/>
	<rect x="8.365" y="11.228" fill="#DEE4EB" width="0.048" height="0.119"/>
	<rect x="8.46" y="11.228" fill="#DEE4EB" width="0.048" height="0.119"/>
	<rect x="8.556" y="11.228" fill="#DEE4EB" width="0.047" height="0.119"/>
	<rect x="8.651" y="11.228" fill="#DEE4EB" width="0.047" height="0.119"/>
	<rect x="8.747" y="11.228" fill="#DEE4EB" width="0.048" height="0.119"/>
	<rect x="8.842" y="11.228" fill="#DEE4EB" width="0.048" height="0.119"/>
	<rect x="8.938" y="11.228" fill="#DEE4EB" width="0.047" height="0.119"/>
	<rect x="8.46" y="9.488" fill="#DEE4EB" width="0.048" height="0.119"/>
	<rect x="8.556" y="9.488" fill="#DEE4EB" width="0.047" height="0.119"/>
	<rect x="8.651" y="9.488" fill="#DEE4EB" width="0.047" height="0.119"/>
	<rect x="8.747" y="9.488" fill="#DEE4EB" width="0.048" height="0.119"/>
	<rect x="8.317" y="9.797" fill="#DEE4EB" width="0.048" height="0.191"/>
	<rect x="8.413" y="9.797" fill="#DEE4EB" width="0.047" height="0.191"/>
	<rect x="8.508" y="9.797" fill="#DEE4EB" width="0.048" height="0.191"/>
	<rect x="8.604" y="9.797" fill="#DEE4EB" width="0.048" height="0.191"/>
	<rect x="8.699" y="9.797" fill="#DEE4EB" width="0.048" height="0.191"/>
	<rect x="8.794" y="9.797" fill="#DEE4EB" width="0.047" height="0.191"/>
	<rect x="8.89" y="9.797" fill="#DEE4EB" width="0.048" height="0.191"/>
	<rect x="12.25" y="10.298" fill="#DEE4EB" width="0.048" height="0.167"/>
	<rect x="12.346" y="10.298" fill="#DEE4EB" width="0.047" height="0.167"/>
	<rect x="12.44" y="10.298" fill="#DEE4EB" width="0.048" height="0.167"/>
	<rect x="12.536" y="10.298" fill="#DEE4EB" width="0.048" height="0.167"/>
	<rect x="12.631" y="10.298" fill="#DEE4EB" width="0.049" height="0.167"/>
	<rect x="12.727" y="10.298" fill="#DEE4EB" width="0.048" height="0.167"/>
	<rect x="11.869" y="10.561" fill="#DEE4EB" width="0.047" height="0.166"/>
	<rect x="11.964" y="10.561" fill="#DEE4EB" width="0.048" height="0.166"/>
	<rect x="12.06" y="10.561" fill="#DEE4EB" width="0.048" height="0.166"/>
	<rect x="12.154" y="10.561" fill="#DEE4EB" width="0.048" height="0.166"/>
	<rect x="12.25" y="10.561" fill="#DEE4EB" width="0.048" height="0.166"/>
	<rect x="12.346" y="10.561" fill="#DEE4EB" width="0.047" height="0.166"/>
	<rect x="12.44" y="10.561" fill="#DEE4EB" width="0.048" height="0.166"/>
	<rect x="12.536" y="10.561" fill="#DEE4EB" width="0.048" height="0.166"/>
	<rect x="12.631" y="10.561" fill="#DEE4EB" width="0.049" height="0.166"/>
	<rect x="12.727" y="10.561" fill="#DEE4EB" width="0.048" height="0.166"/>
	<rect x="11.869" y="10.822" fill="#DEE4EB" width="0.047" height="0.167"/>
	<rect x="11.964" y="10.822" fill="#DEE4EB" width="0.048" height="0.167"/>
	<rect x="12.06" y="10.822" fill="#DEE4EB" width="0.048" height="0.167"/>
	<rect x="12.154" y="10.822" fill="#DEE4EB" width="0.048" height="0.167"/>
	<rect x="12.25" y="10.822" fill="#DEE4EB" width="0.048" height="0.167"/>
	<rect x="12.346" y="10.822" fill="#DEE4EB" width="0.047" height="0.167"/>
	<rect x="12.44" y="10.822" fill="#DEE4EB" width="0.048" height="0.167"/>
	<rect x="12.536" y="10.822" fill="#DEE4EB" width="0.048" height="0.167"/>
	<rect x="12.631" y="10.822" fill="#DEE4EB" width="0.049" height="0.167"/>
	<rect x="12.727" y="10.822" fill="#DEE4EB" width="0.048" height="0.167"/>
	<rect x="11.869" y="11.084" fill="#DEE4EB" width="0.047" height="0.167"/>
	<rect x="11.964" y="11.084" fill="#DEE4EB" width="0.048" height="0.167"/>
	<rect x="12.06" y="11.084" fill="#DEE4EB" width="0.048" height="0.167"/>
	<rect x="12.154" y="11.084" fill="#DEE4EB" width="0.048" height="0.167"/>
	<rect x="12.25" y="11.084" fill="#DEE4EB" width="0.048" height="0.167"/>
	<rect x="12.346" y="11.084" fill="#DEE4EB" width="0.047" height="0.167"/>
	<rect x="12.44" y="11.084" fill="#DEE4EB" width="0.048" height="0.167"/>
	<rect x="12.536" y="11.084" fill="#DEE4EB" width="0.048" height="0.167"/>
	<rect x="12.631" y="11.084" fill="#DEE4EB" width="0.049" height="0.167"/>
	<rect x="12.727" y="11.084" fill="#DEE4EB" width="0.048" height="0.167"/>
	<path fill="#DEE4EB" d="M14.633,10.536h0.049c0.002,0,0.004,0,0.009-0.003c0,0,0.003,0,0.003-0.002
		c0.002,0,0.002-0.002,0.004-0.002l0.003-0.002c0-0.003,0.003-0.003,0.003-0.006c0,0,0-0.002,0.002-0.002c0,0,0,0,0-0.002
		c0-0.003,0-0.003,0-0.006c0,0,0,0,0-0.002v-0.095c0-0.007-0.005-0.017-0.012-0.019l-0.68-0.422V9.94V9.845
		c0-0.01-0.005-0.017-0.012-0.021c-0.008-0.005-0.018-0.005-0.023,0l-0.978,0.572c-0.007,0.005-0.013,0.012-0.013,0.021v0.095v0.003
		c0,0.003,0,0.003,0,0.005c0,0,0,0,0,0.002c0,0,0,0.003,0.003,0.003c0,0.003,0.003,0.003,0.003,0.005l0.002,0.002
		c0.002,0.002,0.002,0.002,0.005,0.002c0,0,0.002,0,0.002,0.003c0.003,0,0.005,0.003,0.01,0.003h0.048v1.049h1.525h0.047h1.145
		v-0.716h0.048v-0.143h-1.192V10.536z M13.102,10.489l0.864-0.508v0.005v0.095v0.405h-0.864V10.489z M14.014,10.126l0.584,0.362
		h-0.584V10.126z M14.657,10.429v0.041l-0.644-0.4v-0.041L14.657,10.429z M13.966,9.886v0.041l-0.929,0.543v-0.041L13.966,9.886z
		 M14.586,11.537h-1.479v-1.001h0.883h0.596v0.19v0.096v0.048V11.537z M15.729,11.537h-1.097V10.87h1.097V11.537z M15.777,10.774
		v0.048h-1.145v-0.048H15.777z"/>
	<path fill="#DEE4EB" d="M13.859,10.169c-0.008-0.005-0.018-0.005-0.024,0l-0.308,0.179c-0.01,0.004-0.014,0.017-0.012,0.026
		c0.002,0.01,0.012,0.017,0.023,0.017h0.308c0.015,0,0.024-0.009,0.024-0.023v-0.179C13.871,10.181,13.865,10.174,13.859,10.169z
		 M13.823,10.346h-0.196l0.196-0.114V10.346z"/>
	<path fill="#DEE4EB" d="M14.357,10.396l-0.26-0.16c-0.008-0.004-0.018-0.004-0.024,0c-0.007,0.005-0.012,0.012-0.012,0.021v0.162
		c0,0.014,0.009,0.024,0.023,0.024h0.263l0,0c0.014,0,0.023-0.01,0.023-0.024C14.371,10.408,14.366,10.398,14.357,10.396z
		 M14.109,10.393v-0.095l0.154,0.095H14.109z"/>
	<path fill="#DEE4EB" d="M13.346,10.607h-0.143c-0.014,0-0.023,0.01-0.023,0.024v0.143c0,0.015,0.01,0.024,0.023,0.024h0.143
		c0.016,0,0.024-0.01,0.024-0.024v-0.143C13.37,10.617,13.361,10.607,13.346,10.607z M13.322,10.751h-0.096v-0.096h0.096V10.751z"/>
	<path fill="#DEE4EB" d="M13.633,10.607h-0.144c-0.015,0-0.024,0.01-0.024,0.024v0.143c0,0.015,0.01,0.024,0.024,0.024h0.144
		c0.014,0,0.023-0.01,0.023-0.024v-0.143C13.656,10.617,13.646,10.607,13.633,10.607z M13.608,10.751h-0.095v-0.096h0.095V10.751z"
		/>
	<path fill="#DEE4EB" d="M13.918,10.607h-0.143c-0.014,0-0.023,0.01-0.023,0.024v0.143c0,0.015,0.01,0.024,0.023,0.024h0.143
		c0.015,0,0.024-0.01,0.024-0.024v-0.143C13.942,10.617,13.933,10.607,13.918,10.607z M13.895,10.751h-0.096v-0.096h0.096V10.751z"
		/>
	<path fill="#DEE4EB" d="M14.204,10.607h-0.143c-0.015,0-0.024,0.01-0.024,0.024v0.143c0,0.015,0.01,0.024,0.024,0.024h0.143
		c0.015,0,0.024-0.01,0.024-0.024v-0.143C14.229,10.617,14.219,10.607,14.204,10.607z M14.181,10.751h-0.096v-0.096h0.096V10.751z"
		/>
	<path fill="#DEE4EB" d="M14.49,10.607h-0.143c-0.015,0-0.024,0.01-0.024,0.024v0.143c0,0.015,0.01,0.024,0.024,0.024h0.143
		c0.014,0,0.023-0.01,0.023-0.024v-0.143C14.514,10.617,14.504,10.607,14.49,10.607z M14.467,10.751h-0.096v-0.096h0.096V10.751z"/>
	<path fill="#DEE4EB" d="M13.346,10.87h-0.143c-0.014,0-0.023,0.009-0.023,0.023v0.144c0,0.014,0.01,0.023,0.023,0.023h0.143
		c0.016,0,0.024-0.01,0.024-0.023v-0.144C13.37,10.879,13.361,10.87,13.346,10.87z M13.322,11.013h-0.096v-0.095h0.096V11.013z"/>
	<path fill="#DEE4EB" d="M13.633,10.87h-0.144c-0.015,0-0.024,0.009-0.024,0.023v0.144c0,0.014,0.01,0.023,0.024,0.023h0.144
		c0.014,0,0.023-0.01,0.023-0.023v-0.144C13.656,10.879,13.646,10.87,13.633,10.87z M13.608,11.013h-0.095v-0.095h0.095V11.013z"/>
	<path fill="#DEE4EB" d="M13.918,10.87h-0.143c-0.014,0-0.023,0.009-0.023,0.023v0.144c0,0.014,0.01,0.023,0.023,0.023h0.143
		c0.015,0,0.024-0.01,0.024-0.023v-0.144C13.942,10.879,13.933,10.87,13.918,10.87z M13.895,11.013h-0.096v-0.095h0.096V11.013z"/>
	<path fill="#DEE4EB" d="M14.204,10.87h-0.143c-0.015,0-0.024,0.009-0.024,0.023v0.144c0,0.014,0.01,0.023,0.024,0.023h0.143
		c0.015,0,0.024-0.01,0.024-0.023v-0.144C14.229,10.879,14.219,10.87,14.204,10.87z M14.181,11.013h-0.096v-0.095h0.096V11.013z"/>
	<path fill="#DEE4EB" d="M14.49,10.87h-0.143c-0.015,0-0.024,0.009-0.024,0.023v0.144c0,0.014,0.01,0.023,0.024,0.023h0.143
		c0.014,0,0.023-0.01,0.023-0.023v-0.144C14.514,10.879,14.504,10.87,14.49,10.87z M14.467,11.013h-0.096v-0.095h0.096V11.013z"/>
	<path fill="#DEE4EB" d="M13.346,11.132h-0.143c-0.014,0-0.023,0.01-0.023,0.024v0.143c0,0.014,0.01,0.023,0.023,0.023h0.143
		c0.016,0,0.024-0.01,0.024-0.023v-0.143C13.37,11.142,13.361,11.132,13.346,11.132z M13.322,11.275h-0.096V11.18h0.096V11.275z"/>
	<path fill="#DEE4EB" d="M13.633,11.132h-0.144c-0.015,0-0.024,0.01-0.024,0.024v0.143c0,0.014,0.01,0.023,0.024,0.023h0.144
		c0.014,0,0.023-0.01,0.023-0.023v-0.143C13.656,11.142,13.646,11.132,13.633,11.132z M13.608,11.275h-0.095V11.18h0.095V11.275z"/>
	<path fill="#DEE4EB" d="M13.918,11.132h-0.143c-0.014,0-0.023,0.01-0.023,0.024v0.143c0,0.014,0.01,0.023,0.023,0.023h0.143
		c0.015,0,0.024-0.01,0.024-0.023v-0.143C13.942,11.142,13.933,11.132,13.918,11.132z M13.895,11.275h-0.096V11.18h0.096V11.275z"/>
	<path fill="#DEE4EB" d="M14.204,11.132h-0.143c-0.015,0-0.024,0.01-0.024,0.024v0.143c0,0.014,0.01,0.023,0.024,0.023h0.143
		c0.015,0,0.024-0.01,0.024-0.023v-0.143C14.229,11.142,14.219,11.132,14.204,11.132z M14.181,11.275h-0.096V11.18h0.096V11.275z"/>
	<path fill="#DEE4EB" d="M14.49,11.132h-0.143c-0.015,0-0.024,0.01-0.024,0.024v0.143c0,0.014,0.01,0.023,0.024,0.023h0.143
		c0.014,0,0.023-0.01,0.023-0.023v-0.143C14.514,11.142,14.504,11.132,14.49,11.132z M14.467,11.275h-0.096V11.18h0.096V11.275z"/>
	<path fill="#DEE4EB" d="M21.807,11.23v-0.003v-0.096c0-0.007-0.002-0.015-0.01-0.019l-0.738-0.572
		c-0.008-0.005-0.017-0.008-0.026-0.002c-0.007,0.004-0.015,0.012-0.015,0.021v0.095v0.034l-0.679,0.422
		c-0.007,0.004-0.012,0.012-0.012,0.019v0.095c0,0,0,0,0,0.003s0,0.003,0,0.005s0,0.002,0.002,0.004c0,0,0,0,0,0.003
		c0,0,0.003,0,0.003,0.003c0,0.002,0.002,0.002,0.002,0.004c0,0,0.002,0.003,0.005,0.003s0.003,0.002,0.005,0.002s0.002,0,0.005,0
		h0.002c0,0,0,0,0.003,0c0.002,0,0.002,0,0.004,0c0.003,0,0.003,0,0.006-0.002c0,0,0,0,0.002,0l0.035-0.021v0.36h1.335v-0.36
		l0.034,0.023h0.002c0.002,0,0.002,0.003,0.004,0.003c0.003,0,0.003,0,0.006,0h0.002h0.002c0.003,0,0.003,0,0.005,0
		c0.003,0,0.003,0,0.005-0.003c0.002,0,0.002-0.002,0.005-0.002s0.003-0.003,0.003-0.003s0,0,0.002-0.002v-0.002
		c0-0.003,0.002-0.003,0.002-0.006C21.807,11.232,21.807,11.232,21.807,11.23z M21.76,11.145v0.035l-0.691-0.536v-0.036
		L21.76,11.145z M21.021,10.744v0.04l-0.644,0.4v-0.04L21.021,10.744z M20.448,11.196l0.575-0.354v0.695h-0.572v-0.334
		C20.448,11.201,20.448,11.199,20.448,11.196z M21.068,11.537v-0.738v-0.096l0.619,0.479v0.354h-0.619V11.537z"/>
	<path fill="#DEE4EB" d="M14.871,10.941h-0.143v0.167h0.143V10.941z M14.824,11.061h-0.048v-0.071h0.048V11.061z"/>
	<path fill="#DEE4EB" d="M15.062,10.941H14.92v0.167h0.143V10.941z M15.015,11.061h-0.048v-0.071h0.048V11.061z"/>
	<path fill="#DEE4EB" d="M15.253,10.941h-0.144v0.167h0.144V10.941z M15.205,11.061h-0.047v-0.071h0.047V11.061z"/>
	<path fill="#DEE4EB" d="M15.443,10.941h-0.143v0.167h0.143V10.941z M15.396,11.061h-0.049v-0.071h0.049V11.061z"/>
	<path fill="#DEE4EB" d="M15.635,10.941h-0.144v0.167h0.144V10.941z M15.586,11.061h-0.047v-0.071h0.047V11.061z"/>
	<path fill="#DEE4EB" d="M14.871,11.156h-0.143v0.166h0.143V11.156z M14.824,11.275h-0.048v-0.072h0.048V11.275z"/>
	<path fill="#DEE4EB" d="M15.062,11.156H14.92v0.166h0.143V11.156z M15.015,11.275h-0.048v-0.072h0.048V11.275z"/>
	<path fill="#DEE4EB" d="M15.253,11.156h-0.144v0.166h0.144V11.156z M15.205,11.275h-0.047v-0.072h0.047V11.275z"/>
	<path fill="#DEE4EB" d="M15.443,11.156h-0.143v0.166h0.143V11.156z M15.396,11.275h-0.049v-0.072h0.049V11.275z"/>
	<path fill="#DEE4EB" d="M15.635,11.156h-0.144v0.166h0.144V11.156z M15.586,11.275h-0.047v-0.072h0.047V11.275z"/>
	<path fill="#DEE4EB" d="M3.956,11.108h0.143v-0.167H3.956V11.108z M4.004,10.989h0.048v0.071H4.004V10.989z"/>
	<path fill="#DEE4EB" d="M3.766,11.108h0.143v-0.167H3.766V11.108z M3.813,10.989h0.047v0.071H3.813V10.989z"/>
	<path fill="#DEE4EB" d="M3.575,11.108h0.143v-0.167H3.575V11.108z M3.623,10.989H3.67v0.071H3.623V10.989z"/>
	<path fill="#DEE4EB" d="M3.384,11.108h0.143v-0.167H3.384V11.108z M3.432,10.989h0.047v0.071H3.432V10.989z"/>
	<path fill="#DEE4EB" d="M3.193,11.108h0.143v-0.167H3.193V11.108z M3.241,10.989h0.048v0.071H3.241V10.989z"/>
	<path fill="#DEE4EB" d="M3.956,11.322h0.143v-0.166H3.956V11.322z M4.004,11.203h0.048v0.072H4.004V11.203z"/>
	<path fill="#DEE4EB" d="M3.766,11.322h0.143v-0.166H3.766V11.322z M3.813,11.203h0.047v0.072H3.813V11.203z"/>
	<path fill="#DEE4EB" d="M3.575,11.322h0.143v-0.166H3.575V11.322z M3.623,11.203H3.67v0.072H3.623V11.203z"/>
	<path fill="#DEE4EB" d="M3.384,11.322h0.143v-0.166H3.384V11.322z M3.432,11.203h0.047v0.072H3.432V11.203z"/>
	<path fill="#DEE4EB" d="M3.193,11.322h0.143v-0.166H3.193V11.322z M3.241,11.203h0.048v0.072H3.241V11.203z"/>
	<path fill="#DEE4EB" d="M0.143,10.965H0.19v0.62h1.192v-0.62H1.43v-0.143H0.143V10.965z M1.334,11.537H0.238v-0.572h1.096V11.537z
		 M0.19,10.87h1.192v0.048H0.19V10.87z"/>
	<path fill="#DEE4EB" d="M16.778,10.322h-0.015l-0.176-0.176V10.06c0-0.026-0.021-0.048-0.048-0.048h-0.334
		c-0.026,0-0.048,0.021-0.048,0.048v0.086l-0.176,0.176h-0.015c-0.026,0-0.048,0.021-0.048,0.048v0.047
		c0,0.026,0.021,0.048,0.048,0.048v1.12h0.811v-1.12c0.026,0,0.048-0.021,0.048-0.048V10.37
		C16.826,10.343,16.805,10.322,16.778,10.322z M16.35,10.155v0.167h-0.131l0.073-0.167H16.35z M16.396,10.155h0.055l0.074,0.167
		h-0.129V10.155z M16.58,10.322l-0.074-0.167h0.024l0.167,0.167H16.58z M16.206,10.06h0.334v0.048h-0.334V10.06z M16.216,10.155
		h0.024l-0.074,0.167h-0.117L16.216,10.155z M16.73,11.537h-0.715v-1.072h0.715V11.537z M16.778,10.417h-0.811V10.37h0.811V10.417
		L16.778,10.417z"/>
	<rect x="16.111" y="10.561" fill="#DEE4EB" width="0.047" height="0.095"/>
	<rect x="16.206" y="10.561" fill="#DEE4EB" width="0.048" height="0.095"/>
	<rect x="16.302" y="10.561" fill="#DEE4EB" width="0.048" height="0.095"/>
	<rect x="16.396" y="10.561" fill="#DEE4EB" width="0.048" height="0.095"/>
	<rect x="16.492" y="10.561" fill="#DEE4EB" width="0.048" height="0.095"/>
	<rect x="16.588" y="10.561" fill="#DEE4EB" width="0.047" height="0.095"/>
	<rect x="16.111" y="10.703" fill="#DEE4EB" width="0.047" height="0.096"/>
	<rect x="16.206" y="10.703" fill="#DEE4EB" width="0.048" height="0.096"/>
	<rect x="16.302" y="10.703" fill="#DEE4EB" width="0.048" height="0.096"/>
	<rect x="16.396" y="10.703" fill="#DEE4EB" width="0.048" height="0.096"/>
	<rect x="16.492" y="10.703" fill="#DEE4EB" width="0.048" height="0.096"/>
	<rect x="16.588" y="10.703" fill="#DEE4EB" width="0.047" height="0.096"/>
	<rect x="16.111" y="10.846" fill="#DEE4EB" width="0.047" height="0.096"/>
	<rect x="16.206" y="10.846" fill="#DEE4EB" width="0.048" height="0.096"/>
	<rect x="16.302" y="10.846" fill="#DEE4EB" width="0.048" height="0.096"/>
	<rect x="16.396" y="10.846" fill="#DEE4EB" width="0.048" height="0.096"/>
	<rect x="16.492" y="10.846" fill="#DEE4EB" width="0.048" height="0.096"/>
	<rect x="16.588" y="10.846" fill="#DEE4EB" width="0.047" height="0.096"/>
	<rect x="16.111" y="10.989" fill="#DEE4EB" width="0.047" height="0.095"/>
	<rect x="16.206" y="10.989" fill="#DEE4EB" width="0.048" height="0.095"/>
	<rect x="16.302" y="10.989" fill="#DEE4EB" width="0.048" height="0.095"/>
	<rect x="16.396" y="10.989" fill="#DEE4EB" width="0.048" height="0.095"/>
	<rect x="16.492" y="10.989" fill="#DEE4EB" width="0.048" height="0.095"/>
	<rect x="16.588" y="10.989" fill="#DEE4EB" width="0.047" height="0.095"/>
	<rect x="16.111" y="11.132" fill="#DEE4EB" width="0.047" height="0.096"/>
	<rect x="16.206" y="11.132" fill="#DEE4EB" width="0.048" height="0.096"/>
	<rect x="16.302" y="11.132" fill="#DEE4EB" width="0.048" height="0.096"/>
	<rect x="16.396" y="11.132" fill="#DEE4EB" width="0.048" height="0.096"/>
	<rect x="16.492" y="11.132" fill="#DEE4EB" width="0.048" height="0.096"/>
	<rect x="16.588" y="11.132" fill="#DEE4EB" width="0.047" height="0.096"/>
	<rect x="16.111" y="11.275" fill="#DEE4EB" width="0.047" height="0.096"/>
	<rect x="16.206" y="11.275" fill="#DEE4EB" width="0.048" height="0.096"/>
	<rect x="16.302" y="11.275" fill="#DEE4EB" width="0.048" height="0.096"/>
	<rect x="16.396" y="11.275" fill="#DEE4EB" width="0.048" height="0.096"/>
	<rect x="16.492" y="11.275" fill="#DEE4EB" width="0.048" height="0.096"/>
	<rect x="16.588" y="11.275" fill="#DEE4EB" width="0.047" height="0.096"/>
	<path fill="#DEE4EB" d="M6.673,10.322H6.659l-0.2-0.203C6.454,10.031,6.38,9.962,6.292,9.962V9.748H6.244v0.214
		c-0.088,0-0.162,0.069-0.167,0.157l-0.2,0.2H5.863c-0.026,0-0.047,0.021-0.047,0.048v0.047c0,0.026,0.021,0.048,0.047,0.048v1.12
		h0.811v-1.12c0.026,0,0.047-0.021,0.047-0.048v-0.047C6.721,10.343,6.699,10.322,6.673,10.322z M6.244,10.155v0.167H6.113
		l0.074-0.167H6.244z M6.292,10.155h0.057l0.074,0.167H6.292V10.155z M6.476,10.322l-0.074-0.167h0.024l0.167,0.167H6.476z
		 M6.244,10.012h0.048c0.057,0,0.104,0.041,0.117,0.096H6.127C6.139,10.052,6.187,10.012,6.244,10.012z M6.111,10.155h0.024
		l-0.074,0.167H5.944L6.111,10.155z M6.625,11.537H5.911v-1.072h0.715V11.537z M6.673,10.417H5.863V10.37h0.811V10.417L6.673,10.417
		z"/>
	<rect x="6.006" y="10.561" fill="#DEE4EB" width="0.048" height="0.095"/>
	<rect x="6.101" y="10.561" fill="#DEE4EB" width="0.048" height="0.095"/>
	<rect x="6.196" y="10.561" fill="#DEE4EB" width="0.048" height="0.095"/>
	<rect x="6.292" y="10.561" fill="#DEE4EB" width="0.047" height="0.095"/>
	<rect x="6.387" y="10.561" fill="#DEE4EB" width="0.048" height="0.095"/>
	<rect x="6.482" y="10.561" fill="#DEE4EB" width="0.048" height="0.095"/>
	<rect x="6.006" y="10.703" fill="#DEE4EB" width="0.048" height="0.096"/>
	<rect x="6.101" y="10.703" fill="#DEE4EB" width="0.048" height="0.096"/>
	<rect x="6.196" y="10.703" fill="#DEE4EB" width="0.048" height="0.096"/>
	<rect x="6.292" y="10.703" fill="#DEE4EB" width="0.047" height="0.096"/>
	<rect x="6.387" y="10.703" fill="#DEE4EB" width="0.048" height="0.096"/>
	<rect x="6.482" y="10.703" fill="#DEE4EB" width="0.048" height="0.096"/>
	<rect x="6.006" y="10.846" fill="#DEE4EB" width="0.048" height="0.096"/>
	<rect x="6.101" y="10.846" fill="#DEE4EB" width="0.048" height="0.096"/>
	<rect x="6.196" y="10.846" fill="#DEE4EB" width="0.048" height="0.096"/>
	<rect x="6.292" y="10.846" fill="#DEE4EB" width="0.047" height="0.096"/>
	<rect x="6.387" y="10.846" fill="#DEE4EB" width="0.048" height="0.096"/>
	<rect x="6.482" y="10.846" fill="#DEE4EB" width="0.048" height="0.096"/>
	<rect x="6.006" y="10.989" fill="#DEE4EB" width="0.048" height="0.095"/>
	<rect x="6.101" y="10.989" fill="#DEE4EB" width="0.048" height="0.095"/>
	<rect x="6.196" y="10.989" fill="#DEE4EB" width="0.048" height="0.095"/>
	<rect x="6.292" y="10.989" fill="#DEE4EB" width="0.047" height="0.095"/>
	<rect x="6.387" y="10.989" fill="#DEE4EB" width="0.048" height="0.095"/>
	<rect x="6.482" y="10.989" fill="#DEE4EB" width="0.048" height="0.095"/>
	<rect x="6.006" y="11.132" fill="#DEE4EB" width="0.048" height="0.096"/>
	<rect x="6.101" y="11.132" fill="#DEE4EB" width="0.048" height="0.096"/>
	<rect x="6.196" y="11.132" fill="#DEE4EB" width="0.048" height="0.096"/>
	<rect x="6.292" y="11.132" fill="#DEE4EB" width="0.047" height="0.096"/>
	<rect x="6.387" y="11.132" fill="#DEE4EB" width="0.048" height="0.096"/>
	<rect x="6.482" y="11.132" fill="#DEE4EB" width="0.048" height="0.096"/>
	<rect x="6.006" y="11.275" fill="#DEE4EB" width="0.048" height="0.096"/>
	<rect x="6.101" y="11.275" fill="#DEE4EB" width="0.048" height="0.096"/>
	<rect x="6.196" y="11.275" fill="#DEE4EB" width="0.048" height="0.096"/>
	<rect x="6.292" y="11.275" fill="#DEE4EB" width="0.047" height="0.096"/>
	<rect x="6.387" y="11.275" fill="#DEE4EB" width="0.048" height="0.096"/>
	<rect x="6.482" y="11.275" fill="#DEE4EB" width="0.048" height="0.096"/>
	<path fill="#DEE4EB" d="M21.201,10.922c-0.007-0.004-0.016-0.007-0.023-0.002s-0.014,0.012-0.014,0.021v0.405
		c0,0.015,0.009,0.024,0.023,0.024h0.381c0.015,0,0.023-0.01,0.023-0.024v-0.119c0-0.007-0.002-0.015-0.009-0.019L21.201,10.922z
		 M21.545,11.322h-0.334v-0.333l0.334,0.25V11.322z"/>
	<path fill="#DEE4EB" d="M20.568,11.371h0.333c0.015,0,0.024-0.01,0.024-0.024v-0.286c0-0.01-0.006-0.017-0.013-0.021
		s-0.017-0.005-0.023,0l-0.334,0.215c-0.007,0.004-0.012,0.012-0.012,0.019v0.071C20.544,11.358,20.556,11.371,20.568,11.371z
		 M20.592,11.287l0.285-0.184v0.219h-0.285V11.287z"/>
	<path fill="#DEE4EB" d="M18.852,10.441h-0.014l-0.137-0.136c-0.004-0.005-0.01-0.007-0.016-0.007H17.16
		c-0.008,0-0.013,0.002-0.018,0.007l-0.136,0.136h-0.015c-0.025,0-0.047,0.021-0.047,0.048v0.047c0,0.026,0.021,0.048,0.047,0.048
		v0.977c0,0.015,0.01,0.024,0.024,0.024h1.812c0.014,0,0.023-0.01,0.023-0.024v-0.977c0.026,0,0.048-0.021,0.048-0.048v-0.047
		C18.899,10.462,18.878,10.441,18.852,10.441z M17.169,10.346h1.507l0.095,0.095h-1.696L17.169,10.346z M18.805,11.537h-1.764
		v-0.953h1.764V11.537z M18.828,10.536h-1.812h-0.024v-0.047h1.859v0.047H18.828z"/>
	<path fill="#DEE4EB" d="M17.16,10.822h0.285c0.015,0,0.023-0.01,0.023-0.023v-0.096c0-0.014-0.009-0.023-0.023-0.023H17.16
		c-0.015,0-0.024,0.01-0.024,0.023v0.096C17.136,10.811,17.147,10.822,17.16,10.822z M17.184,10.727h0.238v0.048h-0.238V10.727z"/>
	<path fill="#DEE4EB" d="M17.588,10.822h0.287c0.014,0,0.023-0.01,0.023-0.023v-0.096c0-0.014-0.01-0.023-0.023-0.023h-0.287
		c-0.014,0-0.023,0.01-0.023,0.023v0.096C17.564,10.811,17.576,10.822,17.588,10.822z M17.612,10.727h0.238v0.048h-0.238V10.727z"/>
	<path fill="#DEE4EB" d="M17.994,10.822h0.285c0.015,0,0.024-0.01,0.024-0.023v-0.096c0-0.014-0.01-0.023-0.024-0.023h-0.285
		c-0.015,0-0.024,0.01-0.024,0.023v0.096C17.97,10.811,17.982,10.822,17.994,10.822z M18.018,10.727h0.238v0.048h-0.238V10.727z"/>
	<path fill="#DEE4EB" d="M18.398,10.822h0.287c0.014,0,0.023-0.01,0.023-0.023v-0.096c0-0.014-0.01-0.023-0.023-0.023h-0.287
		c-0.014,0-0.023,0.01-0.023,0.023v0.096C18.375,10.811,18.387,10.822,18.398,10.822z M18.423,10.727h0.238v0.048h-0.238V10.727z"/>
	<path fill="#DEE4EB" d="M17.16,11.013h0.285c0.015,0,0.023-0.009,0.023-0.023v-0.096c0-0.015-0.009-0.023-0.023-0.023H17.16
		c-0.015,0-0.024,0.009-0.024,0.023v0.096C17.136,11.001,17.147,11.013,17.16,11.013z M17.184,10.918h0.238v0.047h-0.238V10.918z"/>
	<path fill="#DEE4EB" d="M17.588,11.013h0.287c0.014,0,0.023-0.009,0.023-0.023v-0.096c0-0.015-0.01-0.023-0.023-0.023h-0.287
		c-0.014,0-0.023,0.009-0.023,0.023v0.096C17.564,11.001,17.576,11.013,17.588,11.013z M17.612,10.918h0.238v0.047h-0.238V10.918z"
		/>
	<path fill="#DEE4EB" d="M17.994,11.013h0.285c0.015,0,0.024-0.009,0.024-0.023v-0.096c0-0.015-0.01-0.023-0.024-0.023h-0.285
		c-0.015,0-0.024,0.009-0.024,0.023v0.096C17.97,11.001,17.982,11.013,17.994,11.013z M18.018,10.918h0.238v0.047h-0.238V10.918z"/>
	<path fill="#DEE4EB" d="M18.398,11.013h0.287c0.014,0,0.023-0.009,0.023-0.023v-0.096c0-0.015-0.01-0.023-0.023-0.023h-0.287
		c-0.014,0-0.023,0.009-0.023,0.023v0.096C18.375,11.001,18.387,11.013,18.398,11.013z M18.423,10.918h0.238v0.047h-0.238V10.918z"
		/>
	<path fill="#DEE4EB" d="M17.16,11.203h0.285c0.015,0,0.023-0.01,0.023-0.023v-0.096c0-0.014-0.009-0.023-0.023-0.023H17.16
		c-0.015,0-0.024,0.01-0.024,0.023v0.096C17.136,11.191,17.147,11.203,17.16,11.203z M17.184,11.108h0.238v0.048h-0.238V11.108z"/>
	<path fill="#DEE4EB" d="M17.588,11.203h0.287c0.014,0,0.023-0.01,0.023-0.023v-0.096c0-0.014-0.01-0.023-0.023-0.023h-0.287
		c-0.014,0-0.023,0.01-0.023,0.023v0.096C17.564,11.191,17.576,11.203,17.588,11.203z M17.612,11.108h0.238v0.048h-0.238V11.108z"/>
	<path fill="#DEE4EB" d="M17.994,11.203h0.285c0.015,0,0.024-0.01,0.024-0.023v-0.096c0-0.014-0.01-0.023-0.024-0.023h-0.285
		c-0.015,0-0.024,0.01-0.024,0.023v0.096C17.97,11.191,17.982,11.203,17.994,11.203z M18.018,11.108h0.238v0.048h-0.238V11.108z"/>
	<path fill="#DEE4EB" d="M18.398,11.203h0.287c0.014,0,0.023-0.01,0.023-0.023v-0.096c0-0.014-0.01-0.023-0.023-0.023h-0.287
		c-0.014,0-0.023,0.01-0.023,0.023v0.096C18.375,11.191,18.387,11.203,18.398,11.203z M18.423,11.108h0.238v0.048h-0.238V11.108z"/>
	<path fill="#DEE4EB" d="M17.16,11.395h0.285c0.015,0,0.023-0.01,0.023-0.023v-0.096c0-0.015-0.009-0.024-0.023-0.024H17.16
		c-0.015,0-0.024,0.01-0.024,0.024v0.096C17.136,11.383,17.147,11.395,17.16,11.395z M17.184,11.299h0.238v0.048h-0.238V11.299z"/>
	<path fill="#DEE4EB" d="M17.588,11.395h0.287c0.014,0,0.023-0.01,0.023-0.023v-0.096c0-0.015-0.01-0.024-0.023-0.024h-0.287
		c-0.014,0-0.023,0.01-0.023,0.024v0.096C17.564,11.383,17.576,11.395,17.588,11.395z M17.612,11.299h0.238v0.048h-0.238V11.299z"/>
	<path fill="#DEE4EB" d="M17.994,11.395h0.285c0.015,0,0.024-0.01,0.024-0.023v-0.096c0-0.015-0.01-0.024-0.024-0.024h-0.285
		c-0.015,0-0.024,0.01-0.024,0.024v0.096C17.97,11.383,17.982,11.395,17.994,11.395z M18.018,11.299h0.238v0.048h-0.238V11.299z"/>
	<path fill="#DEE4EB" d="M18.398,11.395h0.287c0.014,0,0.023-0.01,0.023-0.023v-0.096c0-0.015-0.01-0.024-0.023-0.024h-0.287
		c-0.014,0-0.023,0.01-0.023,0.024v0.096C18.375,11.383,18.387,11.395,18.398,11.395z M18.423,11.299h0.238v0.048h-0.238V11.299z"/>
	<path fill="#DEE4EB" d="M20.162,10.584h-1.096c-0.026,0-0.048,0.021-0.048,0.048v0.929c0,0.015,0.009,0.024,0.024,0.024h0.523
		h0.096h0.524c0.015,0,0.023-0.01,0.023-0.024v-0.929C20.21,10.605,20.188,10.584,20.162,10.584z M20.162,10.632v0.19h-0.095v-0.19
		H20.162z M20.02,10.632v0.19h-0.096v-0.19H20.02z M19.877,10.632v0.19h-0.096v-0.19H19.877z M19.733,10.632v0.19h-0.095v-0.19
		H19.733z M19.59,10.632v0.19h-0.095v-0.19H19.59z M19.447,10.632v0.19h-0.096v-0.19H19.447z M19.305,10.632v0.19h-0.096v-0.19
		H19.305z M19.066,10.632h0.096v0.19h-0.096V10.632z M19.59,11.537v-0.096h0.049v0.096H19.59z M20.162,11.537h-0.477v-0.119
		c0-0.014-0.01-0.023-0.023-0.023h-0.096c-0.014,0-0.023,0.01-0.023,0.023v0.119h-0.477V10.87h1.096V11.537z"/>
	<rect x="19.162" y="10.965" fill="#DEE4EB" width="0.047" height="0.096"/>
	<rect x="19.257" y="10.965" fill="#DEE4EB" width="0.048" height="0.096"/>
	<rect x="19.352" y="10.965" fill="#DEE4EB" width="0.049" height="0.096"/>
	<rect x="19.447" y="10.965" fill="#DEE4EB" width="0.048" height="0.096"/>
	<rect x="19.543" y="10.965" fill="#DEE4EB" width="0.047" height="0.096"/>
	<rect x="19.639" y="10.965" fill="#DEE4EB" width="0.047" height="0.096"/>
	<rect x="19.733" y="10.965" fill="#DEE4EB" width="0.048" height="0.096"/>
	<rect x="19.828" y="10.965" fill="#DEE4EB" width="0.049" height="0.096"/>
	<rect x="19.924" y="10.965" fill="#DEE4EB" width="0.048" height="0.096"/>
	<rect x="20.02" y="10.965" fill="#DEE4EB" width="0.048" height="0.096"/>
	<rect x="19.162" y="11.108" fill="#DEE4EB" width="0.047" height="0.095"/>
	<rect x="19.257" y="11.108" fill="#DEE4EB" width="0.048" height="0.095"/>
	<rect x="19.352" y="11.108" fill="#DEE4EB" width="0.049" height="0.095"/>
	<rect x="19.447" y="11.108" fill="#DEE4EB" width="0.048" height="0.095"/>
	<rect x="19.543" y="11.108" fill="#DEE4EB" width="0.047" height="0.095"/>
	<rect x="19.639" y="11.108" fill="#DEE4EB" width="0.047" height="0.095"/>
	<rect x="19.733" y="11.108" fill="#DEE4EB" width="0.048" height="0.095"/>
	<rect x="19.828" y="11.108" fill="#DEE4EB" width="0.049" height="0.095"/>
	<rect x="19.924" y="11.108" fill="#DEE4EB" width="0.048" height="0.095"/>
	<rect x="20.02" y="11.108" fill="#DEE4EB" width="0.048" height="0.095"/>
	<rect x="19.162" y="11.251" fill="#DEE4EB" width="0.047" height="0.096"/>
	<rect x="19.257" y="11.251" fill="#DEE4EB" width="0.048" height="0.096"/>
	<rect x="19.352" y="11.251" fill="#DEE4EB" width="0.049" height="0.096"/>
	<rect x="19.447" y="11.251" fill="#DEE4EB" width="0.048" height="0.096"/>
	<rect x="19.543" y="11.251" fill="#DEE4EB" width="0.047" height="0.096"/>
	<rect x="19.639" y="11.251" fill="#DEE4EB" width="0.047" height="0.096"/>
	<rect x="19.733" y="11.251" fill="#DEE4EB" width="0.048" height="0.096"/>
	<rect x="19.828" y="11.251" fill="#DEE4EB" width="0.049" height="0.096"/>
	<rect x="19.924" y="11.251" fill="#DEE4EB" width="0.048" height="0.096"/>
	<rect x="20.02" y="11.251" fill="#DEE4EB" width="0.048" height="0.096"/>
	<path fill="#DEE4EB" d="M9.128,10.06H9.057V9.702c0-0.014-0.01-0.024-0.024-0.024H8.914V9.226c0-0.015-0.01-0.024-0.024-0.024
		H8.818V8.868l0,0c0.014,0,0.023-0.01,0.023-0.024c0-0.005-0.002-0.01-0.004-0.014L8.649,8.406c-0.005-0.01-0.012-0.015-0.021-0.015
		c-0.009,0-0.019,0.005-0.021,0.015l-0.19,0.429C8.413,8.842,8.413,8.851,8.418,8.858C8.422,8.866,8.43,8.87,8.437,8.87v0.334H8.365
		c-0.014,0-0.024,0.009-0.024,0.024v0.453H8.222c-0.014,0-0.024,0.01-0.024,0.024v0.357H8.127c-0.014,0-0.024,0.009-0.024,0.024
		v1.478c0,0.015,0.01,0.024,0.024,0.024h1.001c0.014,0,0.024-0.01,0.024-0.024v-1.478C9.152,10.069,9.142,10.06,9.128,10.06z
		 M8.627,8.472l0.155,0.346H8.475L8.627,8.472z M8.484,8.868h0.286v0.333H8.484V8.868z M8.389,9.25H8.46h0.334h0.071v0.429H8.389
		V9.25z M8.246,9.726h0.119H8.89h0.119v0.333H8.246V9.726z M9.104,11.537H8.151v-1.43h0.071h0.811h0.071V11.537z"/>
	<path fill="#DEE4EB" d="M8.627,8.939c-0.052,0-0.095,0.043-0.095,0.095c0,0.053,0.043,0.095,0.095,0.095s0.095-0.042,0.095-0.095
		C8.723,8.982,8.68,8.939,8.627,8.939z M8.627,9.083c-0.026,0-0.048-0.021-0.048-0.048c0-0.026,0.021-0.047,0.048-0.047
		s0.048,0.021,0.048,0.047C8.675,9.061,8.654,9.083,8.627,9.083z"/>
	<path fill="#DEE4EB" d="M7.746,9.511h0.048V9.369H6.959v0.143h0.048v0.572H6.792v0.143H6.84v1.358h1.073v-1.358H7.96v-0.143H7.746
		V9.511z M7.007,9.416h0.739v0.048H7.007V9.416z M7.055,9.511h0.643v0.572H7.055V9.511z M7.865,11.537H6.888v-1.311h0.977V11.537z
		 M7.913,10.131v0.048H6.84v-0.048h0.167h0.739H7.913z"/>
	<path fill="#DEE4EB" d="M7.15,9.988h0.119V9.821H7.15V9.988z M7.197,9.869h0.024V9.94H7.197V9.869z"/>
	<path fill="#DEE4EB" d="M7.316,9.988h0.12V9.821h-0.12V9.988z M7.364,9.869h0.024V9.94H7.364V9.869z"/>
	<path fill="#DEE4EB" d="M7.483,9.988h0.119V9.821H7.483V9.988z M7.531,9.869h0.024V9.94H7.531V9.869z"/>
	<path fill="#DEE4EB" d="M5.625,10.441H5.61l-0.136-0.136c-0.005-0.005-0.01-0.007-0.017-0.007H5.243v-0.071
		c0-0.041-0.031-0.072-0.071-0.072H5.1v-0.071c0-0.014-0.009-0.024-0.024-0.024H4.743c-0.014,0-0.024,0.01-0.024,0.024v0.071H4.647
		c-0.041,0-0.072,0.031-0.072,0.072v0.071H4.361c-0.007,0-0.012,0.002-0.017,0.007l-0.136,0.136H4.194
		c-0.026,0-0.047,0.021-0.047,0.048v0.047c0,0.026,0.021,0.048,0.047,0.048v0.143H3.003v0.144h0.048v0.715h1.167h0.024h1.358
		c0.015,0,0.024-0.01,0.024-0.024v-0.977c0.026,0,0.048-0.021,0.048-0.048v-0.047C5.672,10.462,5.651,10.441,5.625,10.441z
		 M4.767,10.107h0.286v0.047H4.767V10.107z M4.624,10.227c0-0.015,0.01-0.024,0.024-0.024h0.095h0.333h0.096
		c0.014,0,0.023,0.009,0.023,0.024v0.071H4.624V10.227z M4.371,10.346h1.077l0.095,0.095H4.275L4.371,10.346z M3.051,10.774h1.144
		v0.048H3.051V10.774z M3.098,10.87h1.096v0.667H3.098V10.87z M5.577,11.537H4.242V10.87v-0.048v-0.096v-0.143h1.334V11.537z
		 M5.601,10.536H4.218H4.194v-0.047h1.43v0.047H5.601z"/>
	<path fill="#DEE4EB" d="M4.361,10.822h0.286c0.014,0,0.024-0.01,0.024-0.023v-0.096c0-0.014-0.01-0.023-0.024-0.023H4.361
		c-0.014,0-0.024,0.01-0.024,0.023v0.096C4.337,10.811,4.35,10.822,4.361,10.822z M4.385,10.727h0.238v0.048H4.385V10.727z"/>
	<path fill="#DEE4EB" d="M4.767,10.822h0.286c0.014,0,0.023-0.01,0.023-0.023v-0.096c0-0.014-0.009-0.023-0.023-0.023H4.767
		c-0.014,0-0.024,0.01-0.024,0.023v0.096C4.743,10.811,4.755,10.822,4.767,10.822z M4.791,10.727h0.238v0.048H4.791V10.727z"/>
	<path fill="#DEE4EB" d="M5.172,10.822h0.286c0.015,0,0.024-0.01,0.024-0.023v-0.096c0-0.014-0.009-0.023-0.024-0.023H5.172
		c-0.015,0-0.024,0.01-0.024,0.023v0.096C5.148,10.811,5.16,10.822,5.172,10.822z M5.195,10.727h0.239v0.048H5.195V10.727z"/>
	<path fill="#DEE4EB" d="M4.361,11.013h0.286c0.014,0,0.024-0.009,0.024-0.023v-0.096c0-0.015-0.01-0.023-0.024-0.023H4.361
		c-0.014,0-0.024,0.009-0.024,0.023v0.096C4.337,11.001,4.35,11.013,4.361,11.013z M4.385,10.918h0.238v0.047H4.385V10.918z"/>
	<path fill="#DEE4EB" d="M4.767,11.013h0.286c0.014,0,0.023-0.009,0.023-0.023v-0.096c0-0.015-0.009-0.023-0.023-0.023H4.767
		c-0.014,0-0.024,0.009-0.024,0.023v0.096C4.743,11.001,4.755,11.013,4.767,11.013z M4.791,10.918h0.238v0.047H4.791V10.918z"/>
	<path fill="#DEE4EB" d="M5.172,11.013h0.286c0.015,0,0.024-0.009,0.024-0.023v-0.096c0-0.015-0.009-0.023-0.024-0.023H5.172
		c-0.015,0-0.024,0.009-0.024,0.023v0.096C5.148,11.001,5.16,11.013,5.172,11.013z M5.195,10.918h0.239v0.047H5.195V10.918z"/>
	<path fill="#DEE4EB" d="M4.361,11.203h0.286c0.014,0,0.024-0.01,0.024-0.023v-0.096c0-0.014-0.01-0.023-0.024-0.023H4.361
		c-0.014,0-0.024,0.01-0.024,0.023v0.096C4.337,11.191,4.35,11.203,4.361,11.203z M4.385,11.108h0.238v0.048H4.385V11.108z"/>
	<path fill="#DEE4EB" d="M4.767,11.203h0.286c0.014,0,0.023-0.01,0.023-0.023v-0.096c0-0.014-0.009-0.023-0.023-0.023H4.767
		c-0.014,0-0.024,0.01-0.024,0.023v0.096C4.743,11.191,4.755,11.203,4.767,11.203z M4.791,11.108h0.238v0.048H4.791V11.108z"/>
	<path fill="#DEE4EB" d="M5.172,11.203h0.286c0.015,0,0.024-0.01,0.024-0.023v-0.096c0-0.014-0.009-0.023-0.024-0.023H5.172
		c-0.015,0-0.024,0.01-0.024,0.023v0.096C5.148,11.191,5.16,11.203,5.172,11.203z M5.195,11.108h0.239v0.048H5.195V11.108z"/>
	<path fill="#DEE4EB" d="M4.361,11.395h0.286c0.014,0,0.024-0.01,0.024-0.023v-0.096c0-0.015-0.01-0.024-0.024-0.024H4.361
		c-0.014,0-0.024,0.01-0.024,0.024v0.096C4.337,11.383,4.35,11.395,4.361,11.395z M4.385,11.299h0.238v0.048H4.385V11.299z"/>
	<path fill="#DEE4EB" d="M4.767,11.395h0.286c0.014,0,0.023-0.01,0.023-0.023v-0.096c0-0.015-0.009-0.024-0.023-0.024H4.767
		c-0.014,0-0.024,0.01-0.024,0.024v0.096C4.743,11.383,4.755,11.395,4.767,11.395z M4.791,11.299h0.238v0.048H4.791V11.299z"/>
	<path fill="#DEE4EB" d="M5.172,11.395h0.286c0.015,0,0.024-0.01,0.024-0.023v-0.096c0-0.015-0.009-0.024-0.024-0.024H5.172
		c-0.015,0-0.024,0.01-0.024,0.024v0.096C5.148,11.383,5.16,11.395,5.172,11.395z M5.195,11.299h0.239v0.048H5.195V11.299z"/>
	<path fill="#DEE4EB" d="M2.374,10.731l-0.117-0.124c-0.009-0.01-0.026-0.01-0.036,0l-0.119,0.127
		c-0.007,0.007-0.007,0.017-0.005,0.025c0.005,0.01,0.012,0.015,0.021,0.015h0.241l0,0c0.014,0,0.024-0.009,0.024-0.023
		C2.383,10.744,2.381,10.736,2.374,10.731z M2.178,10.727l0.064-0.066l0.064,0.066H2.178z"/>
	<path fill="#DEE4EB" d="M2.884,10.918H2.822l-0.565-0.565c-0.009-0.009-0.024-0.009-0.033,0l-0.565,0.565H1.597
		c-0.014,0-0.024,0.012-0.024,0.023v0.096c0,0.014,0.01,0.023,0.024,0.023h0.048v0.381H1.597c-0.014,0-0.024,0.01-0.024,0.024v0.095
		c0,0.015,0.01,0.024,0.024,0.024h1.287c0.014,0,0.024-0.01,0.024-0.024v-0.095c0-0.015-0.01-0.024-0.024-0.024H2.836v-0.381h0.048
		c0.014,0,0.024-0.01,0.024-0.023v-0.096C2.908,10.93,2.898,10.918,2.884,10.918z M2.24,10.403l0.515,0.515H1.726L2.24,10.403z
		 M1.692,11.061h0.095v0.381H1.692V11.061z M2.55,11.441v-0.381h0.095v0.381H2.55z M2.407,11.441v-0.381h0.095v0.381H2.407z
		 M2.264,11.441v-0.381h0.095v0.381H2.264z M2.121,11.441v-0.381h0.095v0.381H2.121z M1.978,11.441v-0.381h0.095v0.381H1.978z
		 M1.835,11.441v-0.381h0.096v0.381H1.835z M2.86,11.49v0.047H1.621V11.49h0.024h1.191H2.86z M2.789,11.441H2.693v-0.381h0.096
		V11.441z M2.86,11.013H2.836l0,0H1.645l0,0H1.621v-0.048h0.048h1.144H2.86V11.013z"/>
	<rect x="0.333" y="11.061" fill="#DEE4EB" width="0.048" height="0.143"/>
	<rect x="0.429" y="11.061" fill="#DEE4EB" width="0.047" height="0.143"/>
	<rect x="0.524" y="11.061" fill="#DEE4EB" width="0.047" height="0.143"/>
	<rect x="0.62" y="11.061" fill="#DEE4EB" width="0.048" height="0.143"/>
	<rect x="0.715" y="11.061" fill="#DEE4EB" width="0.048" height="0.143"/>
	<rect x="0.811" y="11.061" fill="#DEE4EB" width="0.047" height="0.143"/>
	<rect x="0.906" y="11.061" fill="#DEE4EB" width="0.047" height="0.143"/>
	<rect x="1.001" y="11.061" fill="#DEE4EB" width="0.048" height="0.143"/>
	<rect x="1.096" y="11.061" fill="#DEE4EB" width="0.048" height="0.143"/>
	<rect x="1.191" y="11.061" fill="#DEE4EB" width="0.048" height="0.143"/>
	<rect x="0.333" y="11.251" fill="#DEE4EB" width="0.048" height="0.144"/>
	<rect x="0.429" y="11.251" fill="#DEE4EB" width="0.047" height="0.144"/>
	<rect x="0.524" y="11.251" fill="#DEE4EB" width="0.047" height="0.144"/>
	<rect x="0.62" y="11.251" fill="#DEE4EB" width="0.048" height="0.144"/>
	<rect x="0.715" y="11.251" fill="#DEE4EB" width="0.048" height="0.144"/>
	<rect x="0.811" y="11.251" fill="#DEE4EB" width="0.047" height="0.144"/>
	<rect x="0.906" y="11.251" fill="#DEE4EB" width="0.047" height="0.144"/>
	<rect x="1.001" y="11.251" fill="#DEE4EB" width="0.048" height="0.144"/>
	<rect x="1.096" y="11.251" fill="#DEE4EB" width="0.048" height="0.144"/>
	<rect x="1.191" y="11.251" fill="#DEE4EB" width="0.048" height="0.144"/>
</g>
</svg>
