<?xml version="1.0" encoding="utf-8"?>
<!-- Generator: Adobe Illustrator 19.2.0, SVG Export Plug-In . SVG Version: 6.00 Build 0)  -->
<svg version="1.1" id="Layer_1" xmlns="http://www.w3.org/2000/svg" xmlns:xlink="http://www.w3.org/1999/xlink" x="0px" y="0px"
	 width="230px" height="230px" viewBox="0 0 230 230" style="enable-background:new 0 0 230 230;" xml:space="preserve">
<style type="text/css">
	.st0{fill:#2DAEBF;}
	.st1{fill:#FEFEFE;}
	.st2{fill:none;stroke:#CBC9CA;stroke-width:0;stroke-linecap:round;stroke-linejoin:round;}
	.st3{fill:#C6C3C4;}
	.st4{fill:#C6C8DC;}
	.st5{fill:#B6B4B3;}
	.st6{fill:none;stroke:#FDFD03;stroke-width:0;stroke-linecap:round;stroke-linejoin:round;}
	.st7{fill:#090A07;}
	.st8{fill:#C0BEBD;}
	.st9{fill:#010000;}
	.st10{fill:#040702;}
	.st11{fill:#FCFCFA;}
	.st12{fill:#F9F9F3;}
	.st13{fill:#FBFBF7;}
	.st14{fill:#F7F6ED;}
	.st15{fill:#F4F3F0;}
	.st16{fill:none;stroke:#FAF2C2;stroke-width:0;stroke-linecap:round;stroke-linejoin:round;}
	.st17{fill:#F8F8F6;}
	.st18{fill:#FEFCE5;}
	.st19{fill:none;stroke:#FCF007;stroke-width:0;stroke-linecap:round;stroke-linejoin:round;}
</style>
<g>
	<g>
		<path class="st0" d="M208.5,129.5c0.3-0.2,0.5-0.7,0.9-0.7c1.8-4.5,3.9-9.4,4-16.1c0-0.6,0-1.9-0.1-2.6
			c-0.4-4.9-1.5-12.5-1.1-15.3c-0.1-0.9-0.4-0.8-0.5-1.7c0.4-0.7,0.7-3.6,0-5.8c-0.3-0.8-1.4-1.9-2.1-3.5c-0.5-1.2-0.8-2.5-1-3.7
			c-0.3-1.2-0.5-2.5-1.1-3.5c-0.5-1-1.6-1.7-2.2-2.7c-0.8-1.3-1.8-3.2-2.8-5.1c-1-1.9-1.9-3.8-2.4-4.9c-0.9-1.7-0.8-2.7-1.7-3.8
			c-0.8-1.1-1.9-1.5-2.6-0.9c-1-0.5-1.9-1.4-2.9-2.6c-1-1.1-2.1-2.5-3.2-3.9c-1.1-1.4-2.3-2.8-3.5-4.2c-1.2-1.3-2.4-2.5-3.6-3.4
			c-1.2-1.8-2.8-3.1-4.5-4.3c-1.7-1.2-3.3-2.4-4.9-3.6c-0.6-0.5-1.2-1.3-1.9-1.8c-1.1-0.9-2.8-1.6-4.4-2.5c-1.3-0.8-2.5-1.5-3.7-2.2
			c-1.2-0.7-2.3-1.3-3.5-1.8c-2.8-3-5.9-3-8.8-4.5c-1.1-0.5-2-1.3-3.3-1.9c-1-0.5-2.2-0.5-3.4-1c-1.2-0.4-2.2-1.3-3.4-1.7
			c-0.9-0.3-1.6-0.3-2.3-0.5c-0.9-0.3-1.4-0.8-2.4-1c-1-0.2-2.2-0.1-3.3-0.3c-3.8-0.8-7.9-2.1-11.7-1.8c-3.3-0.8-6.4-1-9.7-1.1
			c-3.3-0.1-6.7,0-10.7-0.2c-2,0.3-3.4,0.7-5.5,0.6c-0.4,0.1-0.4,0.4-1.1,0.5c-4.1,0.2-8.2,1.8-12.4,2.4c-0.1,0.2-0.3,0.3-0.5,0.5
			c-1.5,0.2-3,0.5-4.5,0.9c-1.5,0.3-3.1,0.8-4.6,1.3c-0.7,0.3-1.5,0.5-2.2,0.8c-0.7,0.3-1.4,0.6-2,0.9c-1.3,0.6-2.5,1.2-3.4,1.8
			c-1.7,0.5-3.5,1.2-5.2,2.3c-0.9,0.5-1.8,1-2.7,1.6c-0.9,0.6-1.8,1.1-2.7,1.7c-1.8,1-3.6,1.8-5.2,3c-1.5,1.1-3.3,2.4-5,3.6
			c-1.7,1.3-3.4,2.5-4.8,3.8c-0.8,0.7-1.4,1.7-2.1,2.4c-1.3,1.3-3,2.5-4.4,4.1c-2.5,3-5.3,6.1-7.8,9.4c-0.6,0.8-1.3,1.6-1.9,2.4
			c-0.6,0.8-1.2,1.6-1.7,2.4c-1.2,1.5-2.1,3.1-3.1,4.5c-0.6,0.9-1,1.8-1.4,2.7c-0.4,0.9-0.8,1.9-1.3,3c-0.8,1.8-1.8,3.5-2.7,5.3
			c-0.9,1.8-1.9,3.5-2.5,5.4c-0.3,0.9-0.4,1.9-0.7,2.8c-0.4,1.1-0.7,2.2-1.1,3.3C8,89,7.6,90,7.2,91.2c-1.7,5.8-2.2,11.9-3.3,17.4
			c0,0.9,0,1.9-0.1,2.9c0,1,0,2,0,3.1c-0.1,2.1,0,4.4,0,6.7c0.2,4.6,0.4,9.3,1.1,13.5c0.9,1.8,0.7,3.6,1.1,5.5
			c2.1,9.4,5.4,17.7,9.9,26.2c4.5,8.5,10.6,19.4,18.9,24.9c9.4,9.3,20.8,16.6,32.8,20.9c0.8,0.6,2,1.1,3.2,1.5
			c1.2,0.4,2.4,0.7,3.3,0.8c0.3,0.4,1.4,0.7,2.2,1.1c1.3,0.1,2.6,0.4,4,0.8c0.1,0.1,0.3,0.1,0.4,0.1c0.1,0,0.1,0,0.2,0
			c2,0.5,4.1,1.2,6.3,1.5c0.4-0.2,1-0.2,1.6-0.1c1.1,0.2,2.2,0.4,3.3,0.5c-0.2,0.1-0.4,0.1,0.2,0.3c0.3-0.1,0.6-0.2,1-0.2
			c0.6,0,1.1,0,1.7,0c3.1,0.8,6.1,1,9.3,1.1c3.2,0.1,6.4,0,10.3,0.2c1.9-0.3,3.2-0.7,5.2-0.6c0.4-0.1,0.4-0.4,1.1-0.5
			c4-0.2,7.9-1.8,11.9-2.3c0.1-0.2,0.2-0.3,0.5-0.5c0.3,0,0.6-0.1,0.8-0.1c-0.1,0.1-0.2,0.1-0.2,0.2c0.3,0,1.4-0.2,1.7-0.4
			c0.7-0.1,1.3-0.3,2-0.4c1.5-0.3,3-0.8,4.4-1.3c0.7-0.2,1.4-0.5,2.1-0.7c0.7-0.3,1.3-0.6,1.9-0.9c1.2-0.6,2.4-1.1,3.3-1.8
			c1.7-0.4,3.4-1.2,5-2.2c0.8-0.5,1.7-1,2.6-1.5c0.9-0.5,1.7-1.1,2.6-1.6c1.7-1,3.5-1.8,5-2.9c1.4-1.1,3.1-2.3,4.8-3.5
			c1.6-1.3,3.3-2.4,4.6-3.6c0.8-0.7,1.3-1.6,2-2.3c1.3-1.3,2.9-2.4,4.2-3.9c2.4-2.9,5.1-5.9,7.5-9c0.6-0.8,1.2-1.5,1.8-2.3
			c0.6-0.8,1.1-1.5,1.7-2.3c1.1-1.5,2-3,2.9-4.4c1.1-1.7,1.6-3.4,2.6-5.5c0.8-1.7,1.7-3.4,2.6-5c0.9-1.7,1.8-3.4,2.4-5.2
			c0.3-0.9,0.4-1.8,0.7-2.7c0.4-1.1,0.7-2.1,1.1-3.1c0.4-1,0.8-2.1,1.1-3.2c1.3-4.7,1.9-9.6,2.7-14.2
			C207.7,131.5,208.1,130.6,208.5,129.5z M36.5,81C36.5,81,36.5,81,36.5,81C36.5,81,36.5,81,36.5,81z"/>
		<line class="st0" x1="65.6" y1="49.8" x2="65.6" y2="49.8"/>
	</g>
	<g>
		<path class="st1" d="M177.3,174.4c0,0-0.1,0-0.1,0C177.2,174.3,177.2,174.3,177.3,174.4C177.3,174.4,177.3,174.4,177.3,174.4z"/>
		<path class="st1" d="M179.6,174.8c-0.5-0.1-1-0.2-1.4-0.3C178.7,174.6,179.2,174.7,179.6,174.8z"/>
		<polygon class="st1" points="107.1,42.2 107.1,42.3 107.1,42.2 		"/>
		<path class="st1" d="M151.2,61.4C151.2,61.4,151.2,61.3,151.2,61.4C151.2,61.3,151.2,61.4,151.2,61.4
			C151.2,61.4,151.2,61.4,151.2,61.4z"/>
		<path class="st1" d="M108.5,41.8C108.5,41.8,108.5,41.8,108.5,41.8C108.5,41.8,108.5,41.8,108.5,41.8
			C108.5,41.8,108.5,41.8,108.5,41.8z"/>
		<path class="st1" d="M46.8,49.8C46.8,49.8,46.8,49.8,46.8,49.8C46.8,49.8,46.8,49.8,46.8,49.8C46.8,49.8,46.8,49.8,46.8,49.8z"/>
		<path d="M170,145.3C170,145.3,170,145.3,170,145.3C170,145.3,170,145.3,170,145.3C170,145.3,170,145.3,170,145.3z"/>
		<path d="M33.3,173.6c0-0.4,0.1-0.8,0.1-1.3C33.3,172.7,33.3,173.2,33.3,173.6z"/>
		<path class="st2" d="M178.2,174.5c-0.3-0.1-0.6-0.1-0.9-0.2"/>
		<path class="st3" d="M177.2,174.4C177.2,174.3,177.2,174.3,177.2,174.4c-3.1-0.7-6.3-1.2-9.4-1.8c-0.2,0-0.4-0.1-0.6,0.1
			c-0.2,0.3,0.1,0.3,0.3,0.4c0.7-0.1,1.3,0,2,0.1c2.2,0.4,4.5,0.8,6.7,1.2l0,0c1.2,0.2,2.5,0.4,3.7,0.7
			C179.1,174.8,178.1,174.5,177.2,174.4z"/>
		<path class="st4" d="M227.1,52.3c-0.2-1.3-0.5-2.5-0.8-3.8c-0.1-0.6-0.5-0.9-1-1.1c-0.9-0.4-1.9-0.7-2.8-1.1
			c0.2,0.8-0.2,1.4-0.4,2.1c-2.3,9.6-3.7,19.4-5.4,29.1c-0.3,1.8-0.4,3.6-1.2,5.2c-0.6,1.2-0.9,2.5-1.1,3.9c-1.1,6-2.1,12-3.2,18
			c-0.4,2.5-0.6,5.1-1.4,7.4c-1.6,5-2,10.3-4.4,15.1c-0.4,0.5-0.4,1.1-0.5,1.6c-0.2,1.1-0.3,2.3-0.6,3.3c-1.5,4.6-2.7,9.2-3.2,14
			c-0.1,0.1-0.2,0.2-0.2,0.3c-1.5,7.5-2.8,15-3.9,22.6c0,0.2,0,0.3,0,0.5c0.3,1.4-0.4,2.3-1.4,3.2c-0.5,0.5-1.2,0.8-1.7,1.3
			c-0.6,0.5-1.3,0.6-2.1,0.4c-4.2-1.1-8.4-2.4-12.7-3.1c-4.6-0.8-9.3-1.7-13.9-2.5c-0.9-0.2-1.4,0.2-1.6,1.1
			c-0.3,1.8-0.9,3.6-0.8,5.5c0.1,3.3-0.5,6.5-1,9.8c-0.3,1.5-0.8,2.8-1.6,4c-0.6,0.9-1.3,1.3-2.4,1.1c-2-0.3-4-0.8-6-0.8
			c-4,0-7.9-0.8-11.8-1.1c-2.7-0.2-5.3-0.7-8-0.8c-5.2-0.1-10.3-0.2-15.5-0.8c-1.2-0.2-2.5-0.5-3.6-0.3c-2,0.3-4,0.2-6-0.2
			c-2.7-0.5-5.3-0.7-8-0.8c-3.5-0.1-6.9-0.2-10.3-0.9c-4.6-1-9.3-1-13.9-1.4c-7.3-0.6-14.5-1.1-21.6-2.6c-1.6-0.3-3.3-0.9-5-0.8
			c-2.1,0.1-4.2-0.3-6.2-1.1c-2-0.7-3.9-1.5-6-1.7c0.3,0.7,0.5,1.3,0.5,2.1c0,0.9,0.1,1.9,0.9,2.4c1.2,0.8,2.5,1.6,3.9,1.9
			c3.1,0.7,6.2,0.3,9.3,0.6c4.9,0.6,9.8,1,14.7,1.7c5.5,0.8,11,1.4,16.5,2.1c3.2,0.4,6.4,0.2,9.6,0.5c3,0.2,5.9,0,8.9,0.7
			c0.5,0.1,1.1,0.3,1.6,0.2c4.5-0.4,8.9,1.2,13.4,0.9c3.2-0.2,6.2,1.1,9.4,0.9c0.6,0,1.3,0,1.9,0.1c3.4,0.4,6.8,0.9,10.2,1.3
			c1.8,0.2,3.6,0.2,5.4,0.3c2.9,0.2,5.8,0.4,8.6,1.4c1.7,0.6,3.5,1.2,5.4,1c2.2-0.2,4.5-0.1,6.4-1.4c-0.3-0.8,0.5-0.6,0.8-1.1
			c0.1,0.6-0.4,0.6-0.5,0.9c1.4,0.1,1.7-1,1.9-1.9c0.4-1.8,0.6-3.5,0.8-5.3c0.5-4,1.2-7.9,1.8-11.9c0.1-0.5,0.1-0.9,0.5-1.3
			c-0.2-0.1-0.5-0.1-0.3-0.4c0.1-0.2,0.4-0.1,0.6-0.1c3.1,0.6,6.2,1.1,9.3,1.8c0,0,0.1,0,0.1,0c0,0,0,0-0.1,0
			c0.9,0.2,1.8,0.4,2.7,0.6c-1.2-0.2-2.5-0.4-3.7-0.7l0,0c2.5,0.9,5.3,1.2,7.8,2.1c2.3,0.8,4.8,0.9,7.3,1.4c1,0.2,2,0,2.9-0.5
			c1.3-0.7,2.6-1.5,3.9-2.2c0.7-0.3,0.9-1,1.1-1.6l0,0c0.5-0.6,0.8-1.4,0.8-2.2c0-2.9,1.1-5.5,2.1-8.1c0.5-1.2,0.8-2.5,0.6-3.8l0,0
			c0,0,0,0,0,0c0.2-1.1,0.4-2.2,0.7-3.3c0.8-2.8,1.9-5.5,2.6-8.4c1.1-4.6,2.3-9.2,3-13.9c0.1-0.4,0.2-0.7,0.2-1.1
			c0.8-3.8,1.7-7.6,2.5-11.4c0.4-1.7,0.6-3.4,1-5.1c1-4.2,1.9-8.3,3.2-12.4c0.5-1.7,0.8-3.5,1.4-5.2c1.1-3.1,1.7-6.3,2-9.6
			c0.2-2.4,0.6-4.8,1.3-7.2c0.8-2.9,1.7-5.8,2.4-8.7c0.6-2.8,1.1-5.7,1.6-8.6c0.5-0.7,0.8-1.5,0.9-2.4c0.4-2.2,0.7-4.4,1.2-6.6
			C226.9,54.5,227.4,53.5,227.1,52.3z M157.3,194.2c0.3-0.1,0.5-0.1,0.9,0.1C157.8,194.4,157.6,194.4,157.3,194.2z M178.2,174.5
			c0.5,0.1,1,0.2,1.4,0.3C179.2,174.7,178.7,174.6,178.2,174.5z"/>
		<path class="st5" d="M163.1,192.5c-0.3,0.4-1.1,0.3-0.8,1.1c0.1-0.1,0.2-0.1,0.3-0.2C162.7,193.1,163.2,193.1,163.1,192.5z"/>
		<path class="st1" d="M160,64.7c-0.5-0.1-1-0.2-1.4-0.3c-0.7-0.2-1.3-0.3-2-0.4c-9.6-1.7-19.2-2.6-28.9-3.6c-5.5-0.6-11-1.1-16.5-2
			c0,0,0,0,0,0c0,0,0,0,0,0l-0.1,0l-0.1-0.1c0,0,0,0-0.1,0c0,0,0,0,0,0c-1.6,0-3.1-0.3-4.7-0.6c0,0,0,0,0,0c0,0,0,0,0,0c0,0,0,0,0,0
			l0,0c0,0,0,0,0,0c0,0-0.1,0-0.1,0c0,0,0,0,0,0c-0.8,0-1.6,0.1-2.4,0c-5.1-0.7-10.3-0.5-15.4-1c-4.8-0.5-9.6-0.9-14.5-1.4
			c0,0,0,0,0,0c0,0,0,0,0,0l0,0l0,0c0,0,0,0,0,0c-1.8-0.1-3.6-0.2-5.5-0.4c-4.3-0.3-8.5-0.7-12.7-1.1c0,0,0,0,0,0
			c-2-0.1-4-0.2-6-0.3c-1.1-0.1-2.2-0.2-3.4-0.3c0,0,0,0-0.1,0c0,0,0,0,0,0c-0.4,0.2-0.4,0.7-0.4,1.1c-0.1,0.9-0.1,1.8-0.2,2.8
			c-0.4,4.3-1,8.6-1.2,12.9C44,79.7,43,89.2,42,98.8c-0.6,5.6-1.3,11.3-1.6,17c-0.3,6.2-0.6,12.4-0.9,18.6
			c-0.4,7.8-0.5,15.6-0.6,23.4c-0.1,4.6,0.2,9.2-0.4,13.7c-0.2,1.6-0.1,1.7,1.5,2c5.3,0.9,10.5,1.7,15.9,2.3
			c10.9,1.2,21.7,2.8,32.6,3.8c11.5,1.1,23,1.8,34.5,2.6c10.6,0.8,21.2,1.3,31.8,2.4c1.1,0.1,1.6-0.3,1.9-1.4
			c0.8-3.4,1.4-6.9,1.8-10.4c0.1-0.5,0.1-1,0.2-1.5l0,0l0,0c0-1,0-2,0.1-3.1c0.1-2.1,0.3-4.2,0.4-6.3c0.5-6.2,1-12.5,1.6-18.7
			c0.6-6.3,1.2-12.6,1.8-18.9c0.4-5,0.3-10.1,1-15.1c1.1-8,0.9-16.1,1.5-24.1c0.3-4.4,0.8-8.9,1.2-13.3c0.1-1.6,0.2-3.2,0.3-4.8
			c0.1-1.7-0.2-1.9-1.9-2.1c-0.1,0-0.1,0-0.2,0c-0.2,0-0.4-0.1-0.5-0.1c-0.4,0-0.8,0.1-1.2,0.1v0C161.7,65,160.8,64.9,160,64.7z
			 M96.2,129.2c4.3-2.1,8.4-4.4,12.6-6.6c2.1-1.6,4.2-3.1,6.4-4.5c0,0,0,0,0,0c1.3-1.4,2.8-2.5,4.4-3.4c0.1-0.1,0.2-0.1,0.3-0.2
			c1.6-1.6,3.2-3.2,4.8-4.8c1.6-1.6,3.1-3.3,4.7-5c-2.2,0.1-4.2,0.4-6.1,1c-0.9,0.3-1.9,0.6-2.6-0.5c-0.1-0.2-0.3-0.4-0.4-0.6
			c-0.9-1.6-0.4-2.7,1.5-3c2.7-0.4,5.4-0.8,8.1-1.2c1.4-0.2,2.8-0.2,4.1-0.6c3.2-0.9,5.4,1,4.2,4.5c-0.8,2.4-0.6,4.8-0.8,7.2
			c-0.1,1.5-0.1,3.1-0.2,4.7c-0.1,1.8-0.6,2.3-1.7,2.3c-1.1,0-2.1-1.3-2.1-2.6c0-0.2,0-0.3,0-0.5c0.8-2.3,0.5-4.7,0.7-7
			c0-0.4,0.3-1-0.2-1.3c-0.5-0.3-0.8,0.2-1.2,0.6c-2.3,2.3-4.5,4.6-6.8,6.9c-6.4,6.4-13.9,11.2-21.9,15.4
			c-5.2,2.7-10.4,5.5-16.2,6.7c-4.4,0.9-8.9,1.6-13.4,1.8c-1.4,0.1-2.5-0.5-3.3-1.6c-0.8-1.2-0.5-2,0.9-2.2c2.9-0.3,5.8-0.4,8.6-0.7
			C86,133.3,91.2,131.6,96.2,129.2z M65.2,76.3c1.7,0,2.4,0.6,2.4,1.9c0,3.9,0.2,7.7-0.4,11.6c-0.5,3.3-0.1,6.4-0.3,9.6
			c-0.2,3.8-0.5,7.7-0.9,11.5c-0.9,8.6-2.4,17.1-3.2,25.7c-0.4,4-0.6,8-0.7,12.1c-0.1,1.6-0.2,3.2-1.4,4.7c3,0.3,5.7,0.5,8.4,0.8
			c0.7,0.1,1.6,0.4,2.1,0.1c0.6-0.4-0.1-1.3,0-2c0.5-2.2,0-4.4,0.2-6.5c0.1-0.5,0.1-1.1,0.2-1.6c0.3-1.7,1-2.3,2.7-2.1
			c2.9,0.4,5.8,0.7,8.7,0.6c4-0.2,7.9,0.8,11.8,0.6c1-0.1,1.9-0.2,2.9-0.2c2.5-0.2,3.9,1.3,3.3,3.8c-0.4,1.6-0.7,3.2-0.7,4.9
			c0,1.3-0.3,2.7,0.3,3.7c0.6,1.2,2.3,0.5,3.5,0.8c0.9,0.2,1.8,0.2,2.7,0.4c0.9,0.2,1.3-0.2,1.3-1.1c-0.2-3.5,0-7,0.2-10.4
			c0.1-3.3,0.3-6.5,0.2-9.8c-0.1-1.8,0.7-2.7,2.3-2.3c4,0.9,8,0.4,11.9,0.6c3.3,0.2,6.6,0.2,9.9,0.4c3,0.2,3.1,1,2.8,3.3
			c-0.2,1.2,0,2.3,0.3,3.4c0.8,2.9,0.4,5.8,0.5,8.6c0.1,2.6-0.1,5.3-0.2,7.9c0,0.6,0,1.2,0.1,1.9c0.3,1.5-0.5,2.3-1.9,2.9
			c-2.6,1-5,0-7.5-0.1c-5.2-0.4-10.3-0.6-15.5-0.8c-4-0.1-8.1-0.6-12.1-1c-3.9-0.4-7.7-0.2-11.6-0.6c-8.6-0.9-17.2-0.6-25.8-1.9
			c-0.6-0.1-1.2,0-1.8,0.2c-2.1,0.9-3.2,0.2-3.2-2c-0.1-3.5,0-7,0-10.4c0-10.4,1.4-20.7,2.6-31c0.4-3.8,1.2-7.6,1.9-11.3
			c1.1-6.5,1.3-13.1,1.8-19.6c0.1-1.7,0.2-3.4,0.3-5.2C63.4,76.5,63.7,76.3,65.2,76.3z"/>
		<path class="st1" d="M95.7,25.1c-1,3.2-1.9,6.4-2.2,9.7c-0.3,2.6-0.6,5.3-1.4,7.8c-1,2.9-1.6,5.8-1.9,8.8
			c-0.1,1.3,0.1,1.6,1.4,1.6c2.5,0,5,0,7.5,0.3c1.9,0.2,2.2,0,2.5-1.9c0.4-2.7,0.4-5.4,1.3-8.1c0.7-2.1,1.3-4.3,2-6.4
			c0.4-1.2,1-1.3,2-0.7c0.7,0.4,1.4,0.7,2.1,0.8c11.1,1.8,22.1,3.6,32.9,6.4c4.2,1.1,8.4,1.7,12.5,2.9c3.6,1.1,7.1,2.3,10.7,3.3
			c4.7,1.3,9.5,2.4,14.2,4c4.3,1.4,8.6,2.8,12.9,4.2c1.9,0.6,3.9,1.2,5.8,1.8c0.8,0.3,1.8,0.6,1.6,1.6c-0.3,1.4-0.4,2.9-0.8,4.3
			c-0.1,0.2-0.1,0.3-0.2,0.5c0.1,0.9-0.1,1.8-0.2,2.6c-0.5,3.3-1.8,6.5-2.5,9.8c-1.2,5.3-2.1,10.7-3.2,16.1c-2,9.9-4.6,19.7-6,29.7
			c-0.6,4.4-2,8.6-2.3,13c-0.2,2.6-0.4,5.1-0.4,7.7c-0.1,4.2-2.5,6.4-6.7,5.8c-2-0.3-4.1-0.6-6.1-0.8c-0.3,0-0.6,0-0.8,0.1
			c-0.8,0.4-0.7,1.5-0.8,2.1c-0.4,1.7-0.5,3.5-0.6,5.2c-0.1,1-0.1,2-0.5,3c-0.4,1-0.2,1.5,0.8,1.8c0.2,0.1,0.5,0.1,0.7,0.3
			c0.2,0.1,0.4,0.2,0.5,0.4c0.8,0.5,1.8,0.5,2.7,0.7c3.5,0.8,7.1,1,10.5,2.1c2,0.6,4.1,1.2,6.3,1.4c1.7,0.2,2.2-0.2,2.5-1.9
			c0.8-5.4,1.5-10.8,2.5-16.2c1.8-10.1,4-20,6.2-30c2.6-12,5.4-23.9,7.5-36c0.4-2.5,0.9-5,1.5-7.4c1.5-6.5,3-13,4.6-19.5
			c0.5-2.3,1-4.6,1.5-6.9c0.1-0.7,0.3-1.4-0.7-1.7c-3.6-1-7.2-2.2-11-2.8c-2.8-0.4-5.5-1.1-8.3-1.7c-12-2.8-23.9-5.5-36.1-7.5
			c-8.9-1.4-17.6-3.9-26.4-5.8c-9.1-1.9-18.2-3.6-27.3-5.2c-3.3-0.6-6.7-0.2-10-1.2c0,0.1-0.1,0.3-0.1,0.4
			C96,24.3,95.8,24.7,95.7,25.1z"/>
		<path class="st1" d="M189.6,73.7c0,0-0.1,0.2-0.1,0.3c0,0.1-0.1,0.2-0.1,0.2c0.1,0.1,0.3,0.2,0.4,0.3c1.2,0.7,1.5,1.7,0.8,2.9
			c-0.7,1.3-1.5,1.6-2.8,0.9c-2.2-1.2-4.5-2-6.9-2.7c-3.1-1-2.9-2-4.1,2.2c0,0.4-0.1,0.9-0.1,1.3c-0.1,0.4-0.2,0.9-0.4,1.3
			c-0.1,0.1-0.2,0.3-0.1,0.3c0.8,1.3-0.1,2.9,0.5,4.2c0.4,0.9,0.5,1.8,0.5,2.8c0,0,0,0,0,0l0,0c-0.2,1-0.3,2-0.5,3
			c0.3,0.8,0.1,1.7,0.1,2.5c0,0.6,0.1,1.1,0.4,1.3c0.2,0.1,0.4,0.2,0.7,0.2c0.2,0,0.5,0.1,0.6,0.4c2.9,1.1,6.1,1.3,8.9,2.6
			c0.1-0.2,0.1-0.4,0.2-0.5c1-3.1,1.3-6.4,2.1-9.6c1.2-5,2.2-9.9,3.3-14.9c-0.1,0-0.2,0.1-0.3,0.1C191.7,73.1,190.8,73.9,189.6,73.7
			z"/>
		<path class="st1" d="M175.5,124.8c-1.9-0.6-1.9,0.8-2.1,2c-0.2,1.6-0.5,3.2-0.8,4.7c-0.7,3.8-0.9,7.7-1.8,11.4
			c-0.2,0.8-0.2,1.7-0.8,2.3c0,0,0,0,0,0c0.4,0.4,1,0.2,1.3,0.6c2.1,0.5,4.3,0.4,6.5,0.6c0.9,0.1,1.2-0.4,1-1.2
			c-0.3-1.6-0.3-3.2,0-4.7c0.9-5,1.8-9.9,2.6-14.9c0.1-0.3,0.3-0.7,0-1.1c-1,0.5-1.9,0.8-3,0.6C177.5,125,176.6,124.9,175.5,124.8
			C175.6,124.7,175.5,124.8,175.5,124.8z"/>
		<path class="st4" d="M169.2,162.3c-1-0.3-1.2-0.7-0.8-1.8c0.4-0.9,0.4-1.9,0.5-3c0.1-1.7,0.2-3.5,0.6-5.2c0.2-0.7,0.1-1.7,0.8-2.1
			c0.2-0.1,0.5-0.2,0.8-0.1c-0.6-0.2-1.2-0.4-1.8-0.5c-2.3-0.6-3.2,0.1-3.3,2.5c0,1.2-0.1,2.3-0.2,3.5c-0.1,1.4-0.4,2.7-0.5,4.1
			c-0.1,0.9-0.2,2,1,2.3c1.3,0.3,2.6,0.9,4,0.9c-0.1-0.2-0.3-0.3-0.5-0.4C169.6,162.4,169.4,162.4,169.2,162.3z"/>
		<path class="st6" d="M193.2,71.2c0,0,0-0.1,0-0.1"/>
		<g>
			<path class="st4" d="M186.9,99.2c-0.5,1.2-1.4,1.4-2.3,1.4c-3.7-0.1-7.2-1.2-10.6-2.4c-2.3-0.8-2.7-0.8-3.1,1.6
				c-0.8,3.8-0.7,7.7-1.2,11.5c-0.2,1.9-0.5,3.8-0.8,5.7c-0.1,0.9,0,1.7,1.1,2c1.3,0.3,2.5,0.7,3.7,1.1c2.4,0.7,4.9,1,7.1,2.1
				c1.5,0.7,1.5,0.7,1.9-0.9c1.3-6.2,2.6-12.4,3.9-18.5C186.7,101.7,187.1,100.6,186.9,99.2z M184.7,109.5c-1,3.5-1.3,7.1-2.1,10.6
				c-0.1,0.5-0.3,1-0.4,1.4c-0.2,0.6-0.7,0.7-1.2,0.4c-2.1-1.1-4.5-1.5-6.8-2.1c-0.2-0.1-0.5-0.1-0.9-0.2c1.2-0.8,1.2-1.9,1.2-3
				c0.2-3.3,0.5-6.6,1-9.9c0.3-1.9,0.4-3.9,0.3-5.9c-0.1-1.2,0.4-1.5,1.4-1.3c2,0.5,4.1,1,6.1,1.3c0.7,0.1,1.3,0.2,2,0.1
				c1.1-0.3,1.3,0.2,1.1,1.1C185.8,104.6,185.4,107.1,184.7,109.5z"/>
			<path class="st4" d="M171.9,123.8c-0.2-0.1-0.3-0.1-0.5-0.2c-0.4-0.1-0.7-0.1-1.1-0.2c-1.4-0.2-1.8,0-1.8,1.3c0,0.2,0,0.3,0,0.5
				c-0.6,4.1-1.5,8.1-1.9,12.2c-0.1,2-0.1,3.9-0.2,5.9c-0.1,1.1,0.3,1.8,1.4,2c1.2,0.2,2.3,0.4,3.5,0.6c-0.3-0.4-0.9-0.3-1.3-0.6
				c0,0,0,0,0,0c0,0,0,0,0,0c0.6-0.6,0.6-1.5,0.8-2.3c0.8-3.8,1-7.7,1.8-11.4c0.3-1.6,0.6-3.1,0.8-4.7c0.2-1.3,0.1-2.6,2.1-2
				c0,0,0.1,0,0.1-0.1C174.5,124.1,173.2,124,171.9,123.8z"/>
		</g>
		<path class="st7" d="M172.3,80.7c0.2-1,0.3-2,0.5-3c-0.1,0-0.3,0-0.4-0.1C172.5,78.7,172.3,79.7,172.3,80.7z"/>
		<path class="st8" d="M157.3,194.2c0.2,0.2,0.5,0.3,0.9,0.1C157.9,194.1,157.6,194,157.3,194.2z"/>
		<path d="M49.6,53.6c2,0.1,4,0.2,6,0.3c0,0,0,0,0,0c0,0,0,0,0,0c0.4-0.1,0.9-0.2,1.3-0.2c0.8-0.1,1.6-0.1,2.4,0
			c3.6,0.6,7.2,0.7,10.8,0.8c0.7,0,1.3,0.2,2,0.3c0.6,0.1,1.1,0.3,1.7,0.4c0,0,0,0,0,0l0,0l0,0l0,0c0,0,0,0,0,0
			c0.6-0.2,1.2-0.4,1.8-0.6c0.4-0.1,0.7-0.4,0.6-0.8c-0.1-0.4-0.3-0.5-0.7-0.5c-4,0.2-7.9-1.1-11.9-1.5c-2.9-0.3-5.7-0.5-8.6-0.1
			c-0.9,0.1-1.8,0.1-2.4-0.3c-1.8-1.3-3.9-1.3-5.9-1.7c0,0,0,0,0,0c0,0,0,0,0,0c-0.6,0.1-1.1,0.2-1.7,0.1c-0.8-0.1-1.5-0.1-1.9,0.6
			c-0.4,0.8-0.4,1.8,0,2.6c0.8,1.6,1.2,1.6,2.4,0.2c0.1-0.2,0.3-0.2,0.5-0.2c0,0,0,0,0.1,0C47.3,53.4,48.5,53.5,49.6,53.6z"/>
		<path d="M130.6,44.7c1-0.2,1.9-0.1,2.8,0.4c1.4,0.8,2.9,1.4,4.5,1.5c0.7,0.1,1.3,0.3,1.8,0.8c1.1,0.9,3.5,0.9,4.7,0
			c0.3-0.2,0.7-0.5,1-0.2c1.3,1.5,3.3,1.5,4.8,2.6c0.6,0.5,1.4,0.5,2-0.2c0.2-0.3,0.5-0.6,0.8-0.3c1.2,0.9,2.6,1.2,3.8,2
			c1.4,1,2.9,1.3,4.5,0.9c0.8-0.2,1.6-0.2,2.1,0.4c0.8,0.8,1.6,0.9,2.6,0.7c1-0.2,1.8,0,1.9,1.2c0,0.5,0.3,0.9,0.7,0.8
			c0.9-0.1,1.8,0.2,2.7,0.2c0.5,0,1,0,1.2-0.5c0.3-0.5-0.2-0.8-0.4-1.1c-0.2-0.3-0.4-0.6-0.5-0.9c-0.3-0.8-0.8-1.1-1.6-0.9
			c-0.7,0.2-1.5,0-2.2-0.1c-2.7-0.4-5.3-0.9-7.8-2c-1.6-0.7-3.5-0.5-5-1.5c-0.9-0.6-1.9-1-3-0.6c-0.4,0.2-0.6-0.2-0.8-0.4
			c-1.3-1.3-2.8-1.7-4.7-1.4c-1.3,0.3-2.6,0-3.6-1c-0.7-0.7-1.4-0.8-2.1-0.4c-0.5,0.3-1,0.3-1.4-0.1c-0.6-0.5-1.3-0.6-2-0.4
			c-0.4,0.1-0.8,0.2-1.1-0.1c-1.4-1.2-3.3-1.3-4.9-2.2c-1-0.5-1.9,0-2.1,1.1C129.3,44.5,129.6,44.9,130.6,44.7z"/>
		<path d="M106.2,57.8C106.2,57.8,106.2,57.8,106.2,57.8C106.2,57.8,106.2,57.8,106.2,57.8L106.2,57.8z"/>
		<path d="M106.2,57.7c0.7-1.5,0.6-1.8-0.7-2.7c-0.5-0.3-0.7-0.7-0.8-1.3c-0.1-0.9-0.6-1.2-1.5-0.9c-0.9,0.2-1.5,0.8-2.2,1.2
			c-2.4,1.3-4.9,0.8-7.4,0.5c-1-0.1-1.8-0.3-2.6,0.6c-0.5,0.7-1.8,0.3-1.6-0.3c0.5-1.6-0.6-3-0.1-4.5c0.1-0.4,0.4-0.9-0.3-1.2
			c-0.6-0.2-1.1,0-1.4,0.6c-0.4,0.8-0.7,1.7-0.7,2.6c-0.1,1.1-0.6,1.7-1.8,1.4c-0.3-0.1-0.7-0.1-1,0.2c-0.7,0.6-1.5,0.6-2.2,0.2
			c-0.3-0.1-0.6-0.3-0.9,0.1c-0.3,0.4-0.2,0.8,0.1,1.2c0.4,0.4,0.9,0.5,1.4,0.5c1-0.1,2,0.2,3,0.3c2,0.2,4.1,0.3,6.1,0.5
			c3.5,0.3,7.1-0.3,10.6,0.7C103.5,57.6,104.9,57.3,106.2,57.7C106.2,57.7,106.2,57.8,106.2,57.7C106.2,57.8,106.2,57.7,106.2,57.7z
			"/>
		<path d="M108.5,41.8C108.5,41.8,108.5,41.8,108.5,41.8c0.4-0.4,1-0.5,1.4-0.3c1.4,0.8,2.6,0.2,3.9-0.2c0.6-0.2,1.2-0.2,1.6,0.4
			c0.3,0.4,0.7,0.5,1.2,0.7c1.6,0.6,3.2,0.6,4.8,0.7c1.1,0.1,1.9,0,2.7-0.6c0.6-0.4,1.2-0.3,1.7,0.3c0.3,0.3,0.5,0.7,0.7,1
			c0.4,0.7,0.9,0.7,1.4,0.1c0.3-0.4,0.6-0.7,0.2-1.2c-0.4-0.5-0.5-1.1-1.4-1c-2.1,0.1-4.3-0.2-6.3-1c-0.6-0.3-1.2-0.6-1.8-0.5
			c-0.9,0.1-1.5-0.2-2-0.9c-0.2-0.3-0.4-0.6-0.9-0.3c-1.4,1-2.7,0.6-4-0.2c-0.4-0.2-0.7-0.6-1.1-0.6c-1.2,0.2-2.2-0.3-3.1-1
			c-0.6-0.4-1.4-0.4-1.6,0.3c-1,2.5-1.5,5-1,7.8c1.1-1,1.3-2.4,2.3-3.1c0,0,0,0,0,0C107.4,41.6,108.1,42,108.5,41.8z"/>
		<path d="M111.1,58.4l0.1,0c0,0,0,0,0,0c1-0.3,2.1,0,3-0.6c0.2-0.1,0.4,0.1,0.5,0.2c1.6,1.3,3.4,0.9,5.1,0.6c0.4-0.1,1.2,0,1-0.8
			c-0.1-0.6-0.7-0.8-1.3-0.7c-0.9,0.1-1.7,0-2.5-0.3c-2.8-1.2-5.8-0.4-8.7-0.9c-0.5-0.1-0.9,0.4-1,0.9c-0.1,0.7,0.4,0.7,0.9,0.8
			c0.9,0.2,1.9,0.1,2.7,0.7C111,58.3,111,58.3,111.1,58.4L111.1,58.4z"/>
		<path d="M90.5,44.8c0.4-1.6,0.4-3.2,1-4.8c0.1-0.3,0.1-0.5-0.2-0.6c-0.3-0.1-0.6-0.1-0.8,0.2c-1.3,2.3-1.7,4.8-1.5,7.4
			C89.8,46.5,90.3,45.8,90.5,44.8z"/>
		<path d="M179.5,58.6c1.5-0.2,3,0.2,4.7-0.4c-1.5-1.2-2.7-2.5-4.6-2.1c-0.5,0.1-0.9,0.3-0.9,0.8C178.8,57.6,178.8,58.7,179.5,58.6z
			"/>
		<path d="M129.7,60.1c0.3,0.1,0.6,0.1,0.8,0.2c0.6,0.1,1.3,0.4,1.5-0.5c0.1-0.5,0-1.1-0.6-1.4c-0.4-0.2-0.9,0-1.4,0
			c-0.4,0-0.8-0.1-0.9,0.5C129,59.4,129.2,59.8,129.7,60.1z"/>
		<path d="M176.4,56.8c0.7,0.2,1.1-0.1,1.1-0.8c0.2-0.9-0.3-1.3-1.1-1.5c-0.6-0.1-1.4-0.1-1.4,0.6C174.9,56,175.5,56.6,176.4,56.8z"
			/>
		<path d="M93.3,29.9c-0.1-0.3-0.1-0.9-0.6-0.8c-0.4,0.1-0.6,0.5-0.6,0.9c0,0.8,0,1.7,0,2.5c0,0.3-0.1,0.6,0.3,0.7
			c0.4,0,0.6-0.2,0.7-0.6c0.1-0.3,0.1-0.6,0.2-1C93.5,31.1,93.6,30.5,93.3,29.9z"/>
		<path d="M222.6,46.3c-0.4-1-0.8-2.1-1.8-2.4c-2.2-0.7-4.5-1.4-6.8-1.8c-5.9-1.3-11.8-2.4-17.7-3.6c-5.7-1.2-11.4-2.6-17.1-3.9
			c-12.2-2.8-24.7-4.5-36.8-7.5c-11-2.7-22.2-4.6-33.3-6.4c-3.6-0.6-7.1-1.5-10.7-2.1c-0.3-0.1-0.6-0.2-0.9-0.4
			c-0.9-0.9-2.6-1.2-3.1-0.3c-0.8,1.3-1.9,2.5-2.2,4.2c-1.3,7.7-2.5,15.4-4.9,22.9c-0.6,1.9-1.1,3.8-0.9,5.8c0.1,1.6,0,1.7-1.7,1.6
			c-4.7-0.4-9.4-0.7-14.1-1.1c-5.4-0.4-10.8-0.9-16.2-1.2c-2.5-0.2-5.1-0.5-7.6-0.4c-0.1,0-0.2,0-0.4,0l0,0
			c-3.2-0.5-3.5-0.2-4.1,2.9c0,0.2-0.1,0.5-0.1,0.7c-0.2,2.3-0.5,4.7-0.7,7c-0.4,4.2-1.4,8.3-1.4,12.5c0,5.9-0.7,11.7-1.4,17.4
			c-0.7,5.6-1.4,11.3-2.1,16.9c-0.7,5.6-1,11.3-1.4,17c-0.3,5.4-0.6,10.9-0.8,16.4c-0.2,8.1-0.3,16.1-0.5,24.2
			c-0.1,2.5-0.3,5.1-0.4,7.6c0,0.4-0.1,0.8-0.1,1.3c-0.1,0.5,0.1,1,0.4,1.4c0.6,0.7,1.4,1.4,2,2.1c2.1,0.2,4,1,6,1.7
			c2,0.7,4,1.2,6.2,1.1c1.7-0.1,3.3,0.5,5,0.8c7.2,1.4,14.4,2,21.6,2.6c4.6,0.4,9.3,0.4,13.9,1.4c3.4,0.7,6.8,0.8,10.3,0.9
			c2.7,0.1,5.4,0.3,8,0.8c2,0.4,4,0.5,6,0.2c1.2-0.2,2.4,0.1,3.6,0.3c5.1,0.7,10.3,0.7,15.5,0.8c2.7,0.1,5.3,0.5,8,0.8
			c3.9,0.4,7.8,1.1,11.8,1.1c2,0,4,0.5,6,0.8c1.1,0.2,1.8-0.2,2.4-1.1c0.8-1.3,1.4-2.6,1.6-4c0.5-3.2,1.2-6.4,1-9.8
			c-0.1-1.9,0.5-3.7,0.8-5.5c0.2-0.8,0.7-1.2,1.6-1.1c4.6,0.8,9.2,1.8,13.9,2.5c4.3,0.7,8.5,2,12.7,3.1c0.8,0.2,1.5,0.1,2.1-0.4
			c0.5-0.5,1.2-0.8,1.7-1.3c0.9-0.8,1.7-1.8,1.4-3.2c0-0.2,0-0.3,0-0.5c1.1-7.6,2.4-15.1,3.9-22.6c0-0.1,0.1-0.2,0.2-0.3
			c0.5-4.8,1.7-9.5,3.2-14c0.4-1.1,0.4-2.2,0.6-3.3c0.1-0.6,0.1-1.2,0.5-1.6c2.4-4.7,2.7-10.1,4.4-15.1c0.8-2.4,1-4.9,1.4-7.4
			c1.1-6,2.1-12,3.2-18c0.2-1.3,0.5-2.6,1.1-3.9c0.8-1.7,0.9-3.5,1.2-5.2c1.7-9.7,3.1-19.5,5.4-29.1
			C222.4,47.7,222.8,47.1,222.6,46.3z M93.2,32.6c-0.1,0.4-0.3,0.6-0.7,0.6c-0.4-0.1-0.3-0.4-0.3-0.7c0-0.8,0-1.7,0-2.5
			c0-0.4,0.2-0.8,0.6-0.9c0.5-0.1,0.5,0.5,0.6,0.8c0.3,0.6,0.2,1.2,0,1.7C93.3,32,93.3,32.3,93.2,32.6z M90.5,39.7
			c0.2-0.3,0.5-0.3,0.8-0.2c0.3,0.1,0.4,0.3,0.2,0.6c-0.7,1.5-0.7,3.2-1,4.8c-0.2,0.9-0.7,1.7-1.5,2.3C88.9,44.5,89.2,42,90.5,39.7z
			 M39.5,134.4c0.3-6.2,0.6-12.4,0.9-18.6c0.3-5.7,1-11.3,1.6-17c1-9.6,2-19.1,2.4-28.8c0.2-4.3,0.8-8.6,1.2-12.9
			c0.1-0.9,0.2-1.8,0.2-2.8c0-0.4,0-0.8,0.4-1.1c0,0,0,0,0,0c-0.2,0-0.3,0-0.5,0.2c-1.2,1.3-1.6,1.3-2.4-0.2c-0.4-0.8-0.4-1.8,0-2.6
			c0.3-0.7,1.1-0.7,1.9-0.6c0.5,0.1,1.1-0.1,1.7-0.1c0,0,0,0,0,0c0,0,0,0,0,0c0,0,0,0,0,0c2,0.4,4.1,0.4,5.9,1.7
			c0.6,0.5,1.6,0.4,2.4,0.3c2.9-0.3,5.7-0.2,8.6,0.1c4,0.4,7.8,1.7,11.9,1.5c0.4,0,0.7,0,0.7,0.5c0.1,0.4-0.2,0.7-0.6,0.8
			c-0.6,0.2-1.2,0.4-1.8,0.6c0,0,0,0,0,0c4.8,0.5,9.6,0.9,14.5,1.4c5.1,0.5,10.3,0.3,15.4,1c0.8,0.1,1.6,0,2.4,0c0,0,0,0,0,0
			c-1.3-0.4-2.6-0.1-3.9-0.5c-3.5-1-7.1-0.4-10.6-0.7c-2-0.2-4.1-0.3-6.1-0.5c-1-0.1-2-0.4-3-0.3c-0.5,0.1-1,0-1.4-0.5
			c-0.3-0.4-0.4-0.8-0.1-1.2c0.3-0.4,0.5-0.2,0.9-0.1c0.8,0.3,1.5,0.4,2.2-0.2c0.3-0.2,0.6-0.2,1-0.2c1.2,0.3,1.7-0.3,1.8-1.4
			c0.1-0.9,0.3-1.8,0.7-2.6c0.3-0.6,0.7-0.8,1.4-0.6c0.7,0.2,0.4,0.8,0.3,1.2c-0.5,1.5,0.6,3,0.1,4.5c-0.2,0.6,1.1,1,1.6,0.3
			c0.8-1,1.6-0.7,2.6-0.6c2.5,0.3,5,0.8,7.4-0.5c0.7-0.4,1.4-0.9,2.2-1.2c0.9-0.2,1.4,0,1.5,0.9c0.1,0.6,0.3,1,0.8,1.3
			c1.3,0.8,1.4,1.2,0.7,2.7c0,0,0,0,0,0c1.6,0.3,3.1,0.6,4.7,0.6c0,0,0,0,0,0c-0.8-0.6-1.8-0.5-2.7-0.7c-0.4-0.1-1-0.1-0.9-0.8
			c0.1-0.6,0.5-1,1-0.9c2.9,0.5,5.9-0.3,8.7,0.9c0.7,0.3,1.6,0.4,2.5,0.3c0.6-0.1,1.2,0.1,1.3,0.7c0.2,0.8-0.6,0.7-1,0.8
			c-1.8,0.3-3.6,0.6-5.1-0.6c-0.2-0.1-0.3-0.3-0.5-0.2c-0.9,0.6-2,0.4-3,0.6c0,0,0,0,0,0c5.5,0.9,11,1.4,16.5,2
			c9.7,1,19.3,1.9,28.9,3.6c0.7,0.1,1.3,0.3,2,0.4c0.5,0.1,1,0.2,1.4,0.3c0.8,0.2,1.6,0.3,2.5,0v0c0.4,0,0.8-0.1,1.2-0.1
			c0.2,0,0.4,0.1,0.5,0.1c0.1,0,0.1,0,0.2,0c1.7,0.2,1.9,0.4,1.9,2.1c-0.1,1.6-0.1,3.2-0.3,4.8c-0.4,4.4-0.9,8.9-1.2,13.3
			c-0.6,8-0.3,16.1-1.5,24.1c-0.7,5-0.6,10.1-1,15.1c-0.5,6.3-1.2,12.6-1.8,18.9c-0.6,6.2-1.1,12.5-1.6,18.7
			c-0.2,2.1-0.3,4.2-0.4,6.3c0,1-0.1,2-0.1,3.1l0,0l0,0c-0.1,0.5-0.1,1-0.2,1.5c-0.4,3.5-1,7-1.8,10.4c-0.3,1.2-0.8,1.5-1.9,1.4
			c-10.6-1.1-21.2-1.6-31.8-2.4c-11.5-0.8-23-1.5-34.5-2.6c-10.9-1-21.7-2.6-32.6-3.8c-5.3-0.6-10.6-1.4-15.9-2.3
			c-1.6-0.3-1.7-0.4-1.5-2c0.6-4.6,0.3-9.1,0.4-13.7C39,150,39.1,142.2,39.5,134.4z M108.5,41.8c1.1,0.2,2.2,0.3,3.2,0.8
			c-0.1,0-0.1,0-0.2,0.1c0.1,0,0.1,0,0.2-0.1c6.3,0.9,12.7,1.7,18.8,3.4c2.4,0.3,4.8,0.6,7.2,1.1c0.8,0.1,1.4,0.4,1.9,1.1
			c6.1,1.1,12.1,2.8,18.1,4.5c5.9,1.7,11.8,3.4,17.7,5.1c3.8,1.1,7.6,2.2,11.3,3.6c0.5,0.2,1,0.3,1.6,0.5c1,0.2,1.9,0.5,2.8,0.9l0,0
			c1,0.4,2.3,0.1,3,1.1c0.1,0,0.2,0,0.4,0.1c0.1,0,0.2,0,0.4,0.1c0.4,0.5,0.4,1.1,0,1.6c-0.2,1.7-0.5,3.5-1.2,5.1
			c-0.1,0.7,0,1.5-0.6,2c-1.1,5-2.1,10-3.3,14.9c-0.7,3.2-1,6.5-2.1,9.6c-0.1,0.2-0.1,0.3-0.2,0.5c-2.9-1.4-6-1.5-8.9-2.6
			c-1.7-0.3-3.3-0.5-5-0.8c-1-0.1-1.2-0.6-1.1-1.6c0.4-3.4,1.6-6.5,2.4-9.7c0.4-1.7,1.2-3.5,2-5.1c1.2-4.2,1-3.2,4.1-2.2
			c2.3,0.8,4.7,1.5,6.9,2.7c1.3,0.7,2.1,0.3,2.8-0.9c0.7-1.3,0.4-2.2-0.8-2.9c-0.1-0.1-0.3-0.2-0.4-0.3c-3.8-1.6-7.9-1.9-11.7-3.4
			c-0.7-0.3-1.5-0.3-2.2-0.4c-1.7-0.2-2.2-0.6-2.7-2.3c-0.4-1.4-0.4-2.7,0-4.1c0.2-0.9-0.1-1.4-1-1.7c-2.4-0.7-4.8-1.3-7.2-1.5
			c-0.6-0.3-1.3-0.1-2-0.4c-0.1-0.1-0.2-0.1-0.3-0.2c-0.1-0.1-0.3-0.2-0.4-0.3c-3.5,0.1-6.9-0.6-10.4-1c-4.9-0.6-9.8-1.3-14.7-1.8
			c-0.6-0.1-1.2-0.2-1.7-0.3l0,0l0,0c-5.7-0.3-11.4-1.1-17-1.7c-3.7-0.4-7.4-0.9-11.1-1.3c-1.7-0.2-1.8-0.3-1.5-1.9
			c0.3-1.4,0.1-2.9,0.5-4.4l0,0c0-0.4,0.1-0.8,0.2-1.2c0.3-1.3,0.7-2.6,1-3.9c0-0.1,0-0.2,0-0.3c0,0,0,0,0,0c-1,0.8-1.2,2.2-2.3,3.1
			c-0.6-2.8-0.1-5.4,1-7.8c0.3-0.7,1.1-0.7,1.6-0.3c0.9,0.7,1.9,1.2,3.1,1c0.4-0.1,0.7,0.3,1.1,0.6c1.3,0.8,2.6,1.2,4,0.2
			c0.5-0.3,0.7,0,0.9,0.3c0.5,0.7,1.1,1,2,0.9c0.6-0.1,1.2,0.2,1.8,0.5c2,0.9,4.1,1.1,6.3,1c0.9-0.1,1,0.5,1.4,1
			c0.4,0.5,0.1,0.9-0.2,1.2c-0.5,0.6-0.9,0.6-1.4-0.1c-0.2-0.4-0.5-0.7-0.7-1c-0.5-0.6-1-0.7-1.7-0.3c-0.9,0.6-1.6,0.7-2.7,0.6
			c-1.6-0.2-3.2-0.2-4.8-0.7c-0.4-0.2-0.9-0.2-1.2-0.7c-0.4-0.6-1-0.6-1.6-0.4c-1.3,0.4-2.5,0.9-3.9,0.2
			C109.5,41.3,108.9,41.4,108.5,41.8C108.5,41.8,108.5,41.8,108.5,41.8z M129.5,43.5c0.2-1.1,1.1-1.7,2.1-1.1
			c1.6,0.9,3.5,0.9,4.9,2.2c0.3,0.2,0.7,0.2,1.1,0.1c0.7-0.2,1.4-0.1,2,0.4c0.5,0.3,0.9,0.3,1.4,0.1c0.8-0.4,1.5-0.3,2.1,0.4
			c1,1,2.3,1.2,3.6,1c1.8-0.4,3.4,0.1,4.7,1.4c0.2,0.2,0.4,0.6,0.8,0.4c1.1-0.4,2.1,0,3,0.6c1.5,1,3.4,0.8,5,1.5
			c2.5,1,5.1,1.6,7.8,2c0.8,0.1,1.5,0.3,2.2,0.1c0.8-0.2,1.3,0.1,1.6,0.9c0.1,0.3,0.3,0.6,0.5,0.9c0.2,0.4,0.6,0.7,0.4,1.1
			c-0.3,0.4-0.8,0.5-1.2,0.5c-0.9-0.1-1.8-0.4-2.7-0.2c-0.5,0.1-0.7-0.3-0.7-0.8c-0.1-1.2-0.9-1.4-1.9-1.2c-1,0.2-1.9,0.1-2.6-0.7
			c-0.5-0.5-1.4-0.6-2.1-0.4c-1.6,0.4-3.1,0.1-4.5-0.9c-1.2-0.8-2.6-1.1-3.8-2c-0.4-0.3-0.6,0-0.8,0.3c-0.6,0.7-1.4,0.7-2,0.2
			c-1.5-1.1-3.6-1.1-4.8-2.6c-0.3-0.4-0.7-0.1-1,0.2c-1.1,0.9-3.6,0.9-4.7,0c-0.5-0.5-1.1-0.7-1.8-0.8c-1.6-0.1-3.1-0.7-4.5-1.5
			c-0.9-0.5-1.8-0.7-2.8-0.4C129.6,44.9,129.3,44.5,129.5,43.5z M175,55.1c0.1-0.7,0.9-0.7,1.4-0.6c0.7,0.2,1.3,0.6,1.1,1.5
			c-0.1,0.7-0.5,1-1.1,0.8C175.5,56.6,174.9,56,175,55.1z M179.6,56.1c2-0.4,3.1,0.9,4.6,2.1c-1.7,0.5-3.2,0.2-4.7,0.4
			c-0.7,0.1-0.7-1-0.8-1.7C178.6,56.4,179,56.2,179.6,56.1z M168.8,117.1c0.3-1.9,0.6-3.8,0.8-5.7c0.5-3.8,0.4-7.7,1.2-11.5
			c0.5-2.4,0.9-2.4,3.1-1.6c3.4,1.2,6.9,2.4,10.6,2.4c1,0,1.8-0.2,2.3-1.4c0.2,1.4-0.2,2.5-0.4,3.6c-1.3,6.2-2.6,12.3-3.9,18.5
			c-0.3,1.6-0.4,1.6-1.9,0.9c-2.3-1.1-4.7-1.4-7.1-2.1c-1.2-0.4-2.5-0.7-3.7-1.1C168.8,118.7,168.7,118,168.8,117.1z M172.8,77.7
			c-0.2,1-0.3,2-0.5,3c0-1,0.2-2,0.1-3C172.6,77.7,172.7,77.7,172.8,77.7z M151.2,61.4C151.2,61.4,151.2,61.4,151.2,61.4
			C151.2,61.4,151.2,61.3,151.2,61.4C151.2,61.3,151.2,61.4,151.2,61.4z M131.9,59.8c-0.2,0.9-0.9,0.6-1.5,0.5
			c-0.2,0-0.5-0.1-0.8-0.2c-0.5-0.2-0.7-0.7-0.6-1.2c0.1-0.6,0.5-0.5,0.9-0.5c0.4,0,0.9-0.2,1.4,0C131.9,58.7,132.1,59.2,131.9,59.8
			z M127.6,59.3c-0.1,0.8-0.8,0.5-1.3,0.5c-0.5-0.1-1.2-0.1-1.1-0.8c0.2-1.1,1-0.3,1.6-0.4C127.2,58.5,127.7,58.8,127.6,59.3z
			 M166.4,143.4c0.1-2,0.2-3.9,0.2-5.9c0.4-4.1,1.2-8.1,1.9-12.2c0-0.2,0-0.3,0-0.5c0-1.2,0.4-1.5,1.8-1.3c0.4,0,0.7,0.1,1.1,0.2
			c0.2,0.1,0.3,0.1,0.5,0.2c1.2,0.2,2.5,0.2,3.7,0.9c1,0.2,1.9,0.3,2.9,0.5c1.1,0.2,2.1-0.1,3-0.6c0.3,0.4,0.1,0.7,0,1.1
			c-0.9,5-1.8,9.9-2.6,14.9c-0.3,1.6-0.3,3.2,0,4.7c0.2,0.9-0.2,1.3-1,1.2c-2.2-0.2-4.4-0.1-6.5-0.6c-1.2-0.2-2.3-0.4-3.5-0.6
			C166.7,145.1,166.4,144.5,166.4,143.4z M215.9,49.3c-0.5,2.3-1,4.6-1.5,6.9c-1.5,6.5-3.1,13-4.6,19.5c-0.6,2.5-1.1,4.9-1.5,7.4
			c-2.1,12.1-4.9,24-7.5,36c-2.2,10-4.4,20-6.2,30c-1,5.4-1.6,10.8-2.5,16.2c-0.3,1.7-0.7,2-2.5,1.9c-2.1-0.2-4.2-0.8-6.3-1.4
			c-3.4-1.1-7-1.3-10.5-2.1c-0.9-0.2-1.8-0.3-2.7-0.7c-1.4-0.1-2.7-0.6-4-0.9c-1.2-0.3-1.1-1.4-1-2.3c0.1-1.4,0.3-2.7,0.5-4.1
			c0.1-1.2,0.2-2.3,0.2-3.5c0.1-2.4,1-3.1,3.3-2.5c0.6,0.1,1.2,0.3,1.8,0.5c2.1,0.1,4.1,0.5,6.1,0.8c4.2,0.6,6.6-1.6,6.7-5.8
			c0.1-2.6,0.3-5.1,0.4-7.7c0.3-4.4,1.6-8.7,2.3-13c1.5-10,4-19.8,6-29.7c1.1-5.4,2-10.8,3.2-16.1c0.7-3.3,2-6.4,2.5-9.8
			c0.1-0.9,0.3-1.7,0.2-2.6c0.1-0.2,0.1-0.3,0.2-0.5c0.5-1.4,0.6-2.9,0.8-4.3c0.2-1-0.9-1.4-1.6-1.6c-1.9-0.7-3.8-1.2-5.8-1.8
			c-4.3-1.4-8.6-2.8-12.9-4.2c-4.7-1.5-9.5-2.7-14.2-4c-3.6-1-7.2-2.2-10.7-3.3c-4.1-1.2-8.4-1.9-12.5-2.9
			c-10.8-2.8-21.9-4.7-32.9-6.4c-0.7-0.1-1.5-0.3-2.1-0.8c-1-0.7-1.6-0.5-2,0.7c-0.7,2.1-1.2,4.3-2,6.4c-0.9,2.6-0.8,5.4-1.3,8.1
			c-0.3,1.9-0.6,2.1-2.5,1.9c-2.5-0.2-5-0.3-7.5-0.3c-1.3,0-1.5-0.3-1.4-1.6c0.3-3,1-5.9,1.9-8.8c0.8-2.5,1.1-5.2,1.4-7.8
			c0.3-3.3,1.2-6.5,2.2-9.7c0.1-0.4,0.2-0.8,0.4-1.3c0-0.1,0.1-0.3,0.1-0.4c3.2,1,6.7,0.7,10,1.2c9.1,1.5,18.2,3.2,27.3,5.2
			c8.8,1.9,17.5,4.4,26.4,5.8c12.1,1.9,24.1,4.7,36.1,7.5c2.7,0.6,5.5,1.3,8.3,1.7c3.8,0.6,7.3,1.8,11,2.8
			C216.2,47.8,216.1,48.6,215.9,49.3z"/>
		<path d="M126.3,59.8c0.5,0,1.1,0.4,1.3-0.5c0.1-0.5-0.4-0.8-0.8-0.7c-0.5,0.1-1.4-0.7-1.6,0.4C125.1,59.7,125.8,59.7,126.3,59.8z"
			/>
		<path class="st9" d="M63,83.1c-0.5,6.5-0.6,13.1-1.8,19.6c-0.7,3.8-1.5,7.5-1.9,11.3c-1.2,10.3-2.5,20.6-2.6,31
			c0,3.5-0.1,7,0,10.4c0,2.3,1.1,2.9,3.2,2c0.6-0.3,1.2-0.3,1.8-0.2c8.5,1.2,17.2,1,25.8,1.9c3.8,0.4,7.7,0.2,11.6,0.6
			c4,0.4,8,0.9,12.1,1c5.2,0.2,10.3,0.4,15.5,0.8c2.5,0.2,4.9,1.2,7.5,0.1c1.4-0.6,2.2-1.4,1.9-2.9c-0.1-0.6-0.2-1.2-0.1-1.9
			c0.1-2.6,0.3-5.3,0.2-7.9c-0.1-2.9,0.3-5.8-0.5-8.6c-0.3-1.1-0.5-2.2-0.3-3.4c0.3-2.3,0.2-3.1-2.8-3.3c-3.3-0.2-6.6-0.2-9.9-0.4
			c-4-0.2-8,0.2-11.9-0.6c-1.6-0.4-2.3,0.5-2.3,2.3c0.1,3.3,0,6.5-0.2,9.8c-0.1,3.5-0.3,7-0.2,10.4c0,0.9-0.3,1.3-1.3,1.1
			c-0.9-0.2-1.9-0.2-2.7-0.4c-1.2-0.3-2.9,0.5-3.5-0.8c-0.5-1-0.2-2.5-0.3-3.7c0-1.7,0.3-3.3,0.7-4.9c0.6-2.5-0.8-4-3.3-3.8
			c-1,0.1-1.9,0.2-2.9,0.2c-4,0.3-7.9-0.7-11.8-0.6c-2.9,0.1-5.8-0.2-8.7-0.6c-1.7-0.2-2.4,0.4-2.7,2.1c-0.1,0.5-0.1,1.1-0.2,1.6
			c-0.2,2.2,0.3,4.4-0.2,6.5c-0.2,0.7,0.5,1.6,0,2c-0.5,0.3-1.4,0-2.1-0.1c-2.7-0.2-5.4-0.5-8.4-0.8c1.2-1.6,1.4-3.1,1.4-4.7
			c0.1-4,0.4-8.1,0.7-12.1c0.3-3.2,1-6.3,1.4-9.5c0.5-5.3,1-10.6,1.9-15.9c0.6-3.6,1.1-7.3,0.9-11c-0.2-3.5-0.2-6.9,0.3-10.3
			c0.5-3.8,0.3-7.7,0.4-11.6c0-1.3-0.7-1.8-2.4-1.9c-1.5,0-1.8,0.2-1.9,1.6C63.2,79.7,63.2,81.4,63,83.1z M131.6,155.5L131.6,155.5
			L131.6,155.5c0.2,0.2,0.3,0.3,0.5,0.5l0,0c0.5,1.7,0.1,2.3-1.6,2.4c-1.6,0.1-3.1,0.2-4.7-0.3c0.4-0.9,1-1.6,1.5-2.3l0,0l0,0
			c1.3-2.5,2.8-4.8,4.9-6.9C132.5,151.3,132.1,153.4,131.6,155.5z M132.1,141.4c0.2,1.2-0.2,2.1-0.8,3c-0.8,1.2-1.7,2.4-2.8,3.4
			c-1.9,1.7-3.5,3.7-5,5.8c-0.6,0.9-1.3,1.6-1.9,2.5l0,0c0,0,0,0,0,0c-0.4,0.9-0.6,1.9-1.9,1.8c-0.4,0-1,0-1.2-0.5
			c-0.2-0.5,0.2-0.9,0.6-1.1c0.2-0.1,0.3-0.3,0.5-0.4C123.4,150.7,127.4,145.8,132.1,141.4z M122.4,140.2c0.1-0.1,0.2-0.3,0.3-0.4
			c0.8-2.2,2.6-2.4,4.6-2.2c1.1,0.1,1.4,0.6,0.9,1.6c-0.9,1.5-1.9,2.9-3.1,4.3c-3.7,4.2-7.7,8.1-11.3,12.4c0,0,0,0,0,0c0,0,0,0,0,0
			c-0.1,0.4-0.1,0.8-0.2,1.1c-0.2,0.4-0.5,0.7-1,0.6c-0.5-0.1-0.7-0.5-0.6-0.9c0.1-0.9,0.2-1.7,0.3-2.6c0-1.5,0.8-2.6,1.7-3.7
			C116.8,147,119.8,143.8,122.4,140.2z M114.5,137.7c1.1-0.3,2.3-0.2,3.5-0.3c0.3,0,0.7,0,0.8,0.4c0.1,0.4,0,0.8-0.3,1
			c-1.3,0.9-1.9,2.3-2.7,3.6c-0.5,0.8-1.5,1-2.1,1.7c-0.6,0.9-0.6,0.9-1.5,1.4c-0.3-1.3-0.1-2.5,0.1-3.8l0,0c0-0.7-0.1-1.4-0.1-2.1
			C112.3,137.4,112.4,137.4,114.5,137.7z M95.5,153.8c0.2-0.3,0.5-0.6,0.8-0.5c0.4,0.3,0.3,0.8,0.2,1.2c0.2,0.9-0.5,1-1.1,1.1
			c-0.3,0-0.8,0-0.8-0.5C94.5,154.4,94.6,153.8,95.5,153.8z M87.1,154c0.8-0.8,1.6-1.6,2.4-2.4c1.1-1,2.1-2.1,2.8-3.4
			c0.2-0.4,0.6-0.7,1.1-0.8c0.4-0.1,0.8-0.3,1,0.1c0.3,0.4-0.1,0.7-0.3,1c-1.4,1.8-2.7,3.5-4.1,5.3l0,0c0,0,0,0,0,0
			c0,0.9-0.1,1.7-1.1,2c-0.7,0.2-1.4,0.2-1.7-0.6C86.3,154.9,86.8,154.4,87.1,154z M79.9,152.4c1.4-1.7,3-3.2,4.1-5.1
			c0.4-0.7,2.7-0.9,3.2-0.3c0.4,0.4,0,0.7-0.3,0.9c-1.1,1.2-2.3,2.4-3.5,3.6c-0.7,0.7-1.3,1.4-1.6,2.4c-0.2,0.7-0.6,0.9-1.2,0.6
			c-0.8,0.1-1.8,0.7-2.2-0.3C78.2,153.4,79.2,152.8,79.9,152.4z M75.9,146.2c0.7,0,1.4,0,2.1,0.1c1,0.1,1.2,0.6,0.6,1.3
			c-0.8,1-1.8,1.9-2.7,2.8c-0.6,0.6-0.9,0.3-0.9-0.4c-0.1-1-0.2-1.9-0.2-2.5C74.9,146.6,75.2,146.2,75.9,146.2z"/>
		<path class="st10" d="M73.8,55.3c-0.6-0.1-1.1-0.3-1.7-0.4c-0.7-0.2-1.3-0.3-2-0.3c-3.6-0.1-7.2-0.2-10.8-0.8
			c-0.8-0.1-1.6-0.1-2.4,0c-0.4,0-0.9,0.1-1.3,0.2c0,0,0,0,0,0c4.2,0.4,8.5,0.7,12.7,1.1C70.1,55.1,72,55.2,73.8,55.3
			C73.8,55.3,73.8,55.3,73.8,55.3L73.8,55.3C73.8,55.3,73.8,55.3,73.8,55.3z"/>
		<path class="st9" d="M137.1,116.1c0.1-1.5,0.1-3.1,0.2-4.7c0.2-2.4,0-4.8,0.8-7.2c1.1-3.5-1.1-5.4-4.2-4.5
			c-1.3,0.4-2.7,0.4-4.1,0.6c-2.7,0.4-5.4,0.7-8.1,1.2c-1.9,0.3-2.3,1.3-1.5,3c0.1,0.2,0.3,0.4,0.4,0.6c0.7,1.1,1.7,0.8,2.6,0.5
			c2-0.6,4-0.9,6.1-1c-1.6,1.7-3.2,3.4-4.7,5c-1.6,1.6-3.2,3.2-4.8,4.8c-0.1,0.1-0.2,0.1-0.3,0.2c-1.7,0.9-3.1,2-4.4,3.4
			c0,0,0,0,0,0c-2.2,1.4-4.3,2.9-6.4,4.5c-4.2,2.2-8.3,4.5-12.6,6.6c-5,2.4-10.2,4.1-15.7,4.8c-2.9,0.3-5.8,0.4-8.6,0.7
			c-1.4,0.1-1.8,1-0.9,2.2c0.8,1.1,1.9,1.6,3.3,1.6c4.5-0.2,9-0.8,13.4-1.8c5.8-1.2,11-4,16.2-6.7c8-4.2,15.4-9.1,21.9-15.4
			c2.3-2.3,4.6-4.6,6.8-6.9c0.3-0.3,0.6-0.8,1.2-0.6c0.5,0.3,0.3,0.8,0.2,1.3c-0.2,2.3,0.1,4.7-0.7,7c-0.1,0.2,0,0.3,0,0.5
			c0.1,1.3,1.1,2.6,2.1,2.6C136.5,118.4,137,117.9,137.1,116.1z"/>
		<path class="st4" d="M178,94.8c-0.3,0-0.5-0.1-0.7-0.2c-0.4-0.2-0.5-0.7-0.4-1.3c0.1-0.8,0.2-1.7-0.1-2.5c0.2-1,0.3-2,0.5-3l0,0
			c0,0,0,0,0,0c0-1-0.1-1.9-0.5-2.8c-0.6-1.3,0.3-2.9-0.5-4.2c0-0.1,0.1-0.2,0.1-0.3c0.2-0.4,0.3-0.8,0.4-1.3
			c0.1-0.4,0.1-0.8,0.1-1.3c-0.8,1.7-1.6,3.5-2,5.1c-0.9,3.2-2.1,6.4-2.4,9.7c-0.1,1,0.1,1.4,1.1,1.6c1.7,0.2,3.3,0.5,5,0.8
			C178.4,94.9,178.2,94.8,178,94.8z"/>
		<path class="st0" d="M194.8,65.6c0.4-0.5,0.4-1.1,0-1.6c-0.1,0-0.2,0-0.4-0.1c-0.1,0-0.2,0-0.4-0.1c-0.8-1-2-0.7-3-1.1l0,0
			c-0.9-0.5-1.8-0.8-2.8-0.9c-0.5-0.2-1-0.3-1.6-0.5c-3.7-1.4-7.5-2.5-11.3-3.6c-5.9-1.7-11.8-3.4-17.7-5.1
			c-6-1.7-11.9-3.5-18.1-4.5c-0.5-0.7-1.1-0.9-1.9-1.1c-2.4-0.5-4.8-0.8-7.2-1.1c-6.2-1.7-12.5-2.5-18.8-3.4c-0.1,0-0.1,0.1-0.2,0.1
			c0.1,0,0.1,0,0.2-0.1c-1-0.5-2.1-0.5-3.2-0.8c0,0,0,0,0,0c-0.4,0.2-1.1-0.2-1.4,0.5c0,0,0,0,0,0c0,0.1,0,0.2,0,0.3
			c-0.3,1.3-0.7,2.6-1,3.9c-0.2,0.4-0.3,0.8-0.2,1.2l0,0c-0.4,1.4-0.3,2.9-0.5,4.4c-0.3,1.6-0.1,1.7,1.5,1.9
			c3.7,0.4,7.4,0.9,11.1,1.3c5.7,0.6,11.3,1.4,17,1.7l0,0l0,0c0.6,0.1,1.2,0.2,1.7,0.3c4.9,0.4,9.8,1.2,14.7,1.8
			c3.4,0.4,6.9,1.1,10.4,1c0.1,0.1,0.3,0.2,0.4,0.3c0.1,0.1,0.2,0.2,0.3,0.2c0.6,0.3,1.4,0.1,2,0.4c2.5,0.2,4.9,0.7,7.2,1.5
			c0.9,0.3,1.2,0.8,1,1.7c-0.3,1.4-0.4,2.7,0,4.1c0.5,1.7,0.9,2.1,2.7,2.3c0.7,0.1,1.5,0.1,2.2,0.4c3.8,1.6,7.9,1.8,11.7,3.4
			c0-0.1,0-0.1,0.1-0.2c0-0.2,0.1-0.3,0.1-0.3c1.2,0.1,2.1-0.6,3.1-0.9c0.1,0,0.2-0.1,0.3-0.1c0.6-0.6,0.5-1.3,0.6-2
			C194.3,69.1,194.6,67.3,194.8,65.6z"/>
		<path class="st1" d="M175.4,106.7c-0.5,3.3-0.8,6.6-1,9.9c-0.1,1.1-0.1,2.2-1.2,3c0.4,0.1,0.6,0.2,0.9,0.2
			c2.3,0.6,4.6,1.1,6.8,2.1c0.6,0.3,1,0.1,1.2-0.4c0.2-0.5,0.3-0.9,0.4-1.4c0.8-3.5,1.1-7.1,2.1-10.6c0.7-2.4,1.1-4.9,1.6-7.4
			c0.2-0.9-0.1-1.4-1.1-1.1c-0.7,0.2-1.3,0-2-0.1c-2.1-0.3-4.1-0.9-6.1-1.3c-1-0.2-1.5,0.1-1.4,1.3
			C175.8,102.8,175.7,104.8,175.4,106.7z"/>
		<path class="st0" d="M81.5,152.9c0.3,0.8-0.3,1.1-0.7,1.6c0.6,0.3,1,0.1,1.2-0.6c0.2-1,0.9-1.7,1.6-2.4c1.2-1.2,2.3-2.4,3.5-3.6
			c0.2-0.3,0.7-0.5,0.3-0.9c-0.5-0.5-2.8-0.4-3.2,0.3c-1.1,1.9-2.7,3.4-4.1,5.1C80.5,152.4,81.2,152.3,81.5,152.9z"/>
		<path class="st0" d="M87.2,155.1c0.4-1.5,1.6-2.1,2.8-1.3l0,0c1.4-1.8,2.7-3.5,4.1-5.3c0.2-0.3,0.7-0.5,0.3-1
			c-0.3-0.4-0.7-0.2-1-0.1c-0.5,0.1-0.8,0.4-1.1,0.8c-0.7,1.3-1.8,2.3-2.8,3.4c-0.8,0.8-1.7,1.6-2.4,2.4
			C86.8,154.4,86.3,154.9,87.2,155.1z"/>
		<path class="st11" d="M130.9,156.3c-1.2,1.2-1.2,1.2-1.9-0.4c-0.6,0.1-1.2,0.1-1.7-0.1c-0.6,0.7-1.1,1.4-1.5,2.3
			c1.6,0.4,3.1,0.4,4.7,0.3c1.7-0.2,2.1-0.8,1.6-2.4l0,0l0,0C131.6,155.8,131.2,155.9,130.9,156.3z"/>
		<path class="st0" d="M75.1,150.1c0.1,0.7,0.4,0.9,0.9,0.4c0.9-0.9,1.8-1.8,2.7-2.8c0.6-0.7,0.3-1.2-0.6-1.3
			c-0.7-0.1-1.4-0.1-2.1-0.1c-0.7,0-1,0.4-1.1,1.3C74.9,148.2,75,149.1,75.1,150.1z"/>
		<path class="st12" d="M119.7,155.8c-0.2,0.1-0.3,0.3-0.5,0.4c-0.4,0.3-0.8,0.6-0.6,1.1c0.2,0.5,0.7,0.5,1.2,0.5
			c1.3,0.1,1.6-0.9,1.9-1.8c0,0,0,0,0,0C121.2,154.6,120.4,155.4,119.7,155.8z"/>
		<path class="st13" d="M80.8,154.6c0.3-0.5,1-0.9,0.7-1.6c-0.3-0.7-1-0.6-1.5-0.6c-0.8,0.4-1.7,1-1.3,1.9
			C79,155.3,80,154.7,80.8,154.6z"/>
		<path class="st14" d="M87.2,155.1c0.4,0.8,1,0.8,1.7,0.6c1-0.3,1.1-1.1,1.1-2c0,0,0,0,0,0C88.8,153.1,87.6,153.7,87.2,155.1z"/>
		<path class="st15" d="M112.2,154c-0.1,0.9-0.2,1.7-0.3,2.6c0,0.5,0.2,0.8,0.6,0.9c0.5,0.1,0.8-0.1,1-0.6c0.1-0.3,0.1-0.7,0.2-1.1
			c0,0,0,0,0,0C113.1,155.4,113.1,154.4,112.2,154z"/>
		<path class="st1" d="M112.3,141.7c0.4-0.4,0.4-0.9,0.5-1.4c0.3-1,0.7-1.9,1.6-2.4l0,0c0,0,0-0.1,0-0.1c0-0.1,0-0.1,0-0.2
			c-2.1-0.3-2.2-0.2-2.3,1.9C112.2,140.3,112.3,141,112.3,141.7z"/>
		<line class="st16" x1="114.4" y1="137.9" x2="114.4" y2="137.9"/>
		<path class="st17" d="M95.3,155.6c0.6-0.1,1.3-0.1,1.1-1.1c-0.5-0.1-0.6-0.5-1-0.7c-0.8,0-1,0.6-1,1.3
			C94.5,155.6,95,155.6,95.3,155.6z"/>
		<path class="st18" d="M131.3,155.5c-0.6,0.6-1.4,0.3-2.1,0.2c0,0-0.1,0-0.1,0l0,0c0,0,0,0.1,0,0.1c0,0,0,0.1,0,0.1
			c0.7,1.5,0.7,1.6,1.9,0.4c0.3-0.3,0.7-0.4,1.1-0.3l0,0c-0.2-0.2-0.3-0.3-0.5-0.5l0,0C131.5,155.5,131.5,155.5,131.3,155.5
			C131.4,155.5,131.3,155.5,131.3,155.5z"/>
		<path class="st0" d="M96.2,153.3c-0.2-0.1-0.6,0.2-0.8,0.5c0.4,0.2,0.5,0.7,1,0.7C96.6,154,96.7,153.5,96.2,153.3z"/>
		<path class="st19" d="M130.3,153.1c-0.1,0.1-0.1,0.3-0.1,0.4"/>
		<g>
			<path class="st0" d="M128.2,139.2c0.6-1,0.3-1.5-0.9-1.6c-2-0.3-3.8,0-4.6,2.2c-0.1,0.2-0.2,0.3-0.3,0.4
				c-2.6,3.6-5.6,6.8-8.5,10.1c-0.9,1.1-1.8,2.2-1.7,3.7c0.8,0.4,0.9,1.4,1.6,1.9c0,0,0,0,0,0c3.6-4.3,7.6-8.2,11.3-12.4
				C126.2,142.2,127.3,140.8,128.2,139.2z"/>
			<path class="st0" d="M132.1,141.4c-4.6,4.4-8.6,9.3-12.4,14.3c0.7-0.3,1.5-1.2,2,0.3l0,0c0.6-0.8,1.3-1.6,1.9-2.5
				c1.4-2.1,3-4.1,5-5.8c1.1-1,2-2.2,2.8-3.4C131.8,143.6,132.3,142.6,132.1,141.4z"/>
			<path class="st0" d="M115.8,142.3c0.7-1.3,1.4-2.7,2.7-3.6c0.3-0.2,0.4-0.6,0.3-1c-0.1-0.4-0.5-0.4-0.8-0.4
				c-1.2,0.1-2.3,0-3.5,0.3c0,0.1,0,0.1,0,0.2c0,0,0,0.1,0,0.1l0,0c-1,0.5-1.4,1.4-1.6,2.4c-0.1,0.5-0.1,1-0.5,1.4l0,0
				c-0.2,1.3-0.4,2.5-0.1,3.8c0.9-0.5,0.9-0.5,1.5-1.4C114.3,143.4,115.3,143.1,115.8,142.3z"/>
			<path class="st0" d="M132.2,148.9c-2.1,2.1-3.6,4.5-4.9,6.9l0,0c0.6,0.2,1.1,0.1,1.7,0.1c0,0,0-0.1,0-0.1c0,0,0-0.1,0-0.1l0,0
				c0,0,0.1,0,0.1,0c0.7,0,1.5,0.4,2.1-0.2c0,0,0,0,0.1-0.1c0.1,0,0.1,0,0.2,0l0,0C132.1,153.4,132.5,151.3,132.2,148.9z"/>
		</g>
	</g>
</g>
</svg>
