<?xml version="1.0" encoding="utf-8"?>
<!-- Generator: Adobe Illustrator 19.2.0, SVG Export Plug-In . SVG Version: 6.00 Build 0)  -->
<svg version="1.1" id="Layer_1" xmlns="http://www.w3.org/2000/svg" xmlns:xlink="http://www.w3.org/1999/xlink" x="0px" y="0px"
	 width="230px" height="230px" viewBox="0 0 230 230" style="enable-background:new 0 0 230 230;" xml:space="preserve">
<style type="text/css">
	.st0{fill:#2DAEBF;}
	.st1{fill:none;}
	.st2{fill:none;stroke:#2DAEBF;stroke-width:0;stroke-linecap:round;stroke-linejoin:round;}
	.st3{fill:#FDFDFD;}
	.st4{fill:#111217;}
	.st5{fill:#BBB7C4;}
	.st6{fill:#0B0E12;}
	.st7{fill:#C6C8DC;}
	.st8{fill:#0A0B11;}
	.st9{fill:#0B0C12;}
	.st10{fill:#0B0C11;}
	.st11{fill:#000001;}
	.st12{fill:#0C0D13;}
	.st13{fill:#121318;}
	.st14{fill:#131419;}
	.st15{fill:#010101;}
	.st16{fill:#050606;}
	.st17{fill:#15161B;}
	.st18{fill:#0A0B0B;}
	.st19{fill:#030607;}
	.st20{fill:#080B0E;}
	.st21{fill:#14151A;}
	.st22{fill:#040608;}
	.st23{fill:#0A0A0E;}
	.st24{fill:#070600;}
	.st25{fill:#0E0D00;}
	.st26{fill:#0F0E00;}
	.st27{fill:#06070B;}
	.st28{fill:#05070B;}
	.st29{fill:#12130B;}
</style>
<g>
	<g>
		<path class="st0" d="M41,57.6c-0.4,0-0.8,0.4-1.1,0.2C36.1,61,32,64.3,28.7,70.1c-0.3,0.5-0.9,1.7-1.2,2.4c-2,4.6-4.6,11.7-6.3,14
			c-0.3,0.9,0,0.9-0.4,1.8c-0.7,0.4-2.3,2.8-2.7,5.1c-0.1,0.8,0.4,2.3,0.2,4.1c-0.1,1.3-0.5,2.5-0.8,3.7c-0.3,1.2-0.7,2.4-0.7,3.6
			c0,1.1,0.6,2.3,0.7,3.4c0.1,1.5,0.1,3.7,0,5.8c-0.1,2.2-0.1,4.3-0.2,5.5c-0.1,1.9-0.6,2.7-0.3,4.2c0.2,1.3,0.9,2.3,1.8,2
			c0.6,0.9,1,2.2,1.4,3.6c0.3,1.5,0.7,3.2,1,5c0.3,1.8,0.7,3.6,1.1,5.3c0.4,1.7,1,3.3,1.5,4.7c0.3,2.1,1,4.1,1.9,5.9
			c0.9,1.8,1.8,3.7,2.6,5.5c0.3,0.8,0.5,1.7,0.8,2.5c0.5,1.3,1.7,2.8,2.6,4.3c0.8,1.3,1.5,2.5,2.2,3.7c0.7,1.2,1.4,2.3,2.2,3.2
			c1,3.9,3.8,5.5,5.6,8.1c0.7,1,1.1,2.1,2,3.2c0.7,0.9,1.7,1.5,2.5,2.5c0.8,0.9,1.3,2.2,2.2,3.1c0.6,0.6,1.3,1,1.8,1.5
			c0.6,0.7,0.8,1.4,1.6,2c0.8,0.7,1.9,1.1,2.7,1.8c3,2.6,6,5.6,9.4,7.2c2.5,2.3,5.1,4,8,5.6c2.9,1.6,5.9,3.2,9.3,5.3
			c1.9,0.7,3.3,1,5.1,2.1c0.5,0.1,0.6-0.1,1.2,0.1c3.7,1.8,8.1,2.3,12.1,3.8c0.2-0.1,0.4-0.2,0.7-0.2c1.4,0.5,2.9,1,4.4,1.4
			c1.5,0.4,3.1,0.8,4.7,1c0.8,0.1,1.5,0.3,2.3,0.4c0.8,0.1,1.5,0.1,2.2,0.2c1.4,0.1,2.7,0.2,3.9,0c1.7,0.4,3.7,0.6,5.7,0.5
			c1,0,2-0.1,3.1-0.1c1.1-0.1,2.1-0.1,3.2-0.2c2,0,4.1,0.1,6-0.2c1.9-0.3,4-0.6,6.1-0.8c2.1-0.3,4.2-0.6,6-1.1c1-0.3,2-0.8,3-1.1
			c1.8-0.5,3.9-0.8,5.8-1.5c3.6-1.5,7.6-2.9,11.3-4.5c0.9-0.4,1.9-0.8,2.8-1.2c0.9-0.4,1.8-0.8,2.7-1.3c1.8-0.8,3.4-1.7,4.9-2.5
			c0.9-0.5,1.7-1.1,2.5-1.7c0.8-0.6,1.6-1.3,2.6-2c1.6-1.2,3.2-2.2,4.9-3.3c1.6-1.1,3.3-2.2,4.8-3.6c0.7-0.7,1.3-1.5,2-2.1
			c0.9-0.8,1.7-1.6,2.6-2.3c0.9-0.8,1.8-1.5,2.6-2.4c4.2-4.3,7.6-9.4,11.3-13.7c0.4-0.8,0.9-1.6,1.4-2.5c0.5-0.9,1-1.8,1.5-2.7
			c1.1-1.8,2.1-3.9,3.2-5.9c2-4.1,4.1-8.4,5.4-12.4c0.1-2,1.1-3.5,1.6-5.4c2.6-9.2,3.7-18.1,3.8-27.8c0.1-9.6-0.1-22.1-4.7-30.9
			c-3.9-12.7-10.4-24.5-18.9-34c-0.4-0.9-1.2-1.9-2.1-2.8c-0.9-0.9-1.8-1.7-2.5-2.2c0-0.5-0.9-1.3-1.4-2c-1.1-0.7-2.1-1.6-3.2-2.6
			c-0.1-0.1-0.2-0.2-0.3-0.3c0,0-0.1-0.1-0.1-0.1c-1.5-1.4-3.1-3-4.8-4.4c-0.5,0-1-0.3-1.5-0.7c-0.9-0.7-1.8-1.4-2.7-2.1
			c0.2,0,0.4,0.2,0-0.3c-0.3-0.1-0.6-0.2-1-0.3c-0.5-0.3-1-0.5-1.5-0.8c-2.4-2.2-4.9-3.8-7.7-5.4c-2.7-1.6-5.7-3.1-8.9-5.1
			c-1.8-0.6-3.2-1-4.9-2c-0.4-0.1-0.5,0.2-1.2-0.1c-3.6-1.8-7.8-2.2-11.6-3.6c-0.2,0.1-0.4,0.2-0.6,0.2c-0.3-0.1-0.5-0.2-0.8-0.3
			c0.1,0,0.2,0,0.3-0.1c-0.3-0.2-1.3-0.5-1.7-0.4c-0.6-0.2-1.3-0.4-2-0.6c-1.5-0.4-3-0.7-4.5-1c-0.7-0.1-1.5-0.2-2.2-0.3
			c-0.7-0.1-1.4-0.1-2.1-0.2c-1.4-0.1-2.6-0.1-3.7,0c-1.7-0.4-3.5-0.6-5.4-0.5c-1,0-2,0.1-3,0.1c-1,0.1-2,0.1-3.1,0.2
			c-2,0-3.9-0.1-5.7,0.1c-1.8,0.3-3.8,0.5-5.9,0.8c-2,0.3-4.1,0.6-5.7,1c-1,0.3-1.9,0.8-2.9,1.1c-1.7,0.5-3.7,0.7-5.5,1.4
			c-3.5,1.4-7.3,2.8-10.8,4.3c-0.9,0.4-1.8,0.7-2.7,1.1c-0.9,0.4-1.7,0.8-2.6,1.2c-1.7,0.8-3.2,1.6-4.7,2.4c-1.8,1-3,2.3-4.9,3.6
			c-1.5,1.1-3.1,2.1-4.7,3.2c-1.6,1.1-3.2,2.1-4.6,3.4c-0.7,0.6-1.2,1.4-1.9,2c-0.8,0.8-1.6,1.5-2.5,2.2c-0.8,0.7-1.7,1.5-2.5,2.3
			c-3.4,3.5-6.2,7.5-9.1,11.2C42.6,56.3,41.9,56.9,41,57.6z M169.1,182.3C169.1,182.3,169.1,182.3,169.1,182.3
			C169.1,182.3,169.1,182.3,169.1,182.3z"/>
		<line class="st0" x1="169.1" y1="182.3" x2="169.1" y2="182.3"/>
	</g>
	<g>
		<path class="st1" d="M29.4,156.5c0.6-0.2,1,0.1,1.2,0.6C30.4,156.6,30,156.3,29.4,156.5z"/>
		<path class="st1" d="M31.6,160.5c0.1,0.3,0.2,0.6,0.3,0.9c0-0.2-0.1-0.3-0.1-0.5C31.7,160.8,31.7,160.6,31.6,160.5z"/>
		<path class="st1" d="M27.1,156.9c0.1,0,0.2-0.1,0.3-0.1C27.1,156.9,27.1,156.9,27.1,156.9z"/>
		<path class="st1" d="M32.1,161.9c0.5,1.4,1.1,2.7,1.6,4.1c0.3,0.8,0.6,1.6,0.9,2.4c-0.8-2.1-1.5-4.2-2.2-6.3
			C32.2,162,32.2,162,32.1,161.9z"/>
		<path class="st0" d="M55.8,66.8C55.8,66.8,55.7,66.8,55.8,66.8c1.8-0.4,3.6-0.5,5.5-0.2C59.4,66.3,57.6,66.4,55.8,66.8z"/>
		<line class="st2" x1="214.4" y1="110" x2="214.4" y2="110"/>
		<path class="st3" d="M7.9,154.2C8,154.2,8,154.3,7.9,154.2C8,154.2,8,154.2,7.9,154.2C8,154.2,8,154.2,7.9,154.2z"/>
		<path class="st3" d="M189.1,58.7C189.1,58.7,189,58.6,189.1,58.7C189,58.7,189,58.7,189.1,58.7C189.1,58.7,189.1,58.7,189.1,58.7z
			"/>
		<path class="st3" d="M188.7,138.4C188.7,138.4,188.7,138.4,188.7,138.4C188.7,138.4,188.7,138.4,188.7,138.4
			C188.7,138.4,188.7,138.4,188.7,138.4z"/>
		<polygon class="st3" points="188.7,138.4 188.8,138.4 188.7,138.4 		"/>
		<path class="st3" d="M40,152.1C40,152.1,40,152.1,40,152.1C40,152.1,40,152.1,40,152.1C40,152.1,40,152.1,40,152.1z"/>
		<path class="st3" d="M79.1,198.4c0.1,0,0.2-0.1,0.4-0.1C79.4,198.3,79.2,198.3,79.1,198.4C79.1,198.4,79.1,198.4,79.1,198.4z"/>
		<path class="st4" d="M8,154.2c-0.3-1.3-0.2-2.4,0.1-3.7c0.3-1.3,0.3-2.9-0.1-4c-0.9-2.3-0.5-4.5-0.6-6.8c-0.1-1.7-0.2-3.4-0.4-5
			c-0.4-6-0.1-12,0-18c0-1.8,1.2-2.7,3-2.6c0.5,0,1.1,0,1.6,0.1c3.4,0.6,4.7-3.3,4-5.4c-0.9-2.5-1.6-5.1-1.9-7.8
			c-0.1-0.6-0.5-1.5,0.4-1.6c0.8-0.1,1.1,0.7,1.2,1.5c0.4,2.9,1.9,5.6,2.1,8.5c0,0.1,0.2,0.3,0.3,0.4c0,0,0,0,0.1,0
			c-0.4-3.8-1.7-7.5-2.6-11.2c-1.9-7.9-3.9-15.7-5.9-23.6c-0.6-2.5-1.3-5-1.9-7.5c-0.3-1.2,0.1-1.8,1.3-2.1
			c14.5-3.4,28.8-7.8,43.1-11.8c15.3-4.3,30.7-8.6,46.2-12.1c3.7-0.8,7.6-1.3,11.3-2c4.7-0.8,9.3-2.1,13.9-3.2
			c2.1-0.5,2.7-0.3,3.4,1.7c2.3,6.2,4.5,12.3,6.7,18.5c0.5,1.3,0.1,1.7-1.2,1.7c-9.7,0.2-19.3,1.5-29,2.6c-14,1.6-28.1,3.4-42.1,4.7
			c-1.9,0.2-3.8,0.2-5.4,1.4c0,0,0,0,0,0c1.8-0.4,3.6-0.5,5.5-0.2c1.9,0.3,3.8-0.3,5.7-0.5c3.3-0.4,6.6-0.6,9.9-1.2
			c1.1-0.2,2.2,0,3.3,0c0.4,0,1,0.1,1.3-0.1c2.3-1.5,4.8-0.8,7.3-0.7c1.1,0,2,0,3-0.7c1-0.7,2.3-1,3.3-0.7c2.6,0.6,5.1-0.6,7.6-0.4
			c1.3,0.1,2.7-0.5,4.1-0.3c0.5,0,1.1-0.1,1.4-0.4c1.2-1,2.3-0.8,3.5-0.2c0.7,0.3,1.2,0.4,1.8-0.2c0.3-0.4,0.6-0.4,1-0.1
			c0.3,0.2,0.6,0.4,0.4,0.8c-0.2,0.4-0.5,0.6-0.9,0.6c-3.1,0-6.1,1.1-9.3,0.8c-0.9-0.1-1.7-0.1-2.5,0.4c-1.2,0.8-2.6,0-3.9,0.3
			c-4.4,1-8.9,1.6-13.5,1.7c-4.1,0.1-8.1,1.1-12.1,1.7c0,0,0,0,0,0c4.4-0.4,8.9-0.9,13.3-1.3c13.3-1.4,26.6-2.9,39.8-4.3
			c3.3-0.3,6.7-0.4,10-0.6c6-0.5,12.1-1.3,18.1-1.6c6.6-0.3,13.2-0.3,19.8-0.5c2.4,0,4.7-0.2,7-0.3c0.9,0,1.9-0.4,2.6,0.5
			c0.4-0.9-0.2-1.2-0.9-1.2c-1.2,0-2.4,0.2-3.6,0.2c-0.4,0-0.8,0.2-1-0.2c-0.2-0.5,0.1-0.8,0.4-1.1c0.1-0.1,0.3-0.2,0.4-0.2
			c2.4-0.5,4.9-1.1,7.3-1.6c0.2,0,0.4,0.1,0.6,0.2c1.5,0.6,2.3,1.7,2.6,3.2c0,0,0,0,0,0c0.9-1.4-0.4-2.2-1-3.1
			c-1.1-0.9-2.4-1-3.7-0.8c-2.9,0.5-5.9,0.6-8.8,0.6c-11.2,0.2-22.4,0.1-33.6,1.7c-3.6,0.5-3.6,1-5-3c-2.2-6.5-5-12.7-7-19.3
			c-1-3.5-1.8-4-5.3-3.2c-4.4,1-8.8,2.2-13.3,3.1c-12.1,2.5-24.3,4.8-36.2,8c-8.1,2.1-16.1,4.4-24.1,6.7c-5.4,1.6-10.9,3.1-16.3,4.7
			c-9.3,2.7-18.6,5.5-28.1,7.4c-2.3,0.5-3.5,2-2.8,4.5c0.6,1.9,1.4,3.8,1.8,5.8c1.1,7.3,3.4,14.4,4.9,21.6
			c1.1,5.5,2.8,10.8,3.8,16.3c0.4,2.1,0.3,2.3-1.9,2.7c-0.3,0-0.5,0.1-0.8,0.1c-5.9,1.1-5.5-0.1-6,6.7c-0.8,11.6,0.6,23.1,1.8,34.5
			C7.5,154,7.7,154.1,8,154.2C8,154.2,8,154.2,8,154.2z M131.7,59.7c0,0.8-0.7,1-1.1,1.1c-4.5-0.3-8.6,1.2-12.9,1.2
			c-0.4,0-0.8,0-1.1-0.1c-0.4-0.1-0.7-0.3-0.7-0.8c0.1-0.4,0.4-0.6,0.9-0.6c1.7,0.2,3.4-0.3,5-0.6c2.9-0.7,5.9-0.4,8.9-0.8
			C131.2,59.1,131.7,59.2,131.7,59.7z M172.9,57.5c0-0.4,0.4-0.4,0.7-0.5c0.9-0.2,1.7,0,2.4,0.7c-0.8,0.5-1.5,0.3-2.3,0.3
			C173.4,57.9,172.9,58.1,172.9,57.5z M155.8,57.2c0.8-0.4,1.5,0.1,2.1,0.4c-0.1,0.2-0.1,0.2-0.1,0.2c-0.7,0.2-1.4,0.6-2.1,0
			C155.5,57.7,155.6,57.3,155.8,57.2z M134.4,57.8c1-1.8,1-1.8,2.6-0.6c1.1,0.8,2.1,1.8,3.6,1.8c0.4,0,0.8,0.1,0.8,0.6
			c0,0.5-0.5,0.5-0.9,0.6c-0.6,0.1-1.2,0.2-2,0.3c-1.1,0.4-2.6,0.2-4,0.3c-0.8,0-1.6-0.2-1.9-1c-0.3-0.9,0.6-0.9,1.1-1.3
			C134,58.4,134.2,58.1,134.4,57.8z"/>
		<path class="st5" d="M166.2,190.5C166.2,190.5,166.2,190.5,166.2,190.5C166.2,190.5,166.2,190.5,166.2,190.5
			C166.2,190.5,166.2,190.5,166.2,190.5z"/>
		<path class="st6" d="M189.4,92.4L189.4,92.4L189.4,92.4c-0.2-1.5-0.3-3,0.1-4.5c0.5-1.7-0.2-3.4-0.1-5.2c0.1-0.7,0-1.4,0-2.1
			c-0.1-0.5-0.4-0.9-0.9-1.2c0,2.6,0,5.2,0,7.8c0,1.5,0,2.9,0,4.4c0,2.4-2.2,3.1-3.5,4.5c-0.5,0.6-1,0.7-1.6,0.3
			c-0.5,0.1-0.9,0.1-1.4,0.2l0,0c-4.9,0.9-9.7,2.6-14.6,3.6c-0.7,0.2-1.3,0.5-1.5,1.3c0,0.9,0.1,1.7,0.5,2.5c1.3,2.9,1.9,6,2,9.2
			c0,1.3,1.2,2.2,1.6,3.5c0.3,1.2,0.7,2.3,0.8,3.5c0.2,1.8,1,3.4,1.5,5.2c0.8,3.1,1.6,6.2,2.9,9.1c0.2,0.5,0.1,1.4-0.1,1.9
			c-0.5,1.1-0.5,2.1-0.3,3.2c0.4,0.7,1.3,0.8,1.9,1.2c0.4,0.1,0.8,0.3,1.1,0.2c3.6-1.1,7.5-1.3,11.1-2.5c0,0,0,0,0,0
			c-1.8,0.3-3.6,0.7-5.4,0.9c-1.4,0.2-2.9-0.3-4.3,0.7c-0.7,0.5-1.7-0.2-2-1c-0.3-0.8,0.5-1.1,1.1-1.2c3.3-0.6,6.5-2.5,10-1.1
			c0.9,0.3,1.4,0.7,0.7,1.6c0,0,0,0,0,0c2.7,0.3,5.2-0.5,7.8-1c2.8-0.6,5.6-1.6,8.4-2.2c2.2-0.4,3.7-1.4,4.7-3.4
			c0.6-1.8,0.7-3.6-0.2-5.3c-1.8-3.5-2.6-7.4-3.4-11.2c-1.3-6-2.7-12-4.5-17.9c-0.3-1-0.5-2-0.5-3.1c-1-2.5-1.5-2.7-4.3-2.2
			c-1.1,0.2-2.2,0.3-3.4,0.5c-1.1,0.2-2.2,0.3-3.3,0.6C189.2,93.5,189.3,92.9,189.4,92.4z M197.5,98.7c1.7,4.7,2.4,9.6,3.6,14.5
			c0.9,3.8,1.8,7.7,2.7,11.5c0.4,1.8,1.5,3.4,1.7,5.3c0.1,0.9-0.1,1.2-0.8,1.4c-7,1.7-13.9,4-21.1,4.7c-0.1,0-0.1,0-0.2,0
			c-4.5,0.6-4.4,0.6-6-3.7c-3.3-8.8-5.4-17.9-7.3-27.1c-0.3-1.7,0-2.3,1.7-2.7c3.6-0.9,7.1-1.7,10.7-2.6c0.5-0.1,1.1-0.1,1.4-0.6
			c-0.2,0-0.4,0-0.7,0c1.4-0.6,2.6-1.8,4.3-1.4c1.9,0,3.6-0.9,5.3-1.4C195.8,95.6,196.5,95.9,197.5,98.7z"/>
		<path class="st7" d="M77.3,199.1c6.5-0.6,13.1,0.2,19.5-1.9c0.6-0.2,1.2-0.1,1.8-0.1c5.2,0.1,10.5-0.2,15.7-0.8
			c2.9-0.3,5.7-1,8.6-0.7c5.5,0.5,11-0.4,16.5-0.6c4.3-0.2,8.6-0.7,12.9-0.5c3.5,0.2,7,0.4,10.5,0c2.8-0.3,5.7-0.6,8.5-0.3
			c4.9,0.4,9.6-0.2,14.2-1.2c3.6-0.8,6-3,5.6-6c-0.5-3.6,0.7-6.9,0.9-10.4c0.1-1.6,0.4-3.2,0.4-4.9c0.1-6.5,0-13,0.2-19.4
			c0.1-2.8,0.8-5.6,0.1-8.5l0,0l0,0c1.2-0.6,2.3-1.3,3.6-1.6c5.1-1.3,10.2-2.8,15.4-3.6c1.1-0.2,1.8-0.6,2.1-1.7
			c0.5-0.9,0.3-1.9,0.2-2.8c-0.7-5.4-2.4-10.5-3.4-15.8c-0.3-1.8-0.8-3.6-1.4-5.4c-1.3-3.7-2.8-7.4-3.4-11.4c-0.4-2.8-0.8-6-4.5-6.8
			c-0.1,0-0.2-0.1-0.3-0.2c0,1,0.2,2.1,0.5,3.1c1.8,5.9,3.2,11.9,4.5,17.9c0.8,3.8,1.6,7.7,3.4,11.2c0.9,1.7,0.8,3.5,0.2,5.3
			c-1,2-2.5,2.9-4.7,3.4c-2.8,0.6-5.6,1.6-8.4,2.2c-2.5,0.5-5.1,1.3-7.8,1c0,0,0,0,0,0l0,0c0,0,0,0-0.1,0c-3.6,1.2-7.4,1.4-11.1,2.5
			c-0.3,0.1-0.7-0.1-1.1-0.2c0.2,0.4,0.4,0.8,0.5,1.2c0.3,1.2,1,1.8,2.3,1.9c0.9,0.1,2,0,2.5,1.1c0.5-0.7,1.1-1.1,2-1.2
			c1.2-0.1,2.4-0.3,3.5-0.5c0.8-0.1,1.4,0,1.7,0.8c-0.3,5.3-0.9,10.5-0.7,15.8c0.1,2.9-0.9,5.7-0.6,8.6c0.3,2,0.2,4-0.6,5.9
			c0.2,3.5-0.2,6.9-1.1,10.3c-0.7,2.8-2.6,4.4-5.3,4.9c-4.1,0.8-8.2,0.8-12.3,0.9c0,0,0,0,0,0l0,0c-1,0-2,0.3-2.9,0.2
			c-0.1,0-0.3,0-0.5,0c-4.9,0.1-9.9-0.1-14.8-0.4c-1.2-0.1-2.5-0.2-3.7,0.1l0,0c-5.4-0.5-10.7,0.1-16.1,0.1c-1.6,0-3.3-0.1-4.9,0.1
			c-2.5,0.3-5.1-0.3-7.6,0.3l-0.2,0c-1.3-0.5-2.4,0.1-3.7,0.1c-6.9-0.1-13.8,0-20.6,1.3c-0.8-0.3-1.5-0.1-2.3,0.1
			c-4.4,0.8-8.7,1.4-13.2,1.6c-4,0.2-8,0.4-11.9,0.6c0.5,0.6,0.9,1.3,1.1,2.1l0,0c1.2,1.4,2.7,2.2,4.6,1.9c1.7,0.1,3.3,0.1,5,0.2
			c0,0,0,0,0,0C77,199,77.2,199.1,77.3,199.1z M79.1,198.4C79.1,198.4,79.1,198.4,79.1,198.4c0.1-0.1,0.2-0.1,0.4-0.1
			C79.4,198.3,79.3,198.4,79.1,198.4z"/>
		<path class="st7" d="M189.1,58.7C189.1,58.7,189.1,58.7,189.1,58.7L189.1,58.7c0.5,2.8,0.1,5.5,0.3,8.3c0.2,2.7,0.1,5.4,0.1,8.1
			c0,1.9,0.1,3.7,0.1,5.6c0.1,3.4,0.6,6.7,0.2,10.1c-0.1,0.6-0.1,1.2-0.5,1.7l0,0c-0.1,0.5-0.2,1.1,0.7,0.8c1.1-0.3,2.2-0.4,3.3-0.6
			c0-0.9-0.1-1.7-0.1-2.6c-0.2-3-0.6-6-0.6-9c0-4.6,0-9.1,0.8-13.6c0.5-2.7-0.5-5.3-1-7.9c-0.5-2.7-1.5-3.7-4.3-3.9
			C188.7,56.5,189.9,57.3,189.1,58.7z"/>
		<path class="st7" d="M57.7,184c0-1.4-0.6-1.8-2-1.7c-5.3,0.5-10.5,1-15.6,2.7c-2,0.7-2.8,0.3-3.7-1.6c-0.2-0.5-0.5-1-1-1.2
			c0.4,1,0.7,2,1.2,3c0.6,1.3,1.6,2.4,3.1,2.7c4.1,1,8.2,0.8,12.2-0.4c2.1-0.6,4.2-1.7,6.4-0.2C58.1,186.2,57.7,185.1,57.7,184z"/>
		<path class="st3" d="M174.6,139.6c-0.5-0.2-0.7-0.7-0.6-1.1c0.2-3.5-1.4-6.5-2.5-9.6c-2.3-7-3.6-14.2-5.2-21.3
			c-0.3-1.1-0.6-2.2-0.9-3.3c-0.3-1-0.3-1.9,0.4-2.8c0.2-0.8,0.8-1.1,1.5-1.3c4.9-1.1,9.6-2.8,14.6-3.6l0,0l0,0
			c1.1-0.4,1.5-1.2,1.5-2.4c0.4-5.8-0.2-11.6,0.3-17.3c0.4-5.6,0.1-11.2-0.2-16.8c-0.1-0.2-0.2-0.4-0.4-0.6
			c-0.7-0.9-1.7-0.5-2.6-0.5c-2.3,0.1-4.7,0.2-7,0.3c-6.6,0.1-13.2,0.1-19.8,0.5c-6.1,0.3-12.1,1.1-18.1,1.6
			c-3.3,0.3-6.7,0.3-10,0.6C112.3,63.1,99,64.6,85.7,66c-4.4,0.5-8.9,0.9-13.3,1.3c0,0,0,0,0,0c0,0-0.1,0-0.1,0
			c-0.3,0.1-0.6,0.1-1,0.2c-3.6,0.4-7.3,0.9-10.9,1.3c-1.4,0.2-2,0.8-1.9,2.3c0.1,2.2,0.2,4.5,0,6.7c-1.1,14.9-0.9,29.8-0.4,44.8
			c0.6,18.3,0.7,36.5,2.9,54.7c0.5,3.9,2.1,7.6,2,11.5c0.8,0.9,1.7,1.1,2.8,1c7.8-1,15.6-0.5,23.4-1.7c9.4-1.5,19-1.7,28.5-1.9
			c15-0.3,30.1-0.7,45.1-1.1c3.6-0.1,7.2-0.2,10.8-0.3c0.8,0,1.5-0.1,2.3-0.2c4-0.5,4.2-0.7,4.3-4.7c0.4-10.5,0.4-21,1.3-31.5
			c0.1-1.2-0.4-2.4,0.1-3.5c-0.6-1-1.6-0.9-2.5-1.1c-1.2-0.2-2-0.7-2.3-1.9c-0.1-0.4-0.3-0.8-0.5-1.2
			C175.9,140.4,175,140.3,174.6,139.6z M131,154.1c-0.4,3.1-1.7,5.8-3.4,8.4c-0.2,0.4-0.6,0.7-1.1,0.5c-0.6-0.2-0.9-0.8-1.1-1.3
			c-0.7-2.3-0.8-2.3-3.2-2.1c-2.1,0.2-4.2,0.3-6.2,0.4c-2.3,0.2-2.8,0.7-2.6,3c0.1,1.5,0.2,3-0.3,4.5c-0.6,1.6-1.7,2.5-3.4,2.6
			c-4.3,0.2-8.6,0.4-13,0.7c-4,0.2-8.1,0.5-12.1,0.8c-0.7,0-1.3,0-2,0.1c-1.2,0-1.9-0.5-1.9-1.7c0.1-5.1-1.3-10-1.4-15
			c0-1.8-0.4-3.6-0.7-5.4c-0.4-1.8-0.1-2.3,1.7-2.6c4.6-0.8,9.3-1.6,13.9-2.4c0,0.1,0,0.2,0,0.2c4.6-0.6,9.2-1.2,13.8-1.8
			c2.5-0.3,3.9,0.7,4.3,3.1c0.5,2.7,0.7,5.3,0.6,8c0,1.3,0.5,1.7,1.8,1.5c1.9-0.4,3.8-0.5,5.7-0.4c1,0,1.6-0.1,0.9-1.4
			c-0.9-1.6,0.1-3,1.9-2.8c2.3,0.4,4.6,1,6.9,1.5C131,152.7,131.1,153.4,131,154.1z M124.1,134c-7.9-0.3-15.1-2.7-20.7-8.5
			c-1.6-1.6-3-1.9-5.1-1.1c-4.8,1.8-9.7,1.8-14.5-0.3c-1.2-0.6-2.3-1.3-2.8-2.6c-0.3-0.6-0.7-0.9-1.3-1.1c-2-0.9-3.4-2.4-4.1-4.4
			c-0.7-2.1-1.6-4.1-2.6-6c-0.8-1.4-1-3-0.8-4.6c0.3-2.7,0.4-5.3,0.8-8c1.2-9.6,6-15,15.5-17.4c1.7-0.4,3.4-0.8,5-1.5
			c0.6-0.3,1.3-0.4,1.9-0.2c4.9,0.9,9.5,2.7,12.9,6.6c0.1,0.2,0.3,0.3,0.5,0.5c1.8,2,3.5,3.2,6.5,1.6c3.2-1.8,7-1.5,10.6-1.1
			c1.4,0.1,2.6,0.7,2.8,2.3c0.1,0.6,0.3,0.8,0.9,0.9c9,1.3,14.4,6.7,15.9,15.7c0.1,0.4,0.1,0.8,0.2,1c0.9,4.2,0.6,8.3-0.2,12.3
			c-0.2,1.1-0.6,2.2-1.3,3.2c-3.6,5.2-8.1,9.5-14,11.9C128.2,133.8,126.2,134.1,124.1,134z M173.8,164c-3,5.3-7.4,8.5-13.5,9.6
			c-4.7,0.4-9.5,0.8-14.3-0.4c-2.4-0.6-4.6-1.6-6.2-3.7c-0.7-1-1.1-1.9-0.2-2.9c0.6-0.7,0.5-1.6,0.3-2.5c-1.3-4.9-0.5-9.2,2.8-13.2
			c3-3.7,5.9-7.3,10.6-8.6c6.5-1.8,12.5-0.7,17.6,3.8c1.9,1.7,4,3.3,4.4,6.1C175.9,156.3,175.9,160.3,173.8,164z"/>
		<path class="st3" d="M55.7,66.8c1.6-1.2,3.6-1.2,5.4-1.4c14.1-1.2,28.1-3.1,42.1-4.7c9.6-1.1,19.2-2.4,29-2.6
			c1.3,0,1.7-0.5,1.2-1.7c-2.3-6.2-4.5-12.3-6.7-18.5c-0.7-2-1.3-2.2-3.4-1.7c-4.6,1.1-9.2,2.4-13.9,3.2c-3.8,0.7-7.6,1.1-11.3,2
			c-15.6,3.4-30.9,7.7-46.2,12.1c-14.3,4.1-28.6,8.4-43.1,11.8c-1.2,0.3-1.7,0.8-1.3,2.1c0.7,2.5,1.3,5,1.9,7.5
			c2,7.9,3.9,15.7,5.9,23.6c0.9,3.7,2.2,7.4,2.6,11.2c0,0,0,0-0.1,0c0,0,0.1,0.1,0.1,0.1c0.1,0.2,0.1,0.4,0.2,0.6
			c0.8,0.9,1.9,0.6,2.9,0.5c5.1-0.3,10.1-0.9,15.2-1c0.3,0,0.6-0.1,0.9,0c1.4-0.3,2.1,0.6,2.8,1.6c0.3,0.2,0.6,0.4,1,0.5
			c2.6,0.7,4.8,3.1,4.6,5.8c-0.3,5.4,0.2,10.8-0.2,16.1c-0.1,1.6-0.2,3.1,0.4,4.6c0.3,0.7,0.5,1.6,0.4,2.4c-0.4,2.4,0.2,4.7,0.6,7
			c0.5,3.4-0.4,5.2-3.6,6.2c-1.5,0.5-2.8,1.6-4.4,1.5c0,0,0,0-0.1,0c0,0,0,0,0,0c-0.3,0-0.6,0.1-0.9,0.1c-1.9,0.3-3.8,0.6-5.7,1
			c-0.1,0-0.3,0-0.4,0.1c0,0,0,0,0,0l-0.8,0.3c0,0,0,0,0,0c0.5,0.9,0.6,2.4,0.9,3.1c0,0.1,0.1,0.2,0.1,0.3c0.1,0.1,0.1,0.2,0.2,0.3
			c0,0.2,0.1,0.3,0.1,0.5c0.1,0.2,0.1,0.3,0.2,0.5c0.1,0.1,0.1,0.2,0.2,0.2c0.7,2.1,1.4,4.2,2.2,6.3c0.1,0.2,0.2,0.4,0.2,0.6
			c0.3,0.8,0.6,1.5,0.9,2.3c0.1,0.3,0.2,0.6,0.3,0.8c0.4,1,0.8,1.9,1.2,2.8c1.3,2.7,1.8,3,4.7,2.3c4.5-1,8.9-2.5,13.5-3
			c1-0.1,1.1-0.7,1-1.5c-0.2-1.7-0.4-3.4-0.5-5.1c-0.6-7-0.7-14.1-1.1-21.1c-0.4-9.3-0.7-18.6-0.8-27.9c0-6.2,0.1-12.3,0.2-18.5
			c0-5.5-0.8-11,0.6-16.5c0.1-0.3,0-0.5,0-0.8c-0.7-5.1,0.4-10.1,0.4-15.2C55.2,67.4,55.3,67,55.7,66.8
			C55.7,66.8,55.8,66.8,55.7,66.8C55.8,66.8,55.8,66.8,55.7,66.8z"/>
		<polygon class="st3" points="31.5,156.8 31.5,156.8 31.5,156.8 		"/>
		<path class="st8" d="M40.1,112.7c0.1,0.3,0.1,0.6,0.2,0.9C40.3,113.3,40.3,113,40.1,112.7z"/>
		<path class="st8" d="M37.1,109.9c-1.4,0.1-2.5,1.1-4,0.8c-0.6-0.1-0.9,0.5-0.8,1.2c0.1,0.7,0.4,1.1,1.2,1c2.7-0.1,2.6,0,3.8,2.5
			c1.3,2.6,1.3,5.4,1.5,8.3c0.2,2.9-0.1,5.8,0.4,8.6c0.4,2.2,0.3,4.1-0.4,6.1c-0.4,1.2-0.1,2.7-0.1,4c-0.1,1.4-0.2,2.8-0.4,4.2
			c-0.1,1.3-0.9,2-2.2,2.1c-7.1,0.7-14.3,0.7-21.4,2.3c-2.3,0.5-2.8,0.1-3.1-2.1c-1.6-9.8-3-19.6-1.9-29.5c0.2-1.4,0.7-2.3,2-2.8
			c2.1-0.8,4.3-1.3,6.5-1.6c2.3-0.7,4.7-0.4,7-0.9c0.7-0.1,1.6-0.1,1.4-1.2c-0.2-1-1-0.8-1.7-0.8c-1.5,0-3,0.1-4.6,0.1
			c-1.1,0-2-0.4-2.4-1.6c-0.1-0.2-0.1-0.4-0.2-0.6c0,0-0.1-0.1-0.1-0.1c-0.1-0.1-0.3-0.3-0.3-0.4c-0.3-3-1.8-5.6-2.1-8.5
			c-0.1-0.8-0.4-1.6-1.2-1.5c-0.9,0.1-0.5,1-0.4,1.6c0.4,2.7,1,5.2,1.9,7.8c0.7,2.1-0.7,6-4,5.4c-0.5-0.1-1.1,0-1.6-0.1
			c-1.8-0.1-3,0.8-3,2.6c-0.1,6-0.4,12,0,18c0.1,1.7,0.3,3.4,0.4,5c0.1,2.2-0.3,4.5,0.6,6.8c0.4,1.1,0.4,2.8,0.1,4
			c-0.3,1.3-0.4,2.5-0.1,3.7c0,0,0,0.1,0,0.1c0.6,1.7,1.9,1.8,3.3,1.5c4.5-1,9.1-1.5,13.6-2.1c2.6-0.5,5.3-0.9,7.8-1.7
			c2.5-0.8,5.1,0,7.6-0.6c1.2-0.3,2.5-0.6,2.6-2.2l0,0c0-0.2-0.1-0.4-0.1-0.5c-0.7-1.5-0.1-3.2-0.5-4.7c-1.1-4.2-1.2-8.4-0.3-12.7
			c0.1-0.6-0.4-1.2-0.5-1.8c-0.8-4.1-0.7-8.2-1.1-12.3c-0.2-1.5-0.7-2.9-0.3-4.4c-0.1-0.4-0.2-0.8-0.2-1.2
			C39.2,110.5,38.5,109.6,37.1,109.9z"/>
		<path d="M184.6,59.3c0.2,0.6,0.4,1.1,0.5,1.7l0,0c0,0.1,0,0.2,0.1,0.3c0.1,0.6,0.2,1.3,0.3,1.9c0,3.2-0.1,6.4,0,9.6
			c0.2,6.1,0.2,12.3,0,18.4c-0.1,1.6,0.3,3.2-0.4,4.8l0,0c1.3-1.4,3.5-2,3.5-4.5c0-1.5,0-2.9,0-4.4c0-2.6,0-5.2,0-7.8
			c0-2.4-0.4-4.9,0-7.3c0.5-3.3-0.4-6.5-0.3-9.7c0.1-1.4,0.3-2.5,0.8-3.7l0,0c0,0,0-0.1,0-0.1c-0.3-1.5-1.1-2.6-2.6-3.2
			C184,56.3,183.6,57,184.6,59.3z"/>
		<path class="st8" d="M130.7,59.2c-3,0.3-6,0.1-8.9,0.8c-1.6,0.4-3.3,0.8-5,0.6c-0.4-0.1-0.8,0.1-0.9,0.6c-0.1,0.5,0.3,0.7,0.7,0.8
			c0.3,0.1,0.7,0.1,1.1,0.1c4.2,0,8.3-1.5,12.9-1.2c0.4-0.1,1.1-0.3,1.1-1.1C131.7,59.2,131.2,59.1,130.7,59.2z"/>
		<path class="st8" d="M132.6,59.8c0.3,0.8,1.1,1,1.9,1c1.4-0.1,2.8,0.1,4-0.3c0.8-0.1,1.4-0.2,2-0.3c0.4-0.1,0.8-0.1,0.9-0.6
			c0-0.5-0.5-0.6-0.8-0.6c-1.5,0-2.5-1-3.6-1.8c-1.6-1.1-1.6-1.1-2.6,0.6c-0.2,0.3-0.4,0.6-0.6,0.7
			C133.3,58.9,132.3,58.9,132.6,59.8z"/>
		<path class="st8" d="M183.9,60.2c0.8,2,1,4.1,0.8,6.2c-0.3,3.2,0.2,6.5,0.2,9.8c0,2.3-0.4,4.5-0.6,6.8c-0.2,3.4,0.1,6.8-0.2,10.2
			c-0.1,1.1-0.3,2.1-0.9,3.1c0.6,0.4,1.2,0.3,1.6-0.3l0,0c0.7-1.6,0.4-3.2,0.4-4.8c0.2-6.1,0.2-12.3,0-18.4c-0.1-3.2,0-6.4,0-9.6
			c-0.6-0.6-0.7-1.2-0.3-1.9c0-0.1,0-0.2-0.1-0.3l0,0c-0.1-0.6-0.2-1.2-0.5-1.7c-1-2.3-0.6-3,1.9-3.8c-0.2-0.1-0.4-0.2-0.6-0.2
			c-2.4,0.5-4.9,1-7.3,1.6c-0.2,0-0.3,0.1-0.4,0.2c-0.3,0.3-0.7,0.7-0.4,1.1c0.2,0.5,0.6,0.3,1,0.2c1.2-0.1,2.4-0.2,3.6-0.2
			c0.8,0,1.3,0.2,0.9,1.2c0.1,0.2,0.2,0.4,0.4,0.6C183.7,60.1,183.8,60.1,183.9,60.2z"/>
		<path class="st9" d="M173.7,58c0.7,0.1,1.5,0.3,2.3-0.3c-0.7-0.7-1.5-0.9-2.4-0.7c-0.3,0.1-0.7,0.1-0.7,0.5
			C172.9,58.1,173.4,57.9,173.7,58z"/>
		<path class="st10" d="M157.9,57.9c0,0,0-0.1,0.1-0.2c-0.7-0.3-1.3-0.8-2.1-0.4c-0.2,0.1-0.3,0.5-0.1,0.7
			C156.4,58.4,157.2,58.1,157.9,57.9z"/>
		<path class="st11" d="M189.1,144.1c-0.3-0.8-1-0.9-1.7-0.8c-1.2,0.2-2.3,0.3-3.5,0.5c-0.9,0.1-1.5,0.5-2,1.2
			c-0.5,1.2,0,2.4-0.1,3.5c-0.9,10.5-0.8,21-1.3,31.5c-0.2,4-0.3,4.2-4.3,4.7c-0.8,0.1-1.5,0.2-2.3,0.2c-3.6,0.1-7.2,0.2-10.8,0.3
			c-15,0.4-30.1,0.7-45.1,1.1c-9.5,0.2-19,0.5-28.5,1.9c-7.8,1.2-15.6,0.7-23.4,1.7c-1.1,0.1-2.1-0.1-2.8-1
			c-0.6-0.4-0.5-1.1-0.6-1.6c-0.2-0.9-0.1-2-0.8-2.8c-0.5-0.6-1.2-1.1-2-0.9c-0.8,0.1-0.8,1-0.9,1.6c-0.3,2.5,1.6,4.1,2.6,6
			c0.6,1.1,2,2,3,3.1c0,0.1,0,0.1-0.1,0.2c0.6,0.1,1.2,0.2,1.8,0.3c4-0.2,8-0.4,11.9-0.6c4.4-0.2,8.8-0.8,13.2-1.6
			c0.7-0.1,1.5-0.4,2.3-0.1c0.5,0.2,2.2-0.4,2.8-0.5c1-0.1,2-0.3,3-0.4c2.1-0.2,4.2-0.3,6.3-0.4c4-0.1,7.9-0.1,11.9,0
			c2.6,0.1,5.5-0.1,8.1-0.4c1.6-0.2,3.3-0.1,4.9-0.1c5.4-0.1,10.7-0.7,16.1-0.1c1.2-0.3,2.5-0.2,3.7-0.1c4.9,0.3,9.9,0.5,14.8,0.4
			c0.2,0,0.3,0,0.5,0c-0.2,0-0.3,0-0.5,0c0.4-0.1,0.7-0.2,1.1-0.3c0.8,0.1,1.5-0.6,2.3,0c2.9-1.1,5.9-1,9-1.3
			c2.2-0.2,4.8-0.5,6.4-1.9c2.1-1.9,2.3-4.9,2.2-7.8c0-1.8-0.1-3.7,1.2-5.3c0.8-1.9,0.8-3.9,0.6-5.9c-0.4-2.9,0.7-5.7,0.6-8.6
			C188.2,154.6,188.8,149.3,189.1,144.1z"/>
		<path class="st12" d="M186,179.6c0.1,2.8-0.1,5.9-2.2,7.8c-1.6,1.4-4.1,1.7-6.4,1.9c-3,0.2-6.1,0.1-9,1.3c-0.7-0.6-1.5,0-2.3,0
			c0,0,0,0,0,0c-0.4,0.1-0.7,0.2-1.1,0.3c0.2,0,0.3,0,0.5,0c1,0.1,2-0.2,2.9-0.2l0,0c0,0,0,0,0,0c4.1-0.1,8.3-0.1,12.3-0.9
			c2.7-0.5,4.5-2.1,5.3-4.9c0.9-3.4,1.3-6.8,1.1-10.3C185.9,175.9,186,177.8,186,179.6z"/>
		<path class="st3" d="M187.6,98c-1.1,0.8-2.3,1.4-3.7,1.3c-0.3,0.6-0.9,0.5-1.4,0.6c-3.6,0.9-7.1,1.7-10.7,2.6
			c-1.7,0.4-2.1,1-1.7,2.7c1.9,9.2,4,18.3,7.3,27.1c1.6,4.3,1.6,4.4,6,3.7c0.1,0,0.1,0,0.2,0c7.2-0.7,14.1-3,21.1-4.7
			c0.7-0.2,1-0.5,0.8-1.4c-0.2-1.9-1.3-3.5-1.7-5.3c-0.9-3.8-1.7-7.7-2.7-11.5c-1.2-4.8-1.9-9.8-3.6-14.5c-1-2.8-1.7-3-4.5-2.2
			C191.2,97.1,189.5,98,187.6,98z M196.6,119.1c-2.7,0.5-5.4,0.9-8.1,1.4c0,0,0,0,0,0c-2.5,0.4-5,0.8-7.4,1.3
			c-0.6,0.1-1.2,0.2-1.8,0c-0.9-0.2-1.5-0.7-1.6-1.6c-0.1-0.9,0.7-1,1.3-1.2c1.5-0.6,3.1-0.7,4.6-1c3.5-0.8,7-1.7,10.5-2.5
			c0.6-0.2,1.3-0.4,1.9-0.4c1.2,0,2.6,0.1,2.7,1.7C198.9,118.2,197.9,118.8,196.6,119.1z M197.8,107.8c1.6,0.4,2,1.4,1.1,2.8
			c-0.7,1.1-1.8,1.6-3,1.9c-3.9,1-7.7,2.1-11.7,2.7c-1.7,0.3-3.3,0.6-5,0.8c-1.8,0.2-2.3-0.3-2.7-2.1c-0.2-0.7-0.3-1.5-0.5-2.2
			c-0.3-1.1-0.8-2.3,0.8-2.9c2-0.7,3-0.3,3.5,1.5c0.4,1.5,1.3,1.8,2.7,1.5c4.1-0.7,7.9-2.1,11.7-3.6
			C195.8,107.8,196.8,107.5,197.8,107.8z"/>
		<path class="st13" d="M165.4,104.3c0.3,1.1,0.6,2.2,0.9,3.3c1.7,7.1,2.9,14.4,5.2,21.3c1,3.1,2.7,6.1,2.5,9.6
			c0,0.4,0.2,0.9,0.6,1.1c-0.2-1.1-0.3-2.1,0.3-3.2c0.3-0.5,0.4-1.4,0.1-1.9c-1.3-2.9-2.1-6-2.9-9.1c-0.4-1.7-1.2-3.4-1.5-5.2
			c-0.2-1.2-0.5-2.3-0.8-3.5c-0.4-1.3-1.5-2.3-1.6-3.5c-0.1-3.2-0.8-6.3-2-9.2c-0.4-0.8-0.5-1.6-0.5-2.5
			C165.1,102.3,165.1,103.3,165.4,104.3z"/>
		<path class="st14" d="M184.4,83c0.1-2.3,0.6-4.5,0.6-6.8c0-3.3-0.5-6.5-0.2-9.8c0.2-2.2,0-4.2-0.8-6.2c-0.1-0.1-0.3-0.2-0.4-0.3
			c0.3,5.6,0.6,11.2,0.2,16.8c-0.4,5.8,0.1,11.6-0.3,17.3c-0.1,1.2-0.5,2-1.5,2.4l0,0c0.5-0.1,0.9-0.1,1.4-0.2
			c0.6-0.9,0.8-2,0.9-3.1C184.5,89.8,184.2,86.4,184.4,83z"/>
		<path class="st15" d="M188,136.8c-3.5-1.4-6.7,0.5-10,1.1c-0.5,0.1-1.4,0.4-1.1,1.2c0.3,0.8,1.2,1.5,2,1c1.4-1,2.9-0.5,4.3-0.7
			c1.8-0.2,3.6-0.6,5.4-0.9c0,0,0,0,0.1,0l0,0c0,0,0,0,0,0C189.4,137.5,188.9,137.1,188,136.8z"/>
		<path class="st4" d="M188.5,72.2c-0.4,2.4,0,4.9,0,7.3c0.5,0.3,0.7,0.7,0.9,1.2c0.1,0,0.2,0,0.3,0c0-1.9-0.1-3.7-0.1-5.6
			c0-2.7,0-5.4-0.1-8.1c-0.2-2.8,0.2-5.5-0.3-8.3c-0.5,1.2-0.8,2.4-0.8,3.7C188.1,65.7,189,68.9,188.5,72.2z"/>
		<path class="st13" d="M189.4,82.7c-0.1,1.7,0.6,3.4,0.1,5.2c-0.4,1.5-0.3,3-0.1,4.5l0,0c0.4-0.5,0.4-1.1,0.5-1.7
			c0.4-3.4-0.1-6.7-0.2-10.1c-0.1,0-0.2,0-0.3,0C189.4,81.4,189.4,82.1,189.4,82.7z"/>
		<path class="st16" d="M187.6,98c-1.7-0.4-2.9,0.7-4.3,1.4c0.2,0,0.4,0,0.7,0C185.4,99.4,186.5,98.7,187.6,98z"/>
		<path class="st17" d="M40.3,151.4c-2.5,0.7-5.1-0.1-7.6,0.6c-2.6,0.8-5.2,1.2-7.8,1.7c0.7,0.4,1.4,0,2.1-0.1
			c2-0.2,3.8-0.9,5.8-0.6c2.4-0.6,4.8-0.2,7.2-0.8c0,0,0,0,0,0c0.6-0.6,1.4-0.5,2.1-0.8c1-0.4,1.5-1,0.8-2.1
			C42.9,150.8,41.6,151.1,40.3,151.4z"/>
		<path class="st7" d="M27.1,156.9c-0.1,0-0.1,0,0.3-0.1c0.6,0,1.3-0.2,1.9-0.3c0.7-0.2,1,0,1.2,0.6c0,0,0,0,0,0.1l0.8-0.3
			c0,0,0,0,0,0c0,0,0,0,0,0c0,0,0,0,0,0c0,0,0,0,0,0c0.1,0,0.3,0,0.4-0.1c1.9-0.3,3.8-0.6,5.7-1c0.3,0,0.6-0.1,0.9-0.1c0,0,0,0,0,0
			c0,0,0,0,0.1,0c1.7,0.1,2.9-1.1,4.4-1.5c3.3-1,4.2-2.8,3.6-6.2c-0.4-2.3-1-4.6-0.6-7c0.1-0.8,0-1.7-0.4-2.4
			c-0.7-1.5-0.6-3.1-0.4-4.6c0.4-5.4-0.1-10.8,0.2-16.1c0.2-2.7-2-5.1-4.6-5.8c-0.3-0.1-0.7-0.3-1-0.5c0.1,0.4,0.2,0.8,0.2,1.2
			c0.2,0.3,0.2,0.6,0.2,0.9c0.8,3.7,1.3,7.4,1.7,11.2c0.6,5.3,0.7,10.6,0.3,15.9c-0.2,2.2,0.7,4.4,0.6,6.7c0,0.4,0,0.9-0.1,1.3
			c0,0.2,0.1,0.4,0.1,0.5l0,0c0.7,1.1,0.2,1.7-0.8,2.1c-0.7,0.3-1.5,0.2-2.1,0.8c0,0,0,0,0,0c0,0,0,0,0,0c-2.4,0.6-4.8,0.3-7.2,0.8
			c-2-0.3-3.9,0.4-5.8,0.6c-0.7,0.1-1.4,0.4-2.1,0.1c-4.6,0.6-9.1,1.2-13.6,2.1c-1.4,0.3-2.8,0.2-3.3-1.5c0,0,0,0-0.1,0
			c-0.2-0.1-0.4-0.2-0.6-0.3c0,1.6,1.5,2.2,2.1,3.3c1.3,2.5,1.9,2.5,4.8,2.2c4-0.4,7.8-2.4,11.9-2.3c0,0.1,0.2,0.2,0.5,0.2
			C26.7,157.1,26.9,157,27.1,156.9z"/>
		<path class="st18" d="M145.4,117.9c0.9-4.1,1.1-8.1,0.2-12.3c0-0.2-0.1-0.6-0.2-1c-1.5-9-6.9-14.4-15.9-15.7
			c-0.6-0.1-0.8-0.3-0.9-0.9c-0.2-1.6-1.4-2.2-2.8-2.3c-3.6-0.4-7.4-0.6-10.6,1.1c-3,1.7-4.7,0.4-6.5-1.6c-0.1-0.2-0.3-0.3-0.5-0.5
			c-3.4-3.9-8-5.6-12.9-6.6c-0.7-0.1-1.3,0-1.9,0.2c-1.6,0.7-3.3,1.1-5,1.5c-9.5,2.3-14.3,7.7-15.5,17.4c-0.3,2.7-0.5,5.3-0.8,8
			c-0.2,1.6,0.1,3.2,0.8,4.6c1,1.9,1.9,3.9,2.6,6c0.7,2.1,2.1,3.6,4.1,4.4c0.6,0.2,1,0.5,1.3,1.1c0.5,1.3,1.6,2,2.8,2.6
			c4.8,2.2,9.7,2.1,14.5,0.3c2.1-0.8,3.5-0.5,5.1,1.1c5.6,5.8,12.8,8.2,20.7,8.5c2,0.1,4.1-0.2,6-1c6-2.5,10.4-6.7,14-11.9
			C144.8,120.2,145.2,119.1,145.4,117.9z M138.7,121c-2.2,2.4-4.6,4.5-7.4,6.1l0,0c-2.3,1.9-5,2.5-7.9,2.5c-6.9,0-12.6-2.7-17.5-7.4
			c-0.7-0.7-0.9-1.2,0.2-1.7c0.4-0.2,0.8-0.5,1.3-0.7c0.1-0.2,0.2-0.3,0.3-0.5c-1,0-1.5-0.5-1.6-1.5c-0.1-0.9-0.4-1.7-0.8-2.5
			c-0.4-0.1-0.7-0.3-1.1-0.4c-0.9,1.2-1.8,2.4-3.7,2c-0.6-0.1-1.1-0.2-1.1-0.9c0-1-0.7-1.4-1.4-1.8c-0.2,1.4,0.7,2.6,0.4,4
			c0.3,0.5,0.5,1.1-0.2,1.4c-3.3,1.2-6.6,2.8-10.4,1.8c-0.9,0.1-1.6-0.1-1.5-1.2c0-0.6-0.3-0.9-0.8-1.1c-4.4-1.5-6.1-5.4-7.6-9.3
			c-1.5-3.7-1-7.5-0.3-11.3c0,0,0,0,0,0c0,0,0,0,0,0c-0.2-0.7-0.3-1.3,0-2c0.2-5.2,5.3-10.4,9.6-11.8c0,0,0,0,0,0
			c0.5-0.4,1.1-0.5,1.7-0.5c1.8-0.6,3.6-1.2,5.5-1.6c2.7-0.5,5.1-0.1,7.2,1.9l0,0c0.5,0.2,0.9,0.5,1.1,1c1.4,1.2,2.8,2.4,4.2,3.7
			c0.7,0.6,0.9,1.3,0.4,2.2c0.4,0,0.7-0.1,1.1-0.1c1,0,1.3,0.5,0.8,1.4c-0.3,0.6-0.7,1.2-1.2,1.5c-1.1,0.7-1,1.4-0.4,2.4
			c0.4-0.3,0.9-0.5,1.2-0.8c0.8-0.6,1.3-0.2,1.6,0.5c0.9,0.5,1.7,0.9,2.3-0.4c0.3-0.7,1.2-0.5,1.9-0.3c0-0.3,0-0.7,0-1
			c-1.3-2-1.3-2,0.8-3.1c3.1-1.7,6.4-2.2,10.3-1.7c-0.9,0.9-1.6,1.8-0.4,2.7c1.4,0.8,3,0.5,4.5,0.5c3.3,0,6.1,1.6,7.8,4
			c4.1,5.6,4.9,12.1,3.5,18.9C140.9,117.8,140,119.5,138.7,121z"/>
		<path class="st19" d="M130.2,152.5c-2.3-0.5-4.6-1.2-6.9-1.5c-1.8-0.3-2.8,1.2-1.9,2.8c0.7,1.3,0.1,1.4-0.9,1.4
			c-1.9,0-3.8,0.1-5.7,0.4c-1.3,0.2-1.8-0.1-1.8-1.5c0.1-2.7-0.1-5.4-0.6-8c-0.4-2.4-1.8-3.4-4.3-3.1c-4.6,0.6-9.2,1.2-13.8,1.8
			c0-0.1,0-0.2,0-0.2c-4.6,0.8-9.3,1.5-13.9,2.4c-1.8,0.3-2.1,0.8-1.7,2.6c0.4,1.8,0.7,3.5,0.7,5.4c0.1,5,1.5,10,1.4,15
			c0,1.2,0.7,1.8,1.9,1.7c0.7,0,1.3,0,2-0.1c4-0.3,8.1-0.6,12.1-0.8c4.3-0.3,8.6-0.4,13-0.7c1.7-0.1,2.8-0.9,3.4-2.6
			c0.6-1.5,0.5-3,0.3-4.5c-0.2-2.3,0.2-2.8,2.6-3c2.1-0.2,4.2-0.3,6.2-0.4c2.5-0.2,2.5-0.2,3.2,2.1c0.2,0.6,0.5,1.1,1.1,1.3
			c0.5,0.2,0.9-0.2,1.1-0.5c1.7-2.6,3-5.3,3.4-8.4C131.1,153.4,131,152.7,130.2,152.5z M108.7,164.4c-0.1,0.4-0.1,0.9-0.7,1
			c-0.8,0.1-1.6,0.5-2.3-0.2c-0.5-0.5-1.1-1-1.6-1.5c-0.8-0.2-1.4-0.1-1.7,0.9c-0.2,0.6-0.6,1.2-1.3,1.4c0,0,0,0,0,0
			c-2.1,1-4.4,0.8-6.6,0.5c-0.8-0.1-1.4-0.1-2.1,0.3c-1.4,0.7-3,1.1-4.7,0.7c-0.1-0.1-0.3-0.2-0.4-0.2c-0.5,0.1-0.9-0.1-1.3-0.2
			c-0.2,0.1-0.3,0-0.4-0.2c-1.2-1.6-1-3.6-1.3-5.4c-0.1-0.9,0.7-0.2,1.1-0.1c0.5-1.2-0.1-2.1-1-2.8c-0.9-0.6-1.5-1.2-1.2-2.3
			c0.2-0.8-0.4-1.5-0.7-2.1c-0.6-1.1-0.5-1.8,0.7-2.3c0.7-0.7,1.6-0.7,2.5-0.7c0.6-0.2,1.2-0.1,1.8,0.1c0.6,0.2,1.4,0.2,1.9-0.5
			c-0.1-1.2,0.9-1,1.5-1.1c1-0.2,1.6,0.2,2,1.2c4.3,2.9,7.9,6.5,11.6,10.1c1.1,0.7,2.2,1.3,3.3,2
			C108.1,163.3,108.8,163.5,108.7,164.4z M108.6,158.7c-0.7,0.7-1.4,0.5-1.9-0.2c-1.9-2.3-4.1-4.1-6.3-5.9c-1-0.9-2.1-1.7-3.2-2.6
			c-0.2-0.2-0.7-0.3-0.6-0.7c0.1-0.5,0.6-0.4,0.9-0.5c1.2-0.2,2.1-0.1,3,1c1.2,1.4,2.7,2.6,4,3.8c1,0.4,1.9,0.8,2.9,1.1
			C108.5,155.3,109.3,157.9,108.6,158.7z M108.3,149.7c0,0.5,0.4,1.2-0.2,1.5c-0.6,0.3-1-0.3-1.4-0.6c-0.1-0.1-0.3-0.2-0.4-0.3
			c-0.4-0.6-1.7-0.8-1.2-1.9c0.3-0.7,1.2-0.5,1.8-0.5C108,147.9,108.3,148.8,108.3,149.7z"/>
		<path class="st20" d="M153.4,142.3c-4.7,1.3-7.7,5-10.6,8.6c-3.2,4-4.1,8.3-2.8,13.2c0.2,0.9,0.3,1.8-0.3,2.5
			c-0.9,1.1-0.5,2,0.2,2.9c1.6,2.1,3.8,3.1,6.2,3.7c4.8,1.2,9.5,0.8,14.3,0.4c6-1.2,10.5-4.3,13.5-9.6c2.1-3.7,2.1-7.7,1.6-11.8
			c-0.4-2.8-2.5-4.5-4.4-6.1C165.9,141.6,159.9,140.5,153.4,142.3z M171.2,157.4c-0.8,4.7-2.8,8.5-7.6,10.3c-0.5,0.6-1.3,0.8-2,1
			c-5.1,1.1-10.1,1.4-15.2,0.2c-1.2-0.3-2.4-0.7-2-2.4c0,0,0,0,0,0c0,0,0,0,0,0c-0.7-2.7-0.7-5.5-0.5-8.3c0.1-0.6,0.3-1.2,0.6-1.7
			c2.1-3.3,4.5-6.4,7.9-8.6c1.3-1.5,3.1-1.7,4.9-1.9c2.8-0.3,5.5-0.1,8,1.4C170.2,149.2,172,152.2,171.2,157.4z"/>
		<path class="st4" d="M20.4,112c1.5,0.1,3,0,4.6-0.1c0.7,0,1.5-0.2,1.7,0.8c0.2,1-0.7,1-1.4,1.2c-2.3,0.5-4.7,0.2-7,0.9
			c2.4,0.7,4.7-0.4,7.2-0.3c3.1,0.1,6.1,0,9.1-0.7c1.3-0.3,1.8,0.4,1.9,1.6c1,6.4,1.9,12.9,1.5,19.4c-0.1,2.6,0.1,5.1,0.7,7.7
			c0-1.3-0.3-2.8,0.1-4c0.7-2.1,0.8-3.9,0.4-6.1c-0.5-2.8-0.2-5.7-0.4-8.6c-0.2-2.8-0.2-5.6-1.5-8.3c-1.2-2.5-1.1-2.5-3.8-2.5
			c-0.8,0-1.1-0.4-1.2-1c-0.1-0.6,0.2-1.3,0.8-1.2c1.5,0.4,2.6-0.7,4-0.8c-0.3,0-0.6,0-0.9,0c-5.1,0.1-10.1,0.7-15.2,1
			c-1,0.1-2.1,0.4-2.9-0.5C18.4,111.6,19.4,111.9,20.4,112z M29.3,111.6c1-0.2,2-0.4,2.3,0.7c0.1,0.5,0,1.4-0.8,1.3
			c-0.9-0.1-2.2,0.3-2.5-0.9C27.9,111.7,28.9,111.7,29.3,111.6z"/>
		<path class="st21" d="M40.4,117.1c0.5,4.1,0.3,8.3,1.1,12.3c0.1,0.6,0.6,1.3,0.5,1.8c-0.9,4.3-0.9,8.5,0.3,12.7
			c0.4,1.5-0.2,3.2,0.5,4.7c0-0.4,0-0.9,0.1-1.3c0.1-2.3-0.8-4.5-0.6-6.7c0.4-5.3,0.3-10.6-0.3-15.9c-0.4-3.8-0.9-7.5-1.7-11.2
			c-0.1-0.3-0.1-0.6-0.2-0.9C39.8,114.2,40.3,115.6,40.4,117.1z"/>
		<path class="st14" d="M185.5,63.3c-0.1-0.6-0.2-1.3-0.3-1.9C184.8,62.1,184.9,62.7,185.5,63.3z"/>
		<path class="st22" d="M180.4,110.3c-0.6-1.9-1.6-2.3-3.5-1.5c-1.6,0.6-1,1.8-0.8,2.9c0.2,0.7,0.3,1.5,0.5,2.2
			c0.4,1.8,0.9,2.3,2.7,2.1c1.7-0.2,3.3-0.5,5-0.8c4-0.5,7.8-1.6,11.7-2.7c1.2-0.3,2.3-0.8,3-1.9c0.9-1.4,0.5-2.4-1.1-2.8
			c-1.1-0.3-2,0-3,0.4c-3.8,1.5-7.6,2.9-11.7,3.6C181.7,112.1,180.8,111.8,180.4,110.3z"/>
		<path class="st23" d="M196.1,115c-0.6,0-1.3,0.2-1.9,0.4c-3.5,0.8-7,1.7-10.5,2.5c-1.5,0.3-3.2,0.4-4.6,1
			c-0.6,0.2-1.4,0.3-1.3,1.2c0.1,0.9,0.8,1.4,1.6,1.6c0.6,0.1,1.2,0.1,1.8,0c2.5-0.4,5-0.8,7.4-1.3c0,0,0,0,0,0
			c2.7-0.5,5.4-0.9,8.1-1.4c1.3-0.2,2.3-0.9,2.2-2.4C198.6,115.1,197.3,115,196.1,115z"/>
		<path class="st0" d="M137.8,97c-1.8-2.4-4.5-4.1-7.8-4c-1.5,0-3.1,0.3-4.5-0.5c-1.3,0.4-2.6,0.5-3.9,0.5c-2.4,0-4.7,0.4-6.8,1.6
			c0,0.3,0,0.7,0,1c0.4,4.1,0.5,8.3-0.6,12.3c-0.9,3.3-1.7,6.8-4.8,9.1c-0.9,0.6-0.8,2.1-2,2.5c-0.1,0.2-0.2,0.3-0.3,0.5
			c5.8,4.9,12.7,6.9,20.1,7.5c1.3,0.1,2.6-0.6,3.9-0.2l0,0l0,0c2.8-1.6,5.2-3.7,7.4-6.1c1.3-1.5,2.3-3.2,2.7-5.2
			C142.7,109.1,141.9,102.6,137.8,97z"/>
		<path class="st0" d="M98.3,106.3c0.6-1.6,1-3.3,1.8-4.7c0.5-1,1.2-1.9,1.2-3.1c0.9-1.5,1.5-3.1,2.6-4.5c0.4-0.5,0.9-0.9,1.5-1.2
			c0.4-0.7,1-1,1.7-1.3c0.1-0.1,0.1-0.1,0.2-0.1c0.5-0.8,0.3-1.6-0.4-2.2c-1.4-1.2-2.8-2.4-4.2-3.7c-0.3-0.5-0.7-0.8-1.1-1l0,0
			c-2.1-2-4.5-2.4-7.2-1.9c-1.9,0.4-3.7,0.9-5.5,1.6c-0.6,0-1.2,0.1-1.7,0.5c0,0,0,0,0,0c-4.2,1.4-9.4,6.6-9.6,11.8
			c-0.3,0.7-0.2,1.3,0,2c0,0,0,0,0,0c0,0,0,0,0,0c-0.8,3.8-1.2,7.6,0.3,11.3c1.5,3.9,3.2,7.7,7.6,9.3c0.5,0.2,0.9,0.5,0.8,1.1
			c-0.1,1.1,0.6,1.2,1.5,1.2c3.7,1,7-0.6,10.4-1.8c0.7-0.2,0.5-0.9,0.2-1.4c0.3-1.4-0.6-2.6-0.4-4C97.3,111.6,97.9,108.9,98.3,106.3
			z"/>
		<path class="st24" d="M109.5,116.9c3.1-2.2,3.9-5.8,4.8-9.1c1.1-4,1-8.2,0.6-12.3c-0.7-0.2-1.6-0.4-1.9,0.3
			c-0.7,1.3-1.4,1-2.3,0.4c0,0.2,0,0.4,0,0.6c-0.1,0.8,0.5,1.9-0.5,2.2c-0.8,0.2-2.4-1.7-2.3-2.6c-0.6-0.9-0.7-1.7,0.4-2.4
			c0.5-0.3,0.8-1,1.2-1.5c0.5-0.9,0.2-1.3-0.8-1.4c-0.4,0-0.7,0.1-1.1,0.1c-0.1,0-0.2,0-0.2,0.1c0,0.2-0.2,0.4,0.1,0.6
			c0.2,0.2,0.7,0.2,0.5,0.6c-0.2,0.4-0.5,0.4-0.9,0.3c-0.5-0.1-0.9-0.2-1.4-0.3c-0.6,0.3-1.1,0.7-1.5,1.2c-1.1,1.4-1.7,3-2.6,4.5
			c-0.1,1.2-0.7,2.1-1.2,3.1c-0.8,1.5-1.2,3.1-1.8,4.7c-0.4,2.6-1,5.3-0.4,8c0.7,0.4,1.4,0.9,1.4,1.8c0,0.7,0.5,0.7,1.1,0.9
			c1.9,0.4,2.8-0.8,3.7-2c-2.1-2.4-2.7-5.1-1.1-8.1c1.5,1.5,2.6,3.5,4.6,4.7c0.6,0.3,0.1,0.8-0.1,1.1c-0.8,0.9-1.6,1.8-2.4,2.7
			c0.4,0.8,0.7,1.6,0.8,2.5c0.1,0.9,0.6,1.5,1.6,1.5C108.7,119,108.6,117.6,109.5,116.9z M104.9,103.1c-0.6-0.9,0-1.7,0.6-2.3
			c0.8-0.8,1.2,0.1,1.6,0.5c1.5,1.1,2.4,2.6,3.2,4c0.1,1.2-0.4,1.9-0.7,2.7c-0.3,0.7-0.6,0.2-0.9,0
			C107.2,106.5,106,104.8,104.9,103.1z"/>
		<path class="st3" d="M127.4,127.4c-7.4-0.6-14.3-2.6-20.1-7.5c-0.4,0.2-0.8,0.5-1.3,0.7c-1.1,0.5-0.9,1.1-0.2,1.7
			c4.9,4.7,10.7,7.4,17.5,7.4c2.9,0,5.6-0.6,7.9-2.5l0,0C129.9,126.8,128.7,127.5,127.4,127.4z"/>
		<path class="st3" d="M121.6,92.9c1.3,0,2.6-0.1,3.9-0.5c-1.2-0.9-0.5-1.8,0.4-2.7c-3.8-0.6-7.1,0-10.3,1.7
			c-2.1,1.1-2.1,1.2-0.8,3.1C116.9,93.4,119.2,92.9,121.6,92.9z"/>
		<path class="st0" d="M107.7,111.6c-2-1.2-3.1-3.2-4.6-4.7c-1.6,3-1,5.7,1.1,8.1c0.4,0.1,0.7,0.3,1.1,0.4c0.8-0.9,1.6-1.8,2.4-2.7
			C107.8,112.4,108.3,112,107.7,111.6z"/>
		<path class="st0" d="M110.1,99.1c1.1-0.3,0.4-1.4,0.5-2.2c0-0.2,0-0.4,0-0.6c-0.4-0.7-0.8-1.2-1.6-0.5c-0.4,0.3-0.8,0.5-1.2,0.8
			C107.8,97.4,109.3,99.3,110.1,99.1z"/>
		<path class="st0" d="M83.4,155.6c0,1.3,0.6,2.1,1.7,2.7c3.7,1.9,7.1,4.2,10.1,7.1c0.5,0.5,1,0.8,1.7,0.7c1.3-0.2,2.7-0.1,4-0.6
			c0.1-0.7-0.5-1-1-1.4c-3.7-3.5-7.5-7-11.6-10.1c-1.1-0.8-2.1-1.8-2.9-2.9c-0.9,0-1.8,0-2.5,0.7C83.4,153.1,83.4,154.4,83.4,155.6z
			"/>
		<path class="st25" d="M91,151.9c-0.6-0.4-1.2-0.7-1.8-1.1c-0.5,0.7-1.2,0.7-1.9,0.5c-0.6-0.2-1.2-0.3-1.8-0.1
			c0.8,1.1,1.8,2,2.9,2.9c4.1,3.1,7.9,6.6,11.6,10.1c0.4,0.4,1,0.7,1,1.4c0,0.1,0,0.2,0.1,0.3c0,0,0,0,0,0c0.7-0.2,1.1-0.8,1.3-1.4
			c0.3-1,0.9-1.1,1.7-0.9c-0.4-0.6-0.7-1.2-1.1-1.7C99,158.6,95,155.2,91,151.9z"/>
		<path class="st26" d="M97,166.1c-0.7,0.1-1.2-0.2-1.7-0.7c-3-2.9-6.4-5.2-10.1-7.1c-1.2-0.6-1.7-1.5-1.7-2.7c0-1.3,0-2.5-0.4-3.7
			c-1.2,0.5-1.3,1.2-0.7,2.3c0.4,0.7,0.9,1.3,0.7,2.1c-0.3,1.2,0.3,1.8,1.2,2.3c1,0.7,1.5,1.6,1,2.8c2,0.6,3.2,2.2,4.7,3.5l0,0
			c0.7,0.3,1.1,0.9,1.5,1.5c-1.2,0.8-2.5,0.9-3.8,1c1.6,0.3,3.2,0,4.7-0.7c0.7-0.4,1.3-0.4,2.1-0.3c2.2,0.3,4.5,0.4,6.6-0.5
			c0-0.1,0-0.2-0.1-0.3C99.7,166,98.3,165.9,97,166.1z"/>
		<path class="st0" d="M107.6,162.9c-1.1-0.7-2.2-1.3-3.3-2c-3.7-3.6-7.3-7.2-11.6-10.1c-0.3-0.9-1-1.4-2-1.2
			c-0.6,0.1-1.6-0.1-1.5,1.1c0.6,0.4,1.2,0.7,1.8,1.1c4,3.3,8,6.7,12,10c0.4,0.6,0.7,1.2,1.1,1.7c0.5,0.5,1.1,1,1.6,1.5
			c0.7,0.7,1.5,0.3,2.3,0.2c0.5-0.1,0.6-0.6,0.7-1C108.8,163.5,108.1,163.3,107.6,162.9z"/>
		<path class="st0" d="M106.9,147.9c-0.6,0-1.5-0.2-1.8,0.5c-0.5,1.1,0.8,1.2,1.2,1.9c0.1,0.1,0.2,0.2,0.4,0.3
			c0.4,0.4,0.9,0.9,1.4,0.6c0.6-0.3,0.2-1,0.2-1.5C108.3,148.8,108,147.9,106.9,147.9z"/>
		<path class="st0" d="M104.6,153.6c-1.4-1.3-2.9-2.4-4-3.8c-0.9-1.1-1.8-1.2-3-1c-0.4,0.1-0.8,0-0.9,0.5c-0.1,0.4,0.3,0.5,0.6,0.7
			c1.1,0.9,2.1,1.7,3.2,2.6c2.2,1.9,4.5,3.7,6.3,5.9c0.6,0.7,1.3,0.9,1.9,0.2c0.7-0.7-0.2-3.4-1.2-3.9
			C106.5,154.4,105.6,154,104.6,153.6z"/>
		<path class="st0" d="M91.5,166.4c-0.4-0.6-0.9-1.2-1.5-1.5l0,0c-1.4-1.3-2.7-2.9-4.7-3.5c-0.4-0.1-1.2-0.9-1.1,0.1
			c0.3,1.8,0.1,3.8,1.3,5.4c0.1,0.2,0.2,0.3,0.4,0.2c0.4,0.1,0.9,0.3,1.3,0.2c0.1,0.1,0.3,0.2,0.4,0.2
			C88.9,167.3,90.2,167.2,91.5,166.4z"/>
		<path class="st3" d="M165.2,147.4c-2.5-1.5-5.2-1.7-8-1.4c-1.8,0.2-3.6,0.4-4.9,1.9l0,0c0.4,0.2,0.8,0.2,1.3,0
			c3.7-1,7.4-0.8,11.1,0.3v0c1.7,1.6,2.3,3.5,2.1,5.7c-0.5,5.6-3,10.2-7.1,14c-0.2,0.8,0.4,0.6,0.8,0.5c1.1-0.1,2-0.9,3.1-0.9l0,0
			c4.7-1.8,6.8-5.6,7.6-10.3C172,152.2,170.2,149.2,165.2,147.4z"/>
		<path class="st0" d="M160.5,168.5c-0.4,0.1-1,0.3-0.8-0.5c4.1-3.8,6.6-8.4,7.1-14c0.2-2.2-0.5-4.2-2.1-5.7v0
			c-3.7-1.1-7.4-1.4-11.1-0.3c-0.4,0.1-0.9,0.1-1.3,0l0,0c-3.4,2.2-5.7,5.3-7.9,8.6c-0.3,0.5-0.5,1.1-0.6,1.7
			c-0.3,2.8-0.3,5.5,0.5,8.3c0,0,0,0,0,0c0,0,0,0,0,0c-0.3,1.7,0.8,2.1,2,2.4c5.1,1.2,10.2,0.9,15.2-0.2c0.7-0.2,1.5-0.4,2-1l0,0
			C162.5,167.7,161.6,168.4,160.5,168.5z"/>
		<path class="st8" d="M30.7,113.5c0.8,0.1,1-0.8,0.8-1.3c-0.3-1-1.2-0.9-2.3-0.7c-0.4,0.1-1.3,0.1-1.1,1
			C28.5,113.8,29.8,113.3,30.7,113.5z"/>
		<path class="st27" d="M33.4,127.6c-4.3,0.1-8.4,1.2-12.7,1.4c-2.4,0.1-2.9-0.2-3.2-2.4c-0.1-0.9-0.1-1.8-1.4-1.8
			c-1.2,0-2,0.2-2.2,1.6c-0.2,1-0.5,1.9-0.8,2.8c-0.2,1,0.2,1.7,1,2.2c0.9,0.5,1.9,1,2.9,0.9c4.8-0.5,9.6-0.2,13.9-0.8
			c1.2-0.2,2-0.3,2.7-0.5c1.4-0.3,1.5-1.4,1.4-2.5C35.1,127.2,34.2,127.6,33.4,127.6z"/>
		<path class="st28" d="M32.2,134.4c-3,0.5-6.1,0.5-9.2,0.7c-2.5,0.2-5.2-0.2-7.6,0.8c-0.7,0.3-1.7,0.6-1.4,1.7
			c0.3,1.1,1.2,1.5,2.3,1.4c1.1-0.1,2.3-0.3,3.4-0.4c3.9-0.3,7.9-0.6,11.8-0.8c0,0,0-0.1,0-0.1c0.4-0.1,0.9-0.1,1.3-0.2
			c1.2-0.3,2.1-0.7,1.7-2.2C34.2,133.8,33.1,134.3,32.2,134.4z"/>
		<path class="st3" d="M38.1,134.7c0.4-6.5-0.5-13-1.5-19.4c-0.2-1.2-0.6-1.9-1.9-1.6c-3,0.8-6.1,0.9-9.1,0.7
			c-2.4-0.1-4.7,1-7.2,0.3c-2.2,0.3-4.4,0.8-6.5,1.6c-1.4,0.5-1.9,1.4-2,2.8c-1.1,10,0.3,19.8,1.9,29.5c0.4,2.3,0.9,2.6,3.1,2.1
			c7-1.5,14.2-1.5,21.4-2.3c1.4-0.1,2.1-0.8,2.2-2.1c0.1-1.4,0.2-2.8,0.4-4.2C38.2,139.8,37.9,137.2,38.1,134.7z M32.8,137.6
			c-0.4,0.1-0.9,0.1-1.3,0.2c0,0,0,0.1,0,0.1c-3.9,0.3-7.9,0.5-11.8,0.8c-1.1,0.1-2.3,0.3-3.4,0.4c-1.1,0.1-2-0.3-2.3-1.4
			c-0.3-1.1,0.7-1.4,1.4-1.7c2.4-1,5.1-0.6,7.6-0.8c3.1-0.2,6.1-0.2,9.2-0.7c0.9-0.2,2-0.6,2.3,0.9C34.9,136.9,34,137.3,32.8,137.6z
			 M35.1,128.6c0,1.2,0,2.2-1.4,2.5c-0.7,0.2-1.5,0.3-2.7,0.5c-4.3,0.6-9.1,0.3-13.9,0.8c-1.1,0.1-2-0.4-2.9-0.9
			c-0.8-0.5-1.3-1.2-1-2.2c0.2-1,0.6-1.9,0.8-2.8c0.2-1.3,1.1-1.6,2.2-1.6c1.3,0,1.3,0.9,1.4,1.8c0.3,2.2,0.8,2.5,3.2,2.4
			c4.3-0.2,8.4-1.3,12.7-1.4C34.2,127.6,35.1,127.2,35.1,128.6z"/>
		<path class="st29" d="M106.8,93.1c0.4,0.1,0.8,0.1,0.9-0.3c0.2-0.4-0.3-0.5-0.5-0.6c-0.2-0.2-0.1-0.4-0.1-0.6
			c-0.7,0.2-1.4,0.6-1.7,1.3C105.9,92.9,106.4,93,106.8,93.1z"/>
		<path class="st0" d="M109.6,108c0.3-0.8,0.8-1.5,0.7-2.7c-0.8-1.4-1.8-2.9-3.2-4c-0.5-0.3-0.9-1.2-1.6-0.5
			c-0.6,0.6-1.2,1.4-0.6,2.3c1.2,1.7,2.4,3.4,3.9,4.8C109,108.2,109.3,108.6,109.6,108z"/>
		<path class="st8" d="M61.5,191.1c-1-1.9-2.9-3.5-2.6-6c0.1-0.6,0.1-1.5,0.9-1.6c0.8-0.1,1.5,0.3,2,0.9c0.7,0.8,0.6,1.9,0.8,2.8
			c0.1,0.6,0,1.2,0.6,1.6c0.1-4-1.6-7.6-2-11.5c-2.2-18.2-2.3-36.5-2.9-54.7c-0.5-14.9-0.7-29.8,0.4-44.8c0.2-2.2,0.1-4.5,0-6.7
			c-0.1-1.5,0.5-2.1,1.9-2.3c3.6-0.4,7.3-0.9,10.9-1.3c0.3,0,0.6-0.1,1-0.2c0,0,0.1,0,0.1,0c4-0.7,8-1.7,12.1-1.7
			c4.5-0.1,9-0.7,13.5-1.7c1.3-0.3,2.7,0.5,3.9-0.3c0.8-0.5,1.6-0.5,2.5-0.4c3.1,0.2,6.1-0.8,9.3-0.8c0.4,0,0.8-0.2,0.9-0.6
			c0.1-0.4-0.1-0.6-0.4-0.8c-0.4-0.3-0.7-0.2-1,0.1c-0.5,0.6-1.1,0.6-1.8,0.2c-1.2-0.6-2.3-0.8-3.5,0.2c-0.3,0.3-0.9,0.4-1.4,0.4
			c-1.4-0.1-2.7,0.4-4.1,0.3c-2.6-0.2-5,1-7.6,0.4c-1-0.2-2.3,0-3.3,0.7c-0.9,0.6-1.9,0.7-3,0.7c-2.4,0-5-0.7-7.3,0.7
			c-0.3,0.2-0.9,0.1-1.3,0.1c-1.1,0-2.2-0.2-3.3,0c-3.3,0.6-6.6,0.8-9.9,1.2c-1.9,0.2-3.8,0.8-5.7,0.5c-1.9-0.3-3.7-0.2-5.5,0.2
			c-0.4,0.2-0.5,0.6-0.5,1c0,5.1-1.1,10.1-0.4,15.2c0,0.3,0.1,0.6,0,0.8c-1.4,5.5-0.5,11-0.6,16.5c0,6.2-0.2,12.3-0.2,18.5
			c0,9.3,0.3,18.6,0.8,27.9c0.3,7.1,0.5,14.1,1.1,21.1c0.1,1.7,0.3,3.4,0.5,5.1c0.1,0.8-0.1,1.4-1,1.5c-4.6,0.5-9,2-13.5,3
			c-2.9,0.6-3.4,0.4-4.7-2.3c-0.4-0.9-0.8-1.9-1.2-2.8c-0.1-0.3-0.2-0.6-0.3-0.8c-0.3-0.8-0.6-1.5-0.9-2.3c-0.1-0.2-0.2-0.4-0.2-0.6
			c-0.3-0.8-0.6-1.6-0.9-2.4c-0.5-1.4-1.1-2.7-1.6-4.1c-0.1-0.2-0.1-0.3-0.2-0.5c-0.1-0.3-0.2-0.6-0.3-0.9c0-0.1-0.1-0.2-0.1-0.3
			c-0.2-0.7-0.3-2.2-0.9-3.1c0,0,0,0,0,0c0,0,0,0,0-0.1c-0.3-0.5-0.7-0.7-1.2-0.6c-0.6,0.2-1.3,0.3-1.9,0.3c-0.1,0-0.2,0-0.3,0.1
			c-0.3,0.1-0.4,0.2-0.5,0.5c0,0.2,0,0.4,0,0.7c1.3,3.8,2.6,7.6,3.8,11.5c1.4,4.3,3.5,8.4,4.9,12.7c0.5,0.3,0.7,0.7,1,1.2
			c0.9,1.9,1.7,2.3,3.7,1.6c5.1-1.7,10.3-2.2,15.6-2.7c1.4-0.1,2,0.3,2,1.7c0,1.1,0.4,2.2,0.6,3.4c0.7,1.5,1.2,3.3,2.4,4.4
			c1.1,1,1.5,3.1,3.7,2.6c0-0.1,0-0.1,0.1-0.2C63.5,193.2,62.1,192.2,61.5,191.1z"/>
	</g>
</g>
</svg>
