<?xml version="1.0" encoding="utf-8"?>
<!-- Generator: Adobe Illustrator 19.2.0, SVG Export Plug-In . SVG Version: 6.00 Build 0)  -->
<svg version="1.1" id="Layer_1" xmlns="http://www.w3.org/2000/svg" xmlns:xlink="http://www.w3.org/1999/xlink" x="0px" y="0px"
	 width="230px" height="230px" viewBox="0 0 230 230" style="enable-background:new 0 0 230 230;" xml:space="preserve">
<style type="text/css">
	.st0{fill:#2DAEBF;}
	.st1{fill:#89C1C6;}
	.st2{fill:none;}
	.st3{fill:none;stroke:#515457;stroke-width:0;stroke-linecap:round;stroke-linejoin:round;}
	.st4{fill:#C6C8DC;}
	.st5{fill:none;stroke:#C8C8CA;stroke-width:0;stroke-linecap:round;stroke-linejoin:round;}
	.st6{fill:#FCFCFC;}
	.st7{fill:#C8C8CA;}
</style>
<g>
	<g>
		<path class="st0" d="M205.8,100.9c0.3-0.3,0.3-0.8,0.7-0.9c0.5-4.9,1-10.1-0.8-16.6c-0.2-0.6-0.5-1.8-0.8-2.5
			c-1.8-4.6-5-11.5-5.4-14.4c-0.4-0.8-0.6-0.7-1-1.5c0.2-0.8-0.4-3.6-1.7-5.6c-0.5-0.7-1.9-1.4-3-2.7c-0.8-1-1.5-2.1-2.1-3.2
			c-0.6-1.1-1.2-2.2-2-3.1c-0.8-0.8-2-1.2-2.9-2c-1.1-1-2.7-2.5-4.1-4.1c-1.5-1.6-2.9-3.1-3.7-4c-1.3-1.4-1.5-2.3-2.7-3.2
			c-1.1-0.8-2.3-0.9-2.7-0.2c-1.1-0.2-2.2-0.8-3.5-1.6c-1.3-0.8-2.7-1.8-4.2-2.8c-1.5-1-3-2.1-4.5-3c-1.5-0.9-3-1.7-4.4-2.2
			c-1.7-1.3-3.6-2.2-5.5-2.9c-2-0.7-3.9-1.3-5.7-2.1c-0.7-0.3-1.6-0.9-2.3-1.2c-1.3-0.5-3.2-0.7-4.9-1.2c-1.5-0.4-2.9-0.7-4.2-1
			c-1.3-0.3-2.6-0.6-3.8-0.7c-3.5-2-6.6-1.2-9.7-1.8c-1.2-0.2-2.3-0.7-3.7-0.9c-1.1-0.2-2.3,0.1-3.5,0c-1.2-0.1-2.5-0.6-3.7-0.6
			c-0.9,0-1.6,0.2-2.3,0.1c-1,0-1.6-0.4-2.6-0.3c-1.1,0.1-2.1,0.5-3.2,0.6c-3.9,0.3-8.2,0.2-11.8,1.6c-3.4,0.1-6.4,0.8-9.6,1.7
			c-3.2,0.9-6.4,1.9-10.3,2.9c-1.8,0.9-3.1,1.6-5.1,2.1c-0.4,0.3-0.3,0.5-1,0.8c-3.9,1.4-7.4,4.1-11.2,5.9c-0.1,0.2-0.1,0.4-0.3,0.6
			c-1.3,0.6-2.7,1.3-4.1,2.1c-1.4,0.8-2.7,1.7-4,2.6c-0.6,0.5-1.3,0.9-1.9,1.4c-0.6,0.5-1.2,1-1.7,1.4c-1.1,0.9-2,1.8-2.8,2.7
			c-1.5,0.9-3,2.2-4.4,3.7c-0.7,0.7-1.4,1.5-2.1,2.3c-0.7,0.8-1.4,1.6-2.1,2.4c-1.4,1.5-3,2.8-4.1,4.3c-1.1,1.5-2.4,3.2-3.8,4.9
			c-1.3,1.7-2.6,3.4-3.5,5c-0.5,0.9-0.8,2-1.3,2.9c-0.9,1.7-2.2,3.3-3,5.1c-1.5,3.6-3.3,7.4-4.8,11.2c-0.4,0.9-0.8,1.9-1.1,2.8
			c-0.3,0.9-0.7,1.9-1,2.8c-0.7,1.8-1.2,3.6-1.6,5.2c-0.3,1-0.4,2-0.6,3c-0.1,1-0.2,2.1-0.4,3.2c-0.3,1.9-0.7,3.9-1.1,5.8
			c-0.3,2-0.8,3.9-0.8,5.9c0,1,0.1,2,0.1,2.9c0,1.2-0.1,2.3-0.2,3.5c-0.1,1.2-0.2,2.3-0.1,3.6c0.1,6.1,1.3,12,1.8,17.7
			c0.3,0.9,0.5,1.8,0.8,2.8c0.3,1,0.6,2,0.9,3c0.5,2.1,1.3,4.2,1.9,6.4c1.5,4.3,3.1,8.8,4.9,12.6c1.3,1.5,1.7,3.3,2.6,5
			c4.7,8.4,10.2,15.4,17,22.3c6.7,6.8,15.7,15.6,25.2,18.5c11.7,6.2,24.7,10,37.4,10.7c1,0.4,2.2,0.5,3.5,0.5c1.2,0,2.5,0,3.3-0.2
			c0.4,0.3,1.5,0.3,2.4,0.4c1.2-0.3,2.6-0.4,4.1-0.4c0.1,0,0.3,0,0.5,0c0.1,0,0.1,0,0.2,0c2.1,0,4.3,0,6.5-0.3
			c0.3-0.3,0.9-0.5,1.5-0.6c1.1-0.1,2.3-0.2,3.4-0.4c-0.2,0.1-0.4,0.2,0.2,0.2c0.2-0.2,0.6-0.3,0.9-0.5c0.5-0.1,1.1-0.3,1.6-0.5
			c3.2-0.1,6.2-0.8,9.2-1.6c3-0.8,6.2-1.8,9.9-2.7c1.7-0.8,2.9-1.5,4.9-2c0.4-0.2,0.3-0.5,0.9-0.7c3.8-1.3,7.1-3.9,10.7-5.6
			c0.1-0.2,0.1-0.4,0.3-0.6c0.3-0.1,0.5-0.2,0.8-0.3c-0.1,0.1-0.2,0.2-0.1,0.2c0.3,0,1.2-0.6,1.5-0.9c0.6-0.3,1.2-0.7,1.8-1
			c1.3-0.7,2.6-1.6,3.8-2.5c0.6-0.4,1.2-0.9,1.8-1.3c0.6-0.5,1.1-0.9,1.6-1.4c1-0.9,2-1.8,2.7-2.6c1.5-0.9,2.9-2.1,4.2-3.5
			c0.7-0.7,1.3-1.4,2-2.2c0.7-0.8,1.3-1.5,2.1-2.3c1.4-1.4,2.8-2.7,4-4.2c1.1-1.4,2.3-3.1,3.6-4.7c1.2-1.7,2.5-3.3,3.3-4.8
			c0.5-0.9,0.8-1.9,1.3-2.8c0.9-1.6,2.1-3.1,2.9-4.9c1.5-3.5,3.2-7.1,4.6-10.7c0.4-0.9,0.7-1.8,1.1-2.7c0.3-0.9,0.6-1.8,1-2.7
			c0.7-1.7,1.1-3.4,1.6-5c0.6-1.9,0.5-3.7,0.9-6c0.2-1.9,0.7-3.7,1.1-5.6c0.3-1.9,0.8-3.8,0.8-5.6c0-0.9-0.1-1.9-0.1-2.7
			c0-1.1,0.1-2.2,0.1-3.3c0.1-1.1,0.2-2.2,0.1-3.4c-0.1-4.9-0.9-9.7-1.4-14.3C205.6,102.9,205.8,102,205.8,100.9z M27.2,103.3
			C27.2,103.3,27.2,103.3,27.2,103.3C27.2,103.3,27.2,103.3,27.2,103.3z"/>
		<line class="st1" x1="27.2" y1="103.3" x2="27.2" y2="103.3"/>
	</g>
	<g>
		<path class="st2" d="M93.6,80.7c-0.3,0-0.5-0.1-0.8,0c-0.2-0.1-0.3-0.2-0.5-0.2c0.2,0.1,0.3,0.2,0.5,0.2
			C93.1,80.7,93.4,80.7,93.6,80.7z"/>
		<path d="M49.5,135.1c1.5,12.8,3,25.6,5,38.3c0.6,4.3,1.6,8.5,3.4,12.5c0.7,1.5,1.2,2.8,1.3,4.4c0.1,1.1,0.8,1.9,1.6,2.7
			c2.7,0.1,5.3-0.6,8-0.5c11.9,0.2,23.8-1,35.8-0.7c2,0.1,4.1-0.4,6.1-0.6c9.1-0.6,18.3-1.3,27.4-1.9c3.7-0.3,7.4-0.5,11.1-0.8
			c8.6-0.6,17.2-1.2,25.8-1.9c3.2-0.2,6.3-0.1,9.5,0c0.9,0,1.3,0.4,1.3,1.3c0.1,2.1,0.4,4.2,0.6,6.3c0.1,1.4,0.8,2.7,1.7,3.7
			c1.8,1.9,3.6,2.2,6,0.8c2.9-1.7,4.9-4.3,6.5-7.2c2.5-4.9,4.1-10.1,5.4-15.4c3.3-12.9,6.6-25.8,9.7-38.8c0.9-3.9,0.7-7.8,1.3-11.7
			c0.1-1,0.3-1.9,0.5-3.1c1.4,3.6,1,7,0.5,10.4c-0.8,5.8-1.7,11.6-3,17.4c-0.2,1-0.6,1.9-0.9,2.9c-0.2,0.7-0.5,1.5-0.5,2.3
			c0.1,1.5,1.1,2.6,2.4,2.8c1.6,0.1,2-1,2.3-2.2c1-5.3,2-10.6,3-15.9c0.3-1.4,0.4-2.9,0.7-4.3c1.5-6.7,0.9-13.2-1.1-19.7
			c-0.6-1.9-1.8-3.4-3.2-4.8c-1.4-1.3-2.6-2.8-3.9-4.1c-0.4-0.4-0.3-0.9-0.2-1.4c0.4-6.6,1.9-13.1,3.1-19.5c3.1-16,5.9-32,8.4-48
			c0.2-1.1,0.2-2.2,0.3-3.3c0.1-0.5,0.2-1-0.2-1.3c-1.8-1.1-1.1-2.8-1-4.3v0c-0.9-0.4-1.9-0.7-2.9-1c-0.3-0.1-0.7-0.1-1-0.2
			c-2.2-0.4-4.4-0.5-6.6-0.8c-2.2-0.4-4.5-0.3-6.8-0.6c-9.1-1.5-18.3-1.8-27.4-3.2c-5.6-0.9-11.3-0.7-16.9-1.8
			c-2.8-0.6-5.7-1-8.6-0.9c-2.2,0.1-4.3-0.3-6.4-0.8c-2.8-0.6-5.6-1-8.4-1.3c-9.2-1.1-18.5-2.7-27.7-3.4c-7.2-0.6-14.3-1.5-21.2-3.6
			c-1.1,0.1-2.2,0.2-3.3,0.4c-1.9,1.2-2.5,3-2.9,5.2c-1.6,8.2-3,16.5-3.5,24.8c-0.1,2.2-0.7,4.3-1.2,6.4c-0.2,0.9-0.7,1.4-1.7,1.5
			c-7.1,0.9-14.2,2.1-21.2,3.7c-1.7,0.4-3.4,0.5-5.1,0.6c-1,0-2.1-0.2-2.7,1.1c-0.3,0.7-1.2,0.3-1.9,0.4c-1.6,0.2-2.4,1-2.2,2.5
			c0.9,5.7,0.3,11.4,0.4,17.1c0.1,9.2-0.1,18.3,0.5,27.5c0,0.4,0.3,0.8-0.2,1c1.1,9.8,2.2,19.7,3.3,29.5
			C49.7,133.9,49.5,134.6,49.5,135.1z M208.8,149.8c-3,10.8-5.5,21.7-8.7,32.5c-1.2,3.9-2.6,7.8-5.5,10.9c-0.8,0.9-1.5,2.2-3,1.7
			c-1.4-0.5-1.3-1.9-1.5-3.1c0-0.3-0.1-0.6-0.1-0.8c-0.5-5.5,0.4-10.8,1.1-16.2c1.1-8.3,2.1-16.6,3.6-24.9c0.3-1.5,0.7-2.1,2.3-1.8
			c3.4,0.7,6.7,0.4,10.1,0C208.9,147.8,209.3,148.2,208.8,149.8z M84,47.5c1.2-4.4,0.9-9,1.2-13.6c0.3-3.7,0.7-7.4,1.9-11
			c0.5-1.3,0.2-2.6,0.4-4c0.3-3.2,1.8-4.3,4.9-3.1c3.1,1.2,6.2,2,9.5,2.5c3.9,0.6,7.7,0.5,11.6,0.9c6.8,0.8,13.5,2,20.2,3.1
			c3.1,0.5,6.3,0.8,9.4,1.1c5.4,0.6,10.8,1.3,16.2,1.9c4.3,0.5,8.7,1,13,1.5c4.1,0.5,8.1,1,12.2,1.5c6.9,0.9,13.9,1.5,20.8,2.2
			c4.1,0.4,8.2,1.2,12.4,1.2c0.8,0,1.4,0.6,2.1,0.9c1.1,0.5,0,1.3-0.1,2c-0.5,3.3-0.8,6.7-1.6,10c-1,4.3-1.6,8.6-2.1,12.9
			c-1,9.3-3.1,18.4-3.9,27.7c-0.5,5.5-1.4,11-3.5,16.2c-0.1,0.4-0.3,0.7-0.4,1.1c-0.4,1.9-0.9,3.5-3.3,4.3c-2.7,0.9-4.4,3.3-5.2,6.2
			c-1.4,4.7-2.7,9.5-4.1,14.2c-0.9,3.1-1.4,6.4-2.7,9.4c0.1,0.4-0.1,0.7-0.4,0.9c-0.1,0.2-0.1,0.3-0.2,0.5c-0.2,1.4-0.4,2.9-0.6,4.3
			c-0.2,1.4-0.4,2.8-0.6,4.2c-0.5,2.8-0.9,5.4-1.5,7.8c-0.4-4-1.2-8.7-1.4-13.4c-0.3-6.2-0.4-12.4-0.9-18.6
			c-0.7-8-1.5-15.9-2.2-23.9c-1.4-15.6-2.6-31.2-4.3-46.8c-0.3-2.6-0.7-5-3-6.7c-0.3-1.1-1.1-1.4-2.1-1.5c-5.2-1-10.5-0.5-15.8-0.4
			c-23.6,0.6-47.2,2.6-70.6,5.5c-1.3,0.2-2.6,0.5-3.9,0.6C84.2,49.4,83.6,49,84,47.5z M50,109.3c-1.2-12.6-1.3-25.3-1-38
			c0.1-3.8-0.1-7.7,0.5-11.5c0.2-1.5,0.6-2.2,2.3-1.8c2,0.5,4-0.2,5.9-0.7c11.9-2.6,23.9-4,35.9-5.5c15.2-1.8,30.5-3.3,45.8-4.2
			c11-0.7,22.1-1,33.1-1.1c1.4,0,2.1,0.5,2.1,1.9c0.7,14.3,2.8,28.5,4.2,42.8c2,19.7,3.6,39.4,5,59.1c0.5,7.4,1,14.9,2,22.3
			c0.6,5.1,0.5,5.2-4.5,5.9c-11.1,1.5-22.3,2.1-33.6,2.6c-8.3,0.4-16.5,0.9-24.8,1.7c-12.4,1.1-24.7,1.3-37.1,1.9
			c-7.4,0.3-14.9,0.6-22.3,1.7c-0.9,0.1-1.2,0-1.7-0.9c-2.8-5.4-3.4-11.4-4.3-17.2c-1.7-11.4-3.1-22.8-4.7-34.2
			C51.9,125.9,50.8,117.6,50,109.3z"/>
		<path class="st3" d="M221.5,28.6c-0.3-0.1-0.7-0.1-1-0.2"/>
		<path class="st4" d="M227.6,31.1c-0.1-0.2-0.3-0.4-0.4-0.5c-0.4-0.4-1-0.6-1.8-0.8c-0.2,0-0.3-0.1-0.5-0.1c-0.2,0-0.4-0.1-0.6-0.1
			v0c-0.1,1.5-0.8,3.2,1,4.3c0.3,0.2,0.2,0.8,0.2,1.3c-0.1,1.1-0.2,2.2-0.3,3.3c-2.5,16.1-5.3,32.1-8.4,48
			c-1.3,6.5-2.7,12.9-3.1,19.5c0,0.5-0.2,1,0.2,1.4c1.3,1.4,2.5,2.8,3.9,4.1c1.5,1.4,2.6,2.9,3.2,4.8c2,6.5,2.6,13,1.1,19.7
			c-0.3,1.4-0.5,2.8-0.7,4.3c-1,5.3-2,10.6-3,15.9c-0.2,1.2-0.7,2.3-2.3,2.2c-1.3-0.1-2.3-1.3-2.4-2.8c0-0.8,0.3-1.5,0.5-2.3
			c0.3-0.9,0.7-1.9,0.9-2.9c1.3-5.7,2.3-11.5,3-17.4c0.4-3.4,0.9-6.8-0.5-10.4c-0.2,1.2-0.4,2.2-0.5,3.1c-0.6,3.9-0.4,7.9-1.3,11.7
			c-3.1,13-6.4,25.9-9.7,38.8c-1.4,5.3-2.9,10.5-5.4,15.4c-1.6,3-3.6,5.5-6.5,7.2c-2.3,1.4-4.1,1.1-6-0.8c-1-1-1.6-2.3-1.7-3.7
			c-0.2-2.1-0.5-4.2-0.6-6.3c-0.1-0.9-0.4-1.3-1.3-1.3c-3.2-0.1-6.3-0.2-9.5,0c-8.6,0.7-17.2,1.3-25.8,1.9
			c-3.7,0.3-7.4,0.5-11.1,0.8c-9.1,0.6-18.3,1.2-27.4,1.9c-2,0.1-4.1,0.6-6.1,0.6c-11.9-0.4-23.9,0.9-35.8,0.7c-2.7,0-5.3,0.7-8,0.5
			c0.6,3,1.4,3.6,4.4,3.3c0.5-0.1,1.1,0,1.7,0c2.9,0.2,5.7,0.5,8.6,0.5c6.1-0.1,12.1-1,18.1-1.6c2.2-0.2,4.4-0.4,6.6-0.1
			c3.7,0.5,7.5,1,11.2-0.2c0.3-0.1,0.6-0.1,0.8-0.1c3.9,0.5,7.7,0.1,11.6-0.4c2.4-0.3,4.9-0.6,7.3-0.7c3,0,5.9-0.4,8.8-0.9
			c2.2-0.3,4.4-1,6.5-0.8c5.7,0.5,11.4-0.2,17.1-0.4c5.6-0.2,11.3-0.6,16.9-0.9c2.1-0.1,2.9,0.6,3.3,2.6c0.2,1.1,0.2,2.2,0.4,3.3
			c0.3,2.3,1.5,4,3.6,5c0.3,0.2,0.7,0.2,0.9,0.5c0.2,0,0.5,0,0.8,0.1c0.3,0.1,0.7,0.1,1,0.2l2.8-0.3c0.4-0.2,0.8-0.4,1.1-0.5
			c0.6-0.2,1.2-0.3,1.9-0.4c0.1-0.2,0.4-0.3,0.6-0.4c5.2-2.7,8.5-7.1,10.4-12.5c2.7-7.6,4.8-15.4,7-23.1c0.5-1.6,1-3,2.9-3.5
			c0.7-0.2,1.4-0.7,1.9-1.3c2.3-2.9,4-6.1,4.6-9.8c0.6-3.7,1.1-7.3,1.4-11c0.5-5.2,2.2-10.3,1-15.7c-0.3-1.3-0.5-2.7-0.8-4.1
			c-1-4.5-2.3-8.8-5.7-12.2c-0.8-0.8-0.8-1.8-0.6-2.9c1.1-5.8,2.6-11.6,3.2-17.5c0.4-3.7,1.8-7.2,2.1-10.9c0.3-4.4,0.6-8.8,1.6-13.2
			c1-4.4,1.2-8.9,1-13.3c-0.2-2.7-0.1-5.3,0.7-7.9c0.8-2.6,1.6-5,1.1-7.9C228.2,32.7,228,31.8,227.6,31.1z"/>
		<path class="st5" d="M227.6,31.1c-0.1-0.2-0.3-0.4-0.4-0.5"/>
		<path class="st5" d="M227.2,30.6c-0.4-0.4-1-0.6-1.8-0.8"/>
		<path class="st6" d="M57.7,168.3c0.9,5.8,1.5,11.8,4.3,17.2c0.5,0.9,0.8,1,1.7,0.9c7.4-1.1,14.8-1.4,22.3-1.7
			c12.4-0.5,24.8-0.8,37.1-1.9c8.2-0.7,16.5-1.3,24.8-1.7c11.2-0.5,22.4-1.1,33.6-2.6c5-0.7,5.2-0.8,4.5-5.9
			c-0.9-7.4-1.4-14.8-2-22.3c-1.4-19.7-3.1-39.5-5-59.1c-1.4-14.3-3.5-28.5-4.2-42.8c-0.1-1.4-0.8-1.9-2.1-1.9
			c-11.1,0.1-22.1,0.4-33.1,1.1c-15.3,0.9-30.6,2.4-45.8,4.2c-12,1.4-24.1,2.9-35.9,5.5c-1.9,0.4-3.9,1.1-5.9,0.7
			c-1.7-0.4-2.1,0.3-2.3,1.8c-0.5,3.8-0.4,7.6-0.5,11.5c-0.3,12.7-0.2,25.3,1,38c0.8,8.3,1.9,16.6,3,24.8
			C54.5,145.5,56,156.9,57.7,168.3z M119.8,147.2c0-1.2,1-1.2,1.8-1.2c3.4-0.1,6.9-0.2,10.3-0.3c2.2-0.1,4.4-0.2,6.6-0.3
			c0-0.3-0.1-0.5-0.1-0.8c-4.1-0.8-8.1-1.8-11.4-4.7c-0.5-0.4-0.9-0.8-1.2-1.4c-0.3-0.7-0.5-1.5,0-2.2c0.5-0.8,1.3-0.8,2.1-0.7
			c0.8,0.1,1.6,0.4,2.5,0.2c-0.4-1.5-0.9-2.7-2.4-3.4c-1-0.4-2.1-1.1-2.2-2.5c-0.1-1.6,1.4-2.3,3.3-1.6c0.6,0.2,1,1,1.8,0.4
			c0.6-0.6,0-1.2,0-1.9c-0.1-0.9-0.3-1.8-0.3-2.6c0.1-1.4-0.2-2.8-0.8-4c-1.5-3.1-1.5-6.6-2.5-9.8c-1.5-5,0.3-9.4,2.1-13.6
			c1.3-3.1,4.5-5.1,8-5.6c3.3-0.5,6.6-1.7,10-1.2c5.1,0.6,9.5,2.3,12.3,7.2c1.5,2.6,3.2,5.2,4.5,7.9c0.3,0.5,0.7,1,0.7,1.7
			c0.1,4.7,0.1,9.4-1.9,13.8c-2.2,4.9-5,9.5-8.3,13.8c-0.7,0.9-0.5,1.3,0.4,1.8c1,0.6,1.8,1.4,1.4,2.8c-0.4,1.4-1.7,1.5-2.4,1.5
			c-1.8-0.1-3.4,0.6-5.1,0.6c-0.4,0.3-0.3,0.8-0.3,1.2c0.6,0.2,1.2,0.3,1.7,0.5c1.2,0.4,1.5,1.3,1.7,2.6c0.1,1.2-0.5,1.5-1.2,1.8
			c-1.3,0.7-2.6,1.1-4.1,1.3c-0.1,0.8-0.8,0.6-1.3,0.7c-1.1,0.1-1.6,0.7-1.4,1.8c0.9,0.6,1.5,1.5,1.1,2.6c-0.4,1.1-1.3,1.6-2.6,1.7
			c-2,0.1-3.9,0.4-5.6,1.8c-2.1,1.7-2.4,2.2-1.8,4.8c0.2,0.7,0.4,1.3-0.3,1.8c-0.7,0.5-1.5,0.4-2.2,0c-1.9-1.1-2.7-3.8-1.9-6
			c0.2-0.6,0.5-1.1,0.7-1.7c-0.1-0.8-0.2-1.5-0.4-2.3c-3.6-0.5-6.8-1.7-9.9-3.6C120.1,149.5,119.8,148.4,119.8,147.2z M70.3,90.7
			c0.1-5.5,3.5-8.5,7.5-11.3c3.8-2.7,8.2-3.1,12.5-3c5.1,0.1,9.3,2.5,12.5,6.8c3.4,4.6,4.6,9.8,5.1,15.2c0.4,4.8-0.2,9.5,0,14.3
			c0.1,2-0.1,2.3-1.7,2.4c-0.2,0-0.5,0-0.8,0.1c0,0,0,0.1,0,0.1c-0.1,0.1-0.2,0.3-0.3,0.4c-0.1,0.1-0.1,0.2-0.2,0.3
			c0,0-0.1,0.1-0.1,0.1c-0.1,0.1-0.1,0.2-0.1,0.3c-0.1,0.3,0.1,0.6,1,0.8c0.6-0.1,1.2-0.1,1.8-0.2c0.6-0.1,1.2-0.1,1.8-0.3
			c1.4-0.3,2.6,0,3,1.5c0.4,1.5-0.6,2.2-1.8,2.6c-0.1,0.4-0.2,0.7-0.7,0.3c-0.2,0.1-0.4,0.1-0.6,0.2c-0.6,1-2,1.2-2.6,2.5
			c1.6-0.2,3-0.1,4.4-0.6c0.4-0.2,0.8-0.4,1.1,0.1c0.3,0,0.6,0.1,1,0.1c0.4-0.5,0.6-0.2,0.7,0.3c1.8,1.5,1.5,3.1-0.5,4
			c-2,0.9-3.8,2.1-5.7,3.2c0.1,0.6-1,1-0.2,1.7c1.4-0.2,2.8-0.5,4.2-0.8c1.5-0.3,3-0.3,3.7,1.4c0.6,1.4-0.6,2.2-1.5,3
			c-1.4,1.2-2.7,2.4-4.4,3.3c-0.6,0.3-1.1,0.9-1.6,1.4c-1.2,1.3-1.1,1.8,0.6,2.4c0.7,0.2,1.5,0.4,1.3,1.4c-0.1,0.9-0.8,1.4-1.6,1.5
			c-1.6,0.1-3.2,0.3-4.4-1.3c-1.2-1.7-1.6-3.3-1-5.3c0.1-0.4,0.8-0.8,0.4-1.3c-0.3-0.3-1-0.1-1.4,0c-3.9,0.8-7.6,1.9-11.6,2.3
			c-2.4,0.2-3.6-0.6-3.8-2.4c-0.1-0.8,0.1-1.3,1-1.7c1.2-0.5,2.3-1.1,3.4-1.7c0.2-0.1,0.3-0.3,0.6-0.6c-2.2,0.2-4.2,0.5-6.2,0.7
			c-1.4,0.1-2.7-0.1-3.3-1.6c-0.4-1.1,0-1.8,1.1-2.3c4.1-1.7,7.7-4.4,11.6-6.4c0.2-0.1,0.4-0.2,0.2-0.7c-3.3,1-6.6,1.9-9.9,2.9
			c-1,0.3-1.9,0.5-2.9,0.6c-1.6,0-2.2-0.7-2.2-2.2c-0.1-1,0.4-1.4,1.3-1.5c4.1-0.8,4.1-0.8,3.3-5c-0.3-1.7-1.4-2.9-2.3-4.1
			c-2.1-2.8-4.8-5.2-6.3-8.5c-0.8-1.8-2-3.3-2.8-5.1C71.3,97.6,70.2,94.3,70.3,90.7z"/>
		<path class="st6" d="M85.4,49.2c1.3-0.1,2.6-0.4,3.9-0.6c23.5-2.9,47-4.9,70.6-5.5c5.3-0.1,10.5-0.6,15.8,0.4
			c1,0.2,1.8,0.5,2.1,1.5c4.5,0,5.4,3.5,6.7,6.7c0.8,1.9,0.5,3.9,0.7,5.9c0.4,2.7,0.8,5.5,1.2,8.2c0.9,7.7,2.2,15.3,2.9,23
			c0.6,6.2,0.5,12.5,0.5,18.7c0,2.8,0.3,5.6,0.2,8.5c-0.1,7-0.2,14,0.9,20.9c0.2,0.9,0.3,1.5,1.4,1.2l0,0c0.1-0.2,0.1-0.3,0.2-0.5
			c-0.3-0.5-0.1-0.7,0.4-0.9c1.3-3,1.8-6.3,2.7-9.4c1.4-4.7,2.7-9.5,4.1-14.2c0.8-2.8,2.5-5.2,5.2-6.2c2.4-0.8,2.8-2.4,3.3-4.3
			c0.1-0.4,0.2-0.7,0.4-1.1c2.1-5.2,3-10.7,3.5-16.2c0.8-9.3,2.8-18.4,3.9-27.7c0.5-4.3,1.1-8.7,2.1-12.9c0.8-3.3,1.1-6.7,1.6-10
			c0.1-0.7,1.2-1.4,0.1-2c-0.7-0.3-1.3-0.9-2.1-0.9c-4.2-0.1-8.3-0.8-12.4-1.2c-6.9-0.7-13.9-1.3-20.8-2.2c-4.1-0.6-8.1-1-12.2-1.5
			c-4.3-0.5-8.7-1-13-1.5c-5.4-0.6-10.8-1.3-16.2-1.9c-3.1-0.4-6.3-0.7-9.4-1.1c-6.7-1-13.5-2.3-20.2-3.1c-3.9-0.4-7.7-0.3-11.6-0.9
			c-3.3-0.5-6.4-1.3-9.5-2.5c-3-1.2-4.5-0.1-4.9,3.1c-0.1,1.3,0.1,2.7-0.4,4c-1.3,3.5-1.6,7.2-1.9,11c-0.4,4.5,0,9.1-1.2,13.6
			C83.6,49,84.2,49.4,85.4,49.2z"/>
		<path class="st6" d="M207.2,148c-3.4,0.4-6.8,0.7-10.1,0c-1.6-0.3-2.1,0.3-2.3,1.8c-1.4,8.3-2.4,16.6-3.6,24.9
			c-0.7,5.4-1.7,10.8-1.1,16.2c0,0.3,0.1,0.6,0.1,0.8c0.2,1.2,0.1,2.6,1.5,3.1c1.5,0.5,2.2-0.8,3-1.7c2.9-3.1,4.3-7,5.5-10.9
			c3.3-10.7,5.7-21.7,8.7-32.5C209.3,148.2,208.9,147.8,207.2,148z"/>
		<path class="st4" d="M191,136.9c-1.1-6.9-1-13.9-0.9-20.9c0.1-2.8-0.3-5.6-0.2-8.5c0.1-6.3,0.2-12.5-0.5-18.7
			c-0.8-7.7-2.1-15.3-2.9-23c-0.3-2.8-0.7-5.5-1.2-8.2c-0.3-1.9,0-4-0.7-5.9c-1.3-3.2-2.2-6.7-6.7-6.7c2.3,1.6,2.7,4.1,3,6.7
			c1.7,15.6,2.9,31.2,4.3,46.8c0.7,8,1.5,15.9,2.2,23.9c0.5,6.2,0.6,12.4,0.9,18.6c0.2,4.7,1,9.4,1.4,13.4c0.5-2.4,1-5.1,1.5-7.8
			c0.2-1.4,0.4-2.8,0.6-4.2c0.2-1.4,0.4-2.9,0.6-4.3l0,0C191.4,138.4,191.2,137.9,191,136.9z"/>
		<path class="st5" d="M191.9,142.4c-0.2,1.4-0.4,2.8-0.6,4.2"/>
		<path class="st7" d="M192.6,137.6c0.3-0.2,0.4-0.5,0.4-0.9C192.5,136.9,192.3,137.2,192.6,137.6z"/>
		<path d="M121.2,150.2c3.1,1.8,6.3,3.1,9.9,3.6c0.7-0.2,1.3-0.1,1.4,0.6c0.2,0.8-0.4,1.3-1,1.7c-0.2,0.6-0.5,1.1-0.7,1.7
			c-0.8,2.2,0,4.9,1.9,6c0.7,0.4,1.5,0.5,2.2,0c0.7-0.5,0.5-1.1,0.3-1.8c-0.7-2.6-0.4-3.1,1.8-4.8c1.7-1.4,3.6-1.7,5.6-1.8
			c1.3-0.1,2.2-0.6,2.6-1.7c0.4-1-0.2-1.9-1.1-2.6c-4-0.2-8.1-0.5-12.1-1.4c4.9-0.8,9.9-0.9,14.8-1.1c1.4-0.2,2.8-0.6,4.1-1.3
			c0.7-0.4,1.4-0.7,1.2-1.8c-0.2-1.2-0.5-2.1-1.7-2.6c-0.6-0.2-1.2-0.3-1.7-0.5c-3-0.5-6-0.9-8.9-1.4c-0.2,0-0.4,0-0.5-0.5
			c1.7-0.8,3.5-0.4,5.3-0.3c1.5,0.1,3.2-0.3,4.5,1c1.7,0,3.3-0.7,5.1-0.6c0.8,0,2.1-0.1,2.4-1.5c0.4-1.5-0.4-2.2-1.4-2.8
			c-0.9-0.5-1.1-0.9-0.4-1.8c3.3-4.3,6.1-8.9,8.3-13.8c2-4.4,2-9.1,1.9-13.8c0-0.6-0.4-1.1-0.7-1.7c-1.3-2.7-3-5.3-4.5-7.9
			c-2.8-4.9-7.1-6.5-12.3-7.2c-3.5-0.4-6.7,0.7-10,1.2c-3.5,0.5-6.7,2.5-8,5.6c-1.8,4.2-3.6,8.7-2.1,13.6c1,3.2,1,6.7,2.5,9.8
			c0.6,1.3,0.9,2.6,0.8,4c-0.1,0.9,0.1,1.8,0.3,2.6c0.1,0.6,0.7,1.3,0,1.9c-0.7,0.7-1.2-0.2-1.8-0.4c-1.9-0.7-3.4,0-3.3,1.6
			c0.1,1.4,1.1,2.1,2.2,2.5c1.5,0.7,2,1.9,2.4,3.4c-0.9,0.2-1.7-0.2-2.5-0.2c-0.8-0.1-1.6-0.1-2.1,0.7c-0.5,0.7-0.3,1.5,0,2.2
			c0.3,0.5,0.7,1,1.2,1.4c3.3,2.8,7.3,3.9,11.4,4.7c0.3,0,0.6,0,1,0.1c0.2,0,0.4,0.2,0.7,0.3c-0.6,0.4-1.1,0.4-1.6,0.3
			c-2.2,0.1-4.4,0.2-6.6,0.3c-3.4,0.1-6.9,0.2-10.3,0.3c-0.8,0-1.8,0.1-1.8,1.2C119.8,148.4,120.1,149.5,121.2,150.2z M131.3,103.4
			c1-4.7,4.3-7.7,9-8.4c2.7-0.4,5.3-1.3,8-0.9c2.5,0.4,4.8,1.2,6.4,3.3c1,0.4,1.7,1.1,2,2.1c1,0.7,1.5,1.7,1.9,2.8
			c1.4,0.8,1.6,2.1,1.6,3.5c0.8,3.8,1.1,7.6-0.6,11.3c-0.2,0.3-0.2,0.7-0.6,0.9c-0.4,1.7-1.2,3.2-2.2,4.6c-1,2.8-2.6,5.1-4.6,7.2
			c-0.6,1.1-1.2,2-2.1,2.9c-0.9,1.8-2.4,2.3-3.8,1.4c-0.6-0.4-1-0.9-0.4-1.6c0-0.5,0-1,0.4-1.4c0.5-3.2,0.9-6.4,1.4-9.6
			c0.1-0.7,0.4-1.4,1.4-1.2c0.7,0.2,1.3-0.1,1.9-0.4c3-1.4,5.6-3.4,7.1-6.4c1.4-2.8,0.7-5.4-1.2-7.7c-0.5-0.2-1.1-0.3-1.4-0.8
			c-4.4-0.3-6.3,2.9-8.3,5.9c-0.6,0.9-0.9,1.9-1.3,2.9c-0.2,0.5-0.3,1.2-0.9,1.2c-0.6,0-0.9-0.6-1.2-1c-1.3-1.9-2.6-3.9-4.7-5.1
			c-0.5-0.3-1-0.5-1.5-0.7c-0.8-0.4-1.4-0.1-2,0.4c-0.6,0.5-0.4,1.2-0.2,1.8c0.1,0.5,0.5,0.9,0.4,1.4c0.5,0.4,0.9,0.9,0.9,1.6
			c1.9,1.7,2.8,3.9,3.4,6.3c0.4,0.3,0.6,0.8,0.8,1.3c1.1,0.2,2.2,0.5,2.9-0.7c0.1-0.1,0-0.4,0.3-0.3c0,0,0,0,0,0.1
			c0,0.1,0,0.3,0,0.5c0,0,0,0,0,0c-0.4,2.7-0.7,5.4-1.3,8.1c-0.2,0.9-0.4,1.8-0.6,2.7c-0.4,1.4-1.1,1.8-2.4,1.4
			c-0.1,0-0.2,0-0.3-0.1c-2.6-0.4-4.5-1.3-4.2-4.6c0.1-1.7-0.8-3.5-0.4-5.3c-1-4.1-3.2-7.8-3.6-12
			C130.9,108.2,130.4,105.8,131.3,103.4z M149.5,115c0.8-2,2-3.7,3.8-4.9c0.4-0.2,0.8-0.4,1.2-0.1c0.5,0.4,0.2,0.8,0,1.2
			c-0.9,2-2.6,3.5-4.3,4.7C149.6,115.9,149.2,115.6,149.5,115z M135.4,136.6c-0.3,0-0.9-0.1-0.7-0.7c0.1-0.4,0.4-0.5,0.8-0.5
			c1,0.3,2.2,0.3,3.3,1.3C137.4,136.7,136.4,136.7,135.4,136.6z"/>
		<path d="M75.6,105.8c1.5,3.3,4.2,5.7,6.3,8.5c1,1.3,2,2.5,2.3,4.1c0.8,4.1,0.8,4.2-3.3,5c-0.9,0.2-1.3,0.5-1.3,1.5
			c0.1,1.5,0.7,2.2,2.2,2.2c1,0,2-0.3,2.9-0.6c3.3-1,6.6-1.9,9.9-2.9c0.1,0.5-0.1,0.6-0.2,0.7c-3.9,2-7.5,4.7-11.6,6.4
			c-1.2,0.5-1.6,1.2-1.1,2.3c0.6,1.5,1.9,1.7,3.3,1.6c2-0.2,4-0.4,6.2-0.7c-0.3,0.3-0.5,0.5-0.6,0.6c-1.1,0.6-2.2,1.2-3.4,1.7
			c-0.8,0.3-1,0.9-1,1.7c0.2,1.9,1.3,2.7,3.8,2.4c3.9-0.4,7.7-1.5,11.6-2.3c0.5-0.1,1.1-0.3,1.4,0c0.4,0.5-0.3,0.8-0.4,1.3
			c-0.6,1.9-0.3,3.6,1,5.3c1.2,1.6,2.8,1.4,4.4,1.3c0.8,0,1.4-0.6,1.6-1.5c0.2-1-0.6-1.1-1.3-1.4c-1.7-0.6-1.8-1.1-0.6-2.4
			c0.5-0.5,1-1.1,1.6-1.4c1.7-0.8,3-2.1,4.4-3.3c0.9-0.8,2.1-1.6,1.5-3c-0.7-1.7-2.2-1.7-3.7-1.4c-1.4,0.3-2.8,0.7-4.2,0.8
			c-1.5,0.9-3.1,1-4.8,1c1.4-1.4,3-2.3,5-2.6c1.9-1.1,3.8-2.2,5.7-3.2c2-0.9,2.3-2.5,0.5-4c-0.3,0.1-0.5,0-0.7-0.3
			c-0.3,0-0.6-0.1-1-0.1c-5.3,1.7-10.5,3.4-15.8,5.1c-0.1-0.2-0.2-0.4-0.2-0.6c4.1-2.7,8.5-4.9,13.1-6.5c0.2-0.1,0.4-0.1,0.6-0.2
			c0.1-0.4,0.4-0.4,0.7-0.3c1.2-0.4,2.3-1.1,1.8-2.6c-0.4-1.5-1.6-1.7-3-1.5c-0.6,0.1-1.2,0.2-1.8,0.3c-0.6,0.1-1.2,0.1-1.8,0.2l0,0
			c-0.4,0.2-0.9,0.4-1.3,0.5c-0.4,0.1-0.9,0.3-1.4,0.4c-1.5,0.3-3.1,0.5-4.6,0.9c-0.8,0.2-1.1-0.6-1.3-1.2c-0.7-2-0.9-4.1-1.3-6.2
			c-0.7-3.4-0.8-6.8-1.8-10.1c-0.1-0.4-0.3-0.8,0.1-1.3c0.8,0.3,1,1,1.3,1.6c0.9,1.7,1.8,3.3,3.5,4.3c0.8,0.5,1.7,1.1,2.6,0.2
			c0.9-0.9,0.2-1.6-0.3-2.3c-1-1.6-2-3.2-2.3-5.1c-0.1-0.2-0.1-0.4-0.2-0.6c-1.3-2.8-3.3-4-6.4-2.7c-0.7,0.3-1.2-0.2-1.7-0.8
			c-2.1-2.1-4.1-4.2-6.6-5.8c-0.8-0.5-1.7-1.1-2.7-1.3c-1.6-0.3-2.7,0.8-2.3,2.4c1,4.2,3.6,7.3,7.5,8.7c3.3,1.2,4.5,3.4,4.9,6.5
			c0.4,3.4,1,6.8,1.2,10.3c0.1,1.6-0.5,3.2,1.9,4.1c-2.2,1.1-4.1,1.6-6.4,2c0.6-2.2,1.4-4.2-0.2-6c-2.2-1.3-3.1-3.7-4.5-5.6
			c-0.6-0.7-1-1.6-1.4-2.4c-4.3-5.1-7.9-10.5-7.4-17.7c0.1-1.8,1-3.3,2.2-4.5c4.3-4.1,9.3-6,15.3-5.1c0.2,0,0.4,0.1,0.5,0.2
			c0.2,0.1,0.3,0.2,0.5,0.2c0.3,0,0.6,0,0.8,0c0.3,0,0.5,0.1,0.8,0.2c0.5,0.2,0.9,0.4,1.3,0.7c0.4,0.3,0.8,0.6,1.2,1
			c0.4,0.3,0.7,0.7,1.1,1.1c0.8,0.8,1.6,1.7,2.1,2.7c1.8,1.6,2.2,3.8,2.4,6.1c1.5,3.4,1.5,7,1.1,10.6c0.6,2.2,0.1,4.3-0.3,6.5
			c0.1,0.7,0.4,1.4,0.1,2.1c0.9,1,0.6,2.8,2,3.6c0.3,0,0.6,0,0.8-0.1c1.6-0.1,1.8-0.4,1.7-2.4c-0.2-4.8,0.4-9.5,0-14.3
			c-0.5-5.5-1.7-10.6-5.1-15.2c-3.2-4.3-7.4-6.7-12.5-6.8c-4.3-0.1-8.7,0.3-12.5,3c-4,2.8-7.4,5.8-7.5,11.3c0,3.6,1.1,6.9,2.5,10
			C73.6,102.4,74.8,104,75.6,105.8z"/>
		<path class="st0" d="M103.4,111.6c-1.3-0.1-2.7-0.1-4.2-0.2c1.1-1.6,2.6-1.9,4.1-1.9c0.5-2.1,1-4.3,0.3-6.5
			c-2,0.2-2.1,0.2-1.5-1.7c0.4-1.4-0.4-1.9-1.4-2.3c-0.7-0.3-1.4-0.2-2.1-0.1c0.3,1.9,1.3,3.5,2.3,5.1c0.5,0.7,1.2,1.4,0.3,2.3
			c-0.9,0.9-1.8,0.3-2.6-0.2c-1.7-1-2.6-2.7-3.5-4.3c-0.3-0.6-0.5-1.3-1.3-1.6c-0.3,0.5-0.2,1-0.1,1.3c1,3.3,1.2,6.8,1.8,10.1
			c0.4,2.1,0.6,4.2,1.3,6.2c0.2,0.6,0.5,1.4,1.3,1.2c1.5-0.4,3.1-0.6,4.6-0.9c0.5-0.1,0.9-0.2,1.4-0.4c0.4-0.1,0.9-0.3,1.3-0.5l0,0
			c-0.9-0.2-1-0.5-1-0.8c0-0.1,0.1-0.2,0.1-0.3c0,0,0.1-0.1,0.1-0.1c0.1-0.1,0.1-0.2,0.2-0.3c0.1-0.1,0.2-0.3,0.3-0.4
			c0,0,0-0.1,0-0.1C104,114.4,104.3,112.7,103.4,111.6z"/>
		<path class="st5" d="M105.3,115.3c0,0,0-0.1,0-0.1"/>
		<path class="st5" d="M104.9,116c0.1-0.1,0.1-0.2,0.2-0.3"/>
		<path class="st5" d="M104.6,116.4c0-0.1,0.1-0.2,0.1-0.3"/>
		<path class="st5" d="M105.1,115.7c0.1-0.1,0.2-0.3,0.3-0.4"/>
		<path class="st5" d="M102.9,118.2c0.5-0.1,0.9-0.2,1.4-0.4"/>
		<path class="st0" d="M96.3,128.4c5.3-1.7,10.5-3.4,15.8-5.1c-0.3-0.5-0.7-0.3-1.1-0.1c-1.4,0.5-2.9,0.4-4.4,0.6
			c0.6-1.3,2-1.5,2.6-2.5c-4.6,1.7-9,3.8-13.1,6.5C96.1,128.1,96.2,128.3,96.3,128.4z"/>
		<path class="st0" d="M131.9,149.8c4,0.8,8,1.2,12.1,1.4c-0.1-1.1,0.3-1.7,1.4-1.8c0.5-0.1,1.2,0.1,1.3-0.7
			C141.8,148.9,136.8,149,131.9,149.8z"/>
		<path class="st0" d="M139.1,140.6c0.1,0.4,0.3,0.4,0.5,0.5c3,0.5,6,0.9,8.9,1.4c0-0.4-0.1-0.9,0.3-1.2c-1.3-1.2-3-0.8-4.5-1
			C142.7,140.2,140.8,139.8,139.1,140.6z"/>
		<path class="st0" d="M107.3,132.6c-0.8-0.6,0.2-1.1,0.2-1.7c-2,0.3-3.6,1.3-5,2.6C104.2,133.6,105.9,133.5,107.3,132.6z"/>
		<path class="st0" d="M132.5,154.4c-0.2-0.7-0.8-0.8-1.4-0.6c0.1,0.8,0.2,1.5,0.4,2.3C132.1,155.7,132.7,155.3,132.5,154.4z"/>
		<path class="st0" d="M140.2,145.1c-0.4-0.2-0.5-0.3-0.7-0.3c-0.3-0.1-0.6-0.1-1-0.1c0,0.3,0.1,0.5,0.1,0.8
			C139.1,145.5,139.6,145.5,140.2,145.1z"/>
		<path class="st0" d="M113.7,123.7c-0.1-0.5-0.3-0.7-0.7-0.3C113.2,123.8,113.4,123.8,113.7,123.7z"/>
		<path class="st0" d="M109.7,121.2c0.5,0.4,0.6,0.1,0.7-0.3C110.1,120.8,109.8,120.8,109.7,121.2z"/>
		<path class="st0" d="M132.5,107.6c-1.3,2.2,0.8,4.6,3.4,4.3c0.1-0.5-0.3-0.9-0.4-1.4c-0.2-0.6-0.4-1.3,0.2-1.8
			c0.6-0.5,1.2-0.8,2-0.4c0.5,0.2,1,0.4,1.5,0.7c2.1,1.2,3.4,3.1,4.7,5.1c0.3,0.5,0.6,1.1,1.2,1c0.6,0,0.7-0.7,0.9-1.2
			c0.4-1,0.7-2,1.3-2.9c2-3,3.9-6.2,8.3-5.9c1.2-0.7,2.2-1.7,3.1-2.8c-0.4-1.1-0.9-2.1-1.9-2.8c-0.8,0.6-1.7,0.5-2.7,0.7
			c-0.4,0.1-0.9,0.1-1.1-0.5c-0.1-0.5,0-0.9,0.5-1.1c0.5-0.3,0.9-0.7,1.3-1.2c-1.6-2.1-3.9-2.9-6.4-3.3c-2.7-0.4-5.4,0.4-8,0.9
			c-4.7,0.7-8,3.7-9,8.4C132.1,104.6,133.7,105.5,132.5,107.6z"/>
		<path class="st0" d="M158.2,113.5c-1.5,3-4.1,5-7.1,6.4c-0.6,0.3-1.2,0.6-1.9,0.4c-1-0.3-1.3,0.4-1.4,1.2
			c-0.5,3.2-0.9,6.4-1.4,9.6c2-0.3,3.8-1.4,5.9-1.3c2-2.1,3.6-4.5,4.6-7.2c-2.6,0.3-5.1,0.6-7.7,0.9c-0.1-0.2-0.1-0.4-0.2-0.5
			c3-2.2,6.9-2.9,10.1-4.9c0.4-0.2,0.5-0.6,0.6-0.9c1.6-3.7,1.4-7.5,0.6-11.3c-1.1,0-2.2,0.1-3.3,0.1
			C159,108.2,159.6,110.8,158.2,113.5z"/>
		<path class="st0" d="M135.2,128c-0.3,3.3,1.6,4.2,4.2,4.6c0.1,0,0.2,0,0.3,0.1c1.3,0.5,2,0.1,2.4-1.4c0.2-0.9,0.4-1.8,0.6-2.7
			c0.6-2.7,0.9-5.4,1.3-8.1c0,0,0,0,0,0c0-0.1,0-0.4,0-0.5c0,0,0-0.1,0-0.1c-0.3-0.1-0.2,0.2-0.3,0.3c-0.7,1.2-1.8,0.9-2.9,0.7
			c-2,0.6-4.1,1.1-6.1,1.7C134.4,124.5,135.3,126.3,135.2,128z"/>
		<path class="st6" d="M140.9,121.1c-0.2-0.5-0.4-0.9-0.8-1.3c-1.2,0.1-2.4,0.3-3.6,0c-1.9-0.6-3.1-2.6-2.5-4.4
			c0.4-1.2,1.5-1.7,2.7-1.9c0-0.7-0.4-1.2-0.9-1.6c-2.6,0.3-4.7-2.1-3.4-4.3c1.2-2.1-0.3-3-1.2-4.3c-0.9,2.4-0.4,4.9-0.1,7.4
			c0.4,4.3,2.6,8,3.6,12C136.8,122.2,138.9,121.6,140.9,121.1z"/>
		<path class="st0" d="M134,115.3c-0.6,1.8,0.6,3.8,2.5,4.4c1.2,0.4,2.4,0.2,3.6,0c-0.5-2.4-1.5-4.6-3.4-6.3
			C135.6,113.7,134.5,114.1,134,115.3z"/>
		<path class="st6" d="M149.2,123.5c2.6-0.3,5.1-0.6,7.7-0.9c1-1.4,1.8-2.9,2.2-4.6c-3.2,2-7.1,2.7-10.1,4.9
			C149.1,123.1,149.1,123.3,149.2,123.5z"/>
		<path class="st0" d="M154.6,111.2c0.2-0.4,0.5-0.8,0-1.2c-0.4-0.3-0.9-0.2-1.2,0.1c-1.8,1.2-3,3-3.8,4.9c-0.3,0.6,0.1,0.9,0.8,1
			C152,114.7,153.6,113.3,154.6,111.2z"/>
		<path class="st6" d="M146.4,131.2c-0.4,0.4-0.4,0.9-0.4,1.4c1.4,0.1,2.8,0.1,4.3,0.2c0.8-0.9,1.5-1.8,2.1-2.9
			C150.2,129.8,148.4,130.9,146.4,131.2z"/>
		<path class="st6" d="M157,105.8c1.1,0,2.2-0.1,3.3-0.1c0-1.4-0.2-2.7-1.6-3.5c-0.9,1.1-1.9,2.1-3.1,2.8
			C155.9,105.5,156.5,105.6,157,105.8z"/>
		<path class="st0" d="M146.4,134.2c1.5,0.9,2.9,0.4,3.8-1.4c-1.4-0.1-2.8-0.1-4.3-0.2C145.3,133.3,145.7,133.8,146.4,134.2z"/>
		<path class="st6" d="M153,99.7c0.2,0.6,0.6,0.5,1.1,0.5c0.9-0.1,1.9-0.1,2.7-0.7c-0.3-1.1-1-1.7-2-2.1c-0.3,0.5-0.7,0.9-1.3,1.2
			C153.1,98.8,152.9,99.2,153,99.7z"/>
		<path class="st0" d="M135.5,135.5c-0.3-0.1-0.7,0.1-0.8,0.5c-0.1,0.6,0.4,0.6,0.7,0.7c1,0.1,2,0.1,3.4,0.2
			C137.7,135.7,136.5,135.7,135.5,135.5z"/>
		<path class="st0" d="M100.4,96.2c0.2-1.5,1.2-2.7,2.2-3.8c-0.2-2.3-0.6-4.5-2.4-6.1c-1.6,0-3.3-0.3-4.9,0.5
			c-0.4,0.2-1.1-0.1-0.9-0.6c0.9-2.2-0.2-3.9-1.5-5.6c-0.2-0.1-0.3-0.2-0.5-0.2c-0.2-0.1-0.3-0.1-0.5-0.2c-6-0.9-11,1-15.3,5.1
			c-1.3,1.2-2.1,2.6-2.2,4.5c-0.5,7.2,3.1,12.6,7.4,17.7c1.7-1.9,3.6-1.7,4.6,0.5c0.5,1.1,1.2,2,2.8,2c-1.3,1-1.3,2.1-1.1,3.3
			c0.1,0.8,0.2,1.5-0.4,2.2c1.6,1.9,0.8,3.9,0.2,6c2.3-0.4,4.2-1,6.4-2c-2.4-0.8-1.8-2.5-1.9-4.1c-0.2-3.4-0.8-6.8-1.2-10.3
			c-0.4-3.1-1.6-5.3-4.9-6.5c-4-1.4-6.5-4.5-7.5-8.7c-0.4-1.6,0.6-2.7,2.3-2.4c1,0.2,1.8,0.8,2.7,1.3c2.5,1.6,4.6,3.7,6.6,5.8
			c0.5,0.5,1,1,1.7,0.8c3.1-1.3,5.1,0,6.4,2.7C99.5,98,100.2,97.4,100.4,96.2z"/>
		<path class="st6" d="M88,113.4c-0.2-1.2-0.2-2.3,1.1-3.3c-1.6,0-2.3-0.9-2.8-2c-1-2.2-2.9-2.4-4.6-0.5c0.5,0.8,0.9,1.7,1.4,2.4
			c1.4,1.9,2.4,4.3,4.5,5.6C88.3,114.9,88.2,114.1,88,113.4z"/>
		<path class="st6" d="M102.1,101.3c-0.6,2-0.5,2,1.5,1.7c0.3-3.6,0.4-7.2-1.1-10.6c-1,1.1-1.9,2.3-2.2,3.8c-0.2,1.1-0.9,1.7-1.9,2
			c0.1,0.2,0.1,0.4,0.2,0.6c0.7-0.1,1.4-0.1,2.1,0.1C101.8,99.4,102.5,99.9,102.1,101.3z"/>
		<path class="st6" d="M94.3,86.2c-0.2,0.5,0.5,0.8,0.9,0.6c1.6-0.8,3.2-0.5,4.9-0.5c-0.6-1-1.3-1.9-2.1-2.7
			c-0.4-0.4-0.7-0.7-1.1-1.1c-0.4-0.3-0.8-0.7-1.2-1c-0.4-0.3-0.8-0.5-1.3-0.7c-0.2-0.1-0.5-0.1-0.8-0.2c-0.3,0-0.5-0.1-0.8,0
			C94.1,82.3,95.1,84,94.3,86.2z"/>
		<path class="st6" d="M99.2,111.4c1.5,0.1,2.9,0.1,4.2,0.2c0.3-0.7,0-1.4-0.1-2.1C101.8,109.5,100.3,109.8,99.2,111.4z"/>
	</g>
</g>
</svg>
